<svg id="svg" version="1.1" xmlns="http://www.w3.org/2000/svg" xmlns:xlink="http://www.w3.org/1999/xlink" width="400" height="400" viewBox="0, 0, 400,400"><g id="svgg"><path id="path0" d="M206.480 114.480 C 205.868 115.092,205.832 116.951,206.440 116.575 C 206.749 116.384,206.745 116.556,206.426 117.152 C 206.032 117.888,205.614 118.000,203.266 118.000 C 201.655 118.000,200.342 118.202,200.021 118.500 C 199.588 118.903,199.542 118.896,199.786 118.466 C 200.008 118.075,199.838 117.968,199.144 118.066 C 198.506 118.157,198.157 118.506,198.066 119.144 C 197.968 119.838,198.075 120.008,198.466 119.786 C 198.896 119.542,198.903 119.588,198.500 120.021 C 198.225 120.318,198.000 120.874,198.000 121.258 C 198.000 121.807,197.594 121.982,196.100 122.078 L 194.200 122.200 194.078 124.100 C 193.958 125.964,193.930 126.001,192.578 126.050 C 191.820 126.078,190.981 126.123,190.713 126.150 C 190.435 126.179,190.162 126.973,190.076 128.000 C 189.896 130.172,190.135 129.934,187.987 130.086 C 186.116 130.218,186.135 130.191,186.046 132.700 C 186.002 133.931,185.919 134.000,184.480 134.000 C 182.261 134.000,182.000 134.474,182.000 138.493 C 182.000 141.500,182.104 142.060,182.700 142.261 C 184.954 143.019,186.989 144.264,187.537 145.219 C 187.883 145.822,189.110 146.778,190.265 147.344 C 191.420 147.911,192.659 148.823,193.018 149.371 C 193.377 149.920,194.053 150.490,194.520 150.638 C 195.489 150.946,201.600 156.898,201.600 157.535 C 201.600 157.766,202.144 158.276,202.808 158.669 C 203.485 159.068,204.392 160.179,204.867 161.191 C 205.335 162.186,206.042 163.270,206.439 163.600 C 206.835 163.930,207.787 165.673,208.553 167.473 C 209.320 169.274,210.309 171.109,210.751 171.551 C 211.935 172.735,212.800 176.127,212.800 179.584 C 212.800 181.593,212.997 182.903,213.381 183.452 L 213.962 184.281 216.184 183.208 C 217.406 182.617,218.810 181.756,219.303 181.294 C 222.679 178.131,241.007 178.053,245.105 181.184 C 245.707 181.644,247.305 182.781,248.656 183.710 C 253.587 187.103,255.166 188.472,256.218 190.267 C 256.809 191.275,257.877 192.752,258.592 193.550 C 260.187 195.331,260.936 196.800,261.571 199.395 C 261.840 200.492,262.205 201.572,262.383 201.795 C 263.554 203.261,263.927 209.772,262.993 212.421 C 261.691 216.111,263.373 218.107,267.666 217.966 C 271.655 217.836,279.651 219.599,282.102 221.150 C 282.816 221.602,284.442 222.524,285.715 223.199 C 287.066 223.916,288.222 224.850,288.493 225.445 C 288.749 226.006,289.629 226.807,290.449 227.225 C 291.297 227.658,292.308 228.639,292.790 229.497 C 293.257 230.328,294.160 231.307,294.797 231.672 C 295.455 232.050,296.418 233.256,297.029 234.468 C 298.468 237.323,302.357 242.675,304.224 244.370 L 305.733 245.740 312.766 245.809 C 321.094 245.891,321.496 245.794,321.844 243.612 L 322.102 242.000 324.151 241.961 C 325.278 241.940,326.843 241.951,327.630 241.987 C 329.427 242.068,330.142 241.264,329.925 239.406 C 329.765 238.038,329.799 237.999,331.180 237.954 C 333.823 237.868,333.781 237.898,333.914 236.013 C 334.067 233.848,333.895 234.021,336.035 233.876 C 337.458 233.779,337.808 233.605,337.841 232.978 C 337.863 232.550,337.908 231.626,337.941 230.925 C 337.998 229.700,338.054 229.659,339.397 229.877 C 342.030 230.304,341.948 230.815,341.986 213.563 C 342.009 202.732,341.883 197.728,341.570 197.144 C 341.251 196.547,341.248 196.382,341.560 196.575 C 342.168 196.951,342.132 195.092,341.520 194.480 C 340.908 193.868,339.049 193.832,339.425 194.440 C 339.616 194.749,339.444 194.745,338.848 194.426 C 338.274 194.119,337.985 193.556,337.954 192.686 C 337.864 190.193,337.883 190.218,336.013 190.086 C 333.865 189.934,334.104 190.172,333.924 188.000 C 333.838 186.973,333.565 186.179,333.287 186.150 C 333.019 186.123,332.176 186.078,331.414 186.050 C 330.444 186.015,329.892 185.746,329.574 185.152 C 329.255 184.556,329.251 184.384,329.560 184.575 C 330.168 184.951,330.132 183.092,329.520 182.480 C 328.908 181.868,327.049 181.832,327.425 182.440 C 327.612 182.743,327.428 182.736,326.833 182.417 C 326.357 182.163,325.661 181.986,325.284 182.024 C 322.587 182.294,322.000 182.044,322.000 180.629 C 322.000 178.306,321.459 178.089,315.545 178.040 C 312.639 178.016,310.212 177.946,310.151 177.884 C 310.089 177.822,309.985 174.268,309.919 169.986 C 309.800 162.229,309.797 162.200,308.889 162.071 C 307.014 161.805,306.006 160.204,305.928 157.371 C 305.854 154.694,305.450 153.941,304.153 154.059 C 301.937 154.259,301.639 154.069,301.877 152.603 C 302.215 150.522,301.525 149.933,298.965 150.121 C 297.029 150.263,296.836 150.199,296.621 149.343 C 296.289 148.020,294.472 146.860,293.940 147.632 C 293.658 148.040,293.624 147.929,293.820 147.239 C 294.043 146.452,293.972 146.325,293.425 146.535 C 293.059 146.676,292.858 146.629,292.981 146.431 C 293.324 145.877,274.188 145.871,273.152 146.426 C 272.556 146.745,272.384 146.749,272.575 146.440 C 272.745 146.165,272.473 146.000,271.847 146.000 C 271.297 146.000,270.719 146.208,270.562 146.462 C 270.373 146.767,270.454 146.814,270.800 146.600 C 271.154 146.381,271.227 146.432,271.026 146.758 C 270.817 147.095,270.579 147.115,270.228 146.823 C 269.952 146.594,269.642 146.492,269.538 146.595 C 269.435 146.699,268.559 145.977,267.592 144.992 C 266.625 144.006,266.059 143.200,266.335 143.200 C 266.876 143.200,268.307 144.569,269.076 145.824 C 269.518 146.543,269.555 146.517,269.576 145.482 C 269.604 144.164,268.026 142.400,266.818 142.400 C 265.973 142.400,265.789 141.151,265.988 136.755 C 266.070 134.937,265.180 134.000,263.371 134.000 C 262.100 134.000,261.997 133.905,261.954 132.700 C 261.865 130.191,261.884 130.218,260.013 130.086 C 257.866 129.934,258.104 130.170,257.925 128.012 L 257.776 126.224 255.988 126.075 C 253.830 125.896,254.066 126.133,253.916 123.991 L 253.791 122.209 252.009 122.084 C 249.839 121.932,249.971 122.065,249.877 119.944 L 249.800 118.200 246.200 118.092 C 241.649 117.954,241.556 117.919,241.857 116.416 C 242.339 114.004,242.663 114.052,225.564 114.014 C 214.722 113.990,209.731 114.116,209.145 114.430 C 208.548 114.749,208.383 114.752,208.575 114.440 C 208.951 113.832,207.092 113.868,206.480 114.480 M295.120 148.880 C 295.866 149.626,295.692 150.000,294.600 150.000 C 293.511 150.000,293.485 149.966,293.843 149.033 C 294.133 148.276,294.475 148.235,295.120 148.880 " stroke="none" fill="#4a4a4a" fill-rule="evenodd"></path><path id="path1" d="M145.087 138.853 C 144.255 139.274,143.359 140.109,143.095 140.709 C 142.429 142.226,142.174 142.337,139.775 142.145 C 137.827 141.989,137.645 142.048,137.484 142.888 L 137.309 143.800 137.254 142.900 C 137.136 140.936,134.000 142.216,134.000 144.229 C 134.000 144.959,134.223 145.209,134.900 145.234 C 136.299 145.288,133.781 145.999,131.800 146.110 C 130.202 146.200,130.200 146.202,130.122 147.963 C 130.044 149.744,129.503 150.491,128.554 150.127 C 127.880 149.868,125.868 151.880,126.127 152.554 C 126.495 153.513,125.711 154.085,123.950 154.143 C 122.298 154.197,122.197 154.267,122.145 155.400 C 122.114 156.060,122.069 156.915,122.045 157.300 C 122.012 157.804,121.658 158.000,120.776 158.000 C 120.063 158.000,119.656 158.167,119.800 158.400 C 119.936 158.620,119.872 158.800,119.657 158.800 C 119.442 158.800,119.184 158.575,119.083 158.300 C 118.941 157.911,118.778 157.922,118.350 158.350 C 117.922 158.778,117.911 158.941,118.300 159.083 C 118.575 159.184,118.800 159.442,118.800 159.657 C 118.800 159.872,118.597 159.922,118.350 159.769 C 118.039 159.577,117.950 159.919,118.061 160.873 C 118.208 162.130,118.140 162.239,117.311 162.081 C 116.044 161.839,116.035 163.479,117.300 163.988 L 118.200 164.349 117.300 164.375 C 116.649 164.393,116.393 164.649,116.375 165.300 L 116.349 166.200 115.988 165.300 C 115.178 163.287,114.015 164.186,114.052 166.797 C 114.074 168.358,114.232 169.104,114.505 168.935 C 114.778 168.767,114.800 168.872,114.568 169.238 C 114.372 169.547,114.209 170.700,114.206 171.800 C 114.201 173.571,114.096 173.815,113.294 173.929 C 112.796 173.999,112.490 174.223,112.616 174.425 C 112.916 174.911,110.903 176.911,110.416 176.610 C 110.188 176.469,110.054 178.079,110.078 180.688 C 110.138 187.297,109.929 195.882,109.727 195.113 C 109.474 194.152,107.347 193.841,103.082 194.144 C 98.994 194.434,98.400 194.752,98.400 196.649 C 98.400 198.179,98.524 198.139,94.048 198.032 C 90.383 197.944,87.760 198.993,87.069 200.822 C 86.825 201.470,86.439 202.021,86.212 202.047 C 85.986 202.072,84.990 202.117,84.000 202.147 L 82.200 202.200 82.225 204.100 C 82.244 205.558,82.105 206.005,81.625 206.023 C 74.180 206.293,74.442 206.196,74.297 208.739 C 74.215 210.176,74.050 210.466,73.200 210.669 C 71.873 210.985,70.800 211.955,70.800 212.838 C 70.800 213.231,70.620 213.664,70.400 213.800 C 70.180 213.936,70.000 214.227,70.000 214.447 C 70.000 214.667,70.144 214.758,70.321 214.649 C 70.497 214.540,70.458 215.241,70.234 216.207 C 69.833 217.937,69.800 217.965,68.013 218.082 L 66.200 218.200 66.126 220.600 C 66.086 221.920,66.041 223.675,66.026 224.500 C 66.002 225.901,65.919 226.000,64.776 226.000 C 64.063 226.000,63.656 226.167,63.800 226.400 C 63.936 226.620,63.872 226.800,63.657 226.800 C 63.442 226.800,63.184 226.575,63.083 226.300 C 62.941 225.911,62.778 225.922,62.350 226.350 C 61.922 226.778,61.911 226.941,62.300 227.083 C 62.575 227.184,62.800 227.442,62.800 227.657 C 62.800 227.872,62.634 227.944,62.430 227.819 C 62.205 227.680,62.088 234.302,62.130 244.695 L 62.200 261.800 63.899 261.833 C 66.146 261.876,66.121 261.830,66.164 266.097 L 66.200 269.800 68.100 269.922 C 69.855 270.035,70.003 270.126,70.041 271.122 C 70.207 275.553,70.844 276.981,72.890 277.511 C 73.930 277.781,74.230 278.105,74.454 279.203 C 74.768 280.739,75.713 281.600,77.086 281.600 C 77.743 281.600,78.135 281.926,78.410 282.700 C 79.097 284.639,79.441 284.973,81.366 285.571 C 82.911 286.051,83.404 286.065,84.070 285.649 C 84.599 285.319,84.785 285.300,84.602 285.597 C 84.439 285.860,84.549 286.022,84.860 285.979 C 86.005 285.822,86.308 286.039,86.536 287.182 C 86.843 288.717,88.190 289.565,90.812 289.876 C 92.566 290.084,92.867 290.030,92.586 289.563 C 92.309 289.103,92.358 289.090,92.854 289.491 C 93.330 289.876,113.855 289.983,187.903 289.985 L 282.346 289.987 282.519 289.093 L 282.691 288.200 282.746 289.100 C 282.786 289.771,283.047 290.000,283.771 290.000 C 285.782 290.000,287.069 286.855,285.100 286.754 C 284.287 286.712,284.277 286.689,285.000 286.515 C 285.440 286.409,285.952 286.179,286.137 286.004 C 286.322 285.829,287.222 285.771,288.137 285.875 C 289.385 286.017,289.650 285.957,289.200 285.638 C 288.870 285.404,288.780 285.195,289.000 285.174 C 289.220 285.152,289.916 285.098,290.548 285.052 C 291.717 284.968,293.200 283.572,293.200 282.556 C 293.200 282.250,293.397 282.000,293.639 282.000 C 293.916 282.000,294.026 281.273,293.939 280.018 C 293.816 278.263,293.899 278.011,294.663 277.820 C 295.137 277.701,295.857 277.496,296.263 277.364 C 296.884 277.162,296.906 277.196,296.400 277.580 C 295.907 277.954,295.978 278.014,296.800 277.917 C 297.529 277.832,297.832 277.529,297.917 276.800 C 298.013 275.986,297.952 275.911,297.591 276.400 C 297.241 276.874,297.205 276.789,297.422 276.000 C 297.936 274.130,298.258 273.864,300.054 273.832 L 301.800 273.800 301.856 270.800 C 301.950 265.763,301.817 266.130,303.633 265.886 C 305.730 265.605,305.719 265.621,305.926 262.747 C 306.056 260.960,305.956 260.218,305.551 259.961 C 305.152 259.709,305.138 259.611,305.500 259.606 C 305.775 259.603,306.000 259.319,306.000 258.976 C 306.000 258.633,305.850 258.445,305.667 258.559 C 305.483 258.672,305.333 258.511,305.333 258.200 C 305.333 257.889,305.483 257.728,305.667 257.841 C 305.850 257.955,306.000 255.360,306.000 252.076 L 306.000 246.104 304.125 245.893 C 302.557 245.716,301.985 245.396,300.622 243.933 C 299.614 242.850,298.374 241.999,297.367 241.697 C 295.711 241.201,295.085 240.421,294.617 238.273 C 294.471 237.605,293.893 236.873,293.194 236.473 C 292.547 236.103,291.809 235.300,291.555 234.689 C 290.871 233.042,287.641 229.811,285.708 228.841 C 284.778 228.374,283.750 227.477,283.424 226.847 C 282.808 225.656,281.839 225.216,279.800 225.203 C 277.733 225.190,275.633 224.404,274.120 223.078 L 272.662 221.800 266.231 221.755 C 262.694 221.731,259.457 221.686,259.039 221.655 C 258.308 221.602,258.288 221.282,258.536 213.900 C 258.905 202.949,258.547 200.060,256.598 198.275 C 255.535 197.301,255.015 196.435,254.839 195.346 C 254.637 194.101,254.310 193.650,253.161 193.033 C 252.377 192.611,251.389 191.640,250.967 190.875 C 250.453 189.944,249.738 189.339,248.800 189.042 C 247.717 188.700,247.298 188.283,246.948 187.200 C 246.429 185.593,246.757 185.688,237.836 184.565 C 230.552 183.649,218.000 184.994,218.000 186.691 C 218.000 188.161,216.111 189.200,213.437 189.200 C 209.004 189.200,207.649 187.869,208.160 184.019 C 208.325 182.773,208.190 180.975,207.793 179.125 C 207.447 177.516,206.906 174.779,206.591 173.042 C 206.275 171.305,205.968 169.859,205.908 169.829 C 205.849 169.798,205.296 169.519,204.679 169.208 C 203.768 168.748,203.395 168.087,202.683 165.665 C 201.927 163.095,201.607 162.562,200.349 161.768 C 199.299 161.105,198.793 160.435,198.543 159.375 C 198.258 158.171,197.940 157.821,196.797 157.452 C 195.671 157.088,195.288 156.676,194.824 155.334 C 194.295 153.804,194.108 153.647,192.533 153.411 C 191.590 153.269,190.707 152.973,190.570 152.752 C 190.434 152.531,189.872 152.180,189.322 151.971 C 188.773 151.761,188.229 151.232,188.115 150.795 C 187.979 150.277,187.207 149.755,185.902 149.300 C 183.110 148.325,182.000 145.843,182.000 140.576 C 182.000 139.604,181.758 138.697,181.425 138.421 C 180.775 137.881,175.801 137.909,174.724 138.458 C 174.331 138.658,173.952 138.646,173.818 138.429 C 173.501 137.917,147.617 138.001,147.721 138.514 C 147.765 138.726,147.575 138.983,147.300 139.083 C 146.979 139.201,146.887 139.039,147.043 138.633 C 147.345 137.845,147.002 137.884,145.087 138.853 M294.000 148.751 C 294.000 149.263,295.176 150.157,295.467 149.867 C 295.757 149.576,294.863 148.400,294.351 148.400 C 294.158 148.400,294.000 148.558,294.000 148.751 M114.667 162.667 C 114.116 163.217,114.429 164.000,115.200 164.000 C 115.733 164.000,116.000 163.733,116.000 163.200 C 116.000 162.429,115.217 162.116,114.667 162.667 M110.480 174.480 C 110.216 174.744,110.000 175.194,110.000 175.480 C 110.000 176.132,110.884 176.156,111.520 175.520 C 112.156 174.884,112.132 174.000,111.480 174.000 C 111.194 174.000,110.744 174.216,110.480 174.480 M103.810 195.585 C 103.604 195.917,103.357 195.899,102.889 195.519 C 102.334 195.068,102.290 195.105,102.549 195.800 C 102.777 196.410,102.736 196.490,102.379 196.135 C 101.655 195.417,102.321 194.639,103.111 195.281 C 103.666 195.732,103.710 195.695,103.451 195.000 C 103.223 194.390,103.264 194.310,103.621 194.665 C 103.879 194.921,103.964 195.335,103.810 195.585 M101.182 197.022 C 100.918 197.340,100.229 197.586,99.651 197.568 L 98.600 197.537 99.701 197.135 C 100.375 196.888,100.913 196.320,101.090 195.666 C 101.369 194.636,101.384 194.631,101.520 195.522 C 101.598 196.029,101.446 196.704,101.182 197.022 M77.997 207.403 C 77.783 207.662,77.735 208.002,77.891 208.158 C 78.048 208.314,77.866 208.324,77.488 208.178 C 76.429 207.772,76.635 206.933,77.794 206.933 C 78.203 206.933,78.266 207.079,77.997 207.403 M76.130 209.361 C 76.319 209.853,76.028 209.916,74.876 209.631 C 74.808 209.614,74.864 209.420,75.000 209.200 C 75.352 208.631,75.878 208.705,76.130 209.361 " stroke="none" fill="#f4f4f3" fill-rule="evenodd"></path><path id="path2" d="M183.160 144.252 C 184.451 146.687,186.582 148.529,189.306 149.564 C 189.881 149.783,190.558 150.347,190.810 150.818 C 191.062 151.290,192.078 152.033,193.067 152.471 C 194.214 152.978,195.162 153.767,195.681 154.648 C 196.130 155.408,197.014 156.297,197.647 156.624 C 198.280 156.951,199.060 157.849,199.382 158.619 C 199.704 159.388,200.506 160.328,201.165 160.706 C 202.024 161.199,202.599 162.040,203.195 163.675 C 203.653 164.930,204.639 166.689,205.387 167.584 C 206.147 168.494,207.038 170.224,207.407 171.506 C 207.770 172.768,208.564 174.790,209.171 176.000 C 210.038 177.725,210.327 178.977,210.509 181.800 C 210.789 186.131,210.969 186.660,212.429 187.415 C 214.046 188.251,214.460 188.164,216.068 186.647 C 216.856 185.903,218.199 185.066,219.051 184.787 C 219.903 184.507,220.960 184.047,221.400 183.764 C 227.221 180.020,243.536 181.775,248.378 186.665 C 249.214 187.509,250.915 189.076,252.159 190.147 C 253.403 191.218,254.892 192.928,255.466 193.947 C 256.041 194.966,256.945 196.174,257.475 196.630 C 259.293 198.198,260.116 205.317,259.608 215.097 C 259.326 220.533,259.328 220.534,267.789 220.828 L 274.358 221.056 277.168 222.528 C 278.714 223.338,280.208 224.000,280.489 224.000 C 281.663 224.001,285.866 226.381,286.686 227.509 C 287.173 228.180,288.174 228.927,288.911 229.171 C 289.898 229.496,290.437 230.032,290.952 231.199 C 291.336 232.071,292.170 233.091,292.804 233.466 C 293.548 233.905,294.337 235.007,295.029 236.573 C 296.374 239.618,297.272 240.609,299.439 241.436 C 300.782 241.949,301.213 242.346,301.413 243.260 C 301.696 244.549,302.772 245.409,304.600 245.808 L 305.800 246.069 304.601 245.407 C 302.916 244.476,302.110 243.680,301.832 242.671 C 301.700 242.192,300.783 241.209,299.794 240.486 C 298.538 239.567,297.580 238.362,296.615 236.486 C 295.343 234.009,292.990 231.313,287.740 226.315 C 283.840 222.602,275.184 219.605,267.507 219.309 C 260.877 219.054,260.939 219.098,261.152 214.838 C 261.715 203.547,260.980 199.036,257.900 194.866 C 256.816 193.400,255.631 191.692,255.265 191.070 C 254.344 189.506,247.970 184.449,244.658 182.654 C 238.886 179.527,224.541 179.264,220.600 182.213 C 219.940 182.707,218.468 183.577,217.328 184.148 C 216.189 184.718,215.143 185.368,215.005 185.592 C 213.760 187.606,211.937 184.516,211.579 179.786 C 211.222 175.058,205.597 163.154,202.000 159.512 C 201.230 158.732,199.430 156.807,198.000 155.233 C 196.570 153.659,194.770 152.035,194.000 151.625 C 193.230 151.214,192.153 150.399,191.606 149.813 C 191.059 149.227,189.997 148.456,189.245 148.099 C 188.493 147.743,187.320 146.894,186.639 146.213 C 185.957 145.533,184.603 144.261,183.630 143.388 L 181.859 141.800 183.160 144.252 " stroke="none" fill="#acacac" fill-rule="evenodd"></path><path id="path3" d="M185.303 144.917 C 186.789 146.344,188.592 147.790,189.309 148.130 C 190.026 148.470,191.059 149.227,191.606 149.813 C 192.153 150.399,193.230 151.214,194.000 151.625 C 194.770 152.035,196.570 153.659,198.000 155.233 C 199.430 156.807,201.230 158.732,202.000 159.512 C 205.597 163.154,211.222 175.058,211.579 179.786 C 211.937 184.516,213.760 187.606,215.005 185.592 C 215.143 185.368,216.189 184.718,217.328 184.148 C 218.468 183.577,219.940 182.707,220.600 182.213 C 224.541 179.264,238.886 179.527,244.658 182.654 C 247.970 184.449,254.344 189.506,255.265 191.070 C 255.631 191.692,256.816 193.400,257.900 194.866 C 260.980 199.036,261.715 203.547,261.152 214.838 C 260.939 219.098,260.877 219.054,267.507 219.309 C 275.184 219.605,283.840 222.602,287.740 226.315 C 292.990 231.313,295.343 234.009,296.615 236.486 C 297.580 238.362,298.538 239.567,299.794 240.486 C 300.783 241.209,301.706 242.212,301.844 242.716 C 302.111 243.691,304.659 245.874,305.061 245.472 C 305.193 245.341,304.740 244.761,304.054 244.184 C 302.484 242.863,298.445 237.277,297.029 234.468 C 296.418 233.256,295.455 232.050,294.797 231.672 C 294.160 231.307,293.257 230.328,292.790 229.497 C 292.308 228.639,291.297 227.658,290.449 227.225 C 289.629 226.807,288.749 226.006,288.493 225.445 C 288.222 224.850,287.066 223.916,285.715 223.199 C 284.442 222.524,282.816 221.602,282.102 221.150 C 279.651 219.599,271.655 217.836,267.666 217.966 C 263.373 218.107,261.691 216.111,262.993 212.421 C 263.927 209.772,263.554 203.261,262.383 201.795 C 262.205 201.572,261.840 200.492,261.571 199.395 C 260.936 196.800,260.187 195.331,258.592 193.550 C 257.877 192.752,256.809 191.275,256.218 190.267 C 255.166 188.472,253.587 187.103,248.656 183.710 C 247.305 182.781,245.707 181.644,245.105 181.184 C 241.007 178.053,222.679 178.131,219.303 181.294 C 218.810 181.756,217.406 182.617,216.184 183.208 L 213.962 184.281 213.381 183.452 C 212.997 182.903,212.800 181.593,212.800 179.584 C 212.800 176.127,211.935 172.735,210.751 171.551 C 210.309 171.109,209.320 169.274,208.553 167.473 C 207.787 165.673,206.835 163.930,206.439 163.600 C 206.042 163.270,205.335 162.186,204.867 161.191 C 204.392 160.179,203.485 159.068,202.808 158.669 C 202.144 158.276,201.600 157.766,201.600 157.535 C 201.600 156.898,195.489 150.946,194.520 150.638 C 194.053 150.490,193.377 149.920,193.018 149.371 C 192.659 148.823,191.383 147.892,190.183 147.304 C 188.983 146.715,187.897 145.904,187.769 145.502 C 187.508 144.681,185.128 143.024,183.600 142.600 C 182.848 142.391,183.270 142.966,185.303 144.917 M267.600 145.000 C 268.572 145.990,269.413 146.800,269.470 146.800 C 269.835 146.800,267.771 143.905,267.181 143.590 C 265.741 142.819,265.863 143.230,267.600 145.000 M310.100 245.894 C 311.145 245.976,312.855 245.976,313.900 245.894 C 314.945 245.812,314.090 245.744,312.000 245.744 C 309.910 245.744,309.055 245.812,310.100 245.894 " stroke="none" fill="#7c7c7c" fill-rule="evenodd"></path><path id="path4" d="M182.241 143.600 C 183.008 148.043,183.166 148.280,186.058 149.348 C 187.198 149.769,187.994 150.335,188.119 150.812 C 188.231 151.240,188.773 151.761,189.322 151.971 C 189.872 152.180,190.434 152.531,190.570 152.752 C 190.707 152.973,191.590 153.269,192.533 153.411 C 194.108 153.647,194.295 153.804,194.824 155.334 C 195.288 156.676,195.671 157.088,196.797 157.452 C 197.940 157.821,198.258 158.171,198.543 159.375 C 198.793 160.435,199.299 161.105,200.349 161.768 C 201.607 162.562,201.927 163.095,202.683 165.665 C 203.395 168.087,203.768 168.748,204.679 169.208 C 205.296 169.519,205.849 169.798,205.908 169.829 C 205.968 169.859,206.275 171.305,206.591 173.042 C 206.906 174.779,207.447 177.516,207.793 179.125 C 208.190 180.975,208.325 182.773,208.160 184.019 C 207.649 187.869,209.004 189.200,213.437 189.200 C 216.111 189.200,218.000 188.161,218.000 186.691 C 218.000 184.994,230.552 183.649,237.836 184.565 C 246.757 185.688,246.429 185.593,246.948 187.200 C 247.298 188.283,247.717 188.700,248.800 189.042 C 249.738 189.339,250.453 189.944,250.967 190.875 C 251.389 191.640,252.377 192.611,253.161 193.033 C 254.310 193.650,254.637 194.101,254.839 195.346 C 255.015 196.435,255.535 197.301,256.598 198.275 C 258.547 200.060,258.905 202.949,258.536 213.900 C 258.288 221.282,258.308 221.602,259.039 221.655 C 259.457 221.686,262.694 221.731,266.231 221.755 L 272.662 221.800 274.120 223.078 C 275.633 224.404,277.733 225.190,279.800 225.203 C 281.839 225.216,282.808 225.656,283.424 226.847 C 283.750 227.477,284.778 228.374,285.708 228.841 C 287.641 229.811,290.871 233.042,291.555 234.689 C 291.809 235.300,292.547 236.103,293.194 236.473 C 293.893 236.873,294.471 237.605,294.617 238.273 C 295.085 240.421,295.711 241.201,297.367 241.697 C 298.344 241.990,299.634 242.860,300.597 243.875 C 301.483 244.809,302.737 245.679,303.400 245.819 C 304.594 246.071,304.593 246.069,303.209 245.336 C 302.283 244.846,301.698 244.177,301.461 243.336 C 301.183 242.350,300.733 241.930,299.413 241.426 C 297.273 240.609,296.371 239.610,295.029 236.573 C 294.337 235.007,293.548 233.905,292.804 233.466 C 292.170 233.091,291.336 232.071,290.952 231.199 C 290.437 230.032,289.898 229.496,288.911 229.171 C 288.174 228.927,287.173 228.180,286.686 227.509 C 285.866 226.381,281.663 224.001,280.489 224.000 C 280.208 224.000,278.714 223.338,277.168 222.528 L 274.358 221.056 267.789 220.828 C 259.328 220.534,259.326 220.533,259.608 215.097 C 260.116 205.317,259.293 198.198,257.475 196.630 C 256.945 196.174,256.041 194.966,255.466 193.947 C 254.892 192.928,253.403 191.218,252.159 190.147 C 250.915 189.076,249.214 187.509,248.378 186.665 C 243.536 181.775,227.221 180.020,221.400 183.764 C 220.960 184.047,219.903 184.507,219.051 184.787 C 218.199 185.066,216.856 185.903,216.068 186.647 C 214.460 188.164,214.046 188.251,212.429 187.415 C 210.969 186.660,210.789 186.131,210.509 181.800 C 210.327 178.977,210.038 177.725,209.171 176.000 C 208.564 174.790,207.770 172.768,207.407 171.506 C 207.038 170.224,206.147 168.494,205.387 167.584 C 204.639 166.689,203.653 164.930,203.195 163.675 C 202.599 162.040,202.024 161.199,201.165 160.706 C 200.506 160.328,199.704 159.388,199.382 158.619 C 199.060 157.849,198.280 156.951,197.647 156.624 C 197.014 156.297,196.121 155.394,195.663 154.617 C 195.126 153.707,194.254 152.975,193.210 152.557 C 192.319 152.201,191.220 151.389,190.768 150.755 C 190.315 150.120,189.727 149.600,189.459 149.600 C 188.047 149.600,184.542 146.698,183.299 144.500 C 182.102 142.384,182.018 142.312,182.241 143.600 M115.823 163.963 C 115.699 164.163,115.767 164.748,115.974 165.263 L 116.349 166.200 116.375 165.300 C 116.393 164.650,116.650 164.392,117.300 164.372 C 118.159 164.345,118.163 164.328,117.400 164.000 C 116.330 163.540,116.088 163.534,115.823 163.963 M111.300 175.456 C 110.805 175.991,110.400 176.518,110.400 176.628 C 110.400 177.080,112.013 175.923,112.405 175.191 C 112.975 174.126,112.405 174.263,111.300 175.456 M100.458 196.618 C 99.776 197.329,99.680 197.600,100.109 197.600 C 100.815 197.600,101.733 196.592,101.538 196.031 C 101.462 195.813,100.976 196.077,100.458 196.618 M77.796 207.207 C 77.658 207.430,77.377 207.509,77.172 207.383 C 76.968 207.256,76.800 207.324,76.800 207.534 C 76.800 207.743,77.110 208.033,77.488 208.178 C 77.866 208.324,78.048 208.314,77.891 208.158 C 77.735 208.002,77.807 207.632,78.052 207.337 C 78.297 207.042,78.397 206.800,78.273 206.800 C 78.149 206.800,77.934 206.983,77.796 207.207 " stroke="none" fill="#e4e4e4" fill-rule="evenodd"></path></g></svg>