<svg id="svg" version="1.1" xmlns="http://www.w3.org/2000/svg" xmlns:xlink="http://www.w3.org/1999/xlink" width="400" height="400" viewBox="0, 0, 400,400"><g id="svgg"><path id="path0" d="M150.480 134.480 C 149.958 135.002,149.812 137.200,150.300 137.200 C 150.465 137.200,150.600 137.650,150.600 138.200 C 150.600 138.750,150.471 139.200,150.313 139.200 C 150.155 139.200,150.052 140.190,150.083 141.400 C 150.115 142.610,150.296 143.600,150.485 143.600 C 150.674 143.600,150.644 143.944,150.419 144.364 C 150.025 145.100,150.403 148.536,150.936 149.069 C 151.446 149.579,154.614 149.919,155.100 149.516 C 155.375 149.288,155.600 149.259,155.600 149.451 C 155.600 149.647,170.686 149.800,190.000 149.800 C 209.314 149.800,224.400 149.647,224.400 149.451 C 224.400 149.259,224.625 149.288,224.900 149.516 C 225.386 149.919,228.554 149.579,229.064 149.069 C 229.597 148.536,229.975 145.100,229.581 144.364 C 229.301 143.841,229.302 143.600,229.586 143.600 C 229.816 143.600,230.000 142.712,230.000 141.600 C 230.000 140.500,229.865 139.600,229.700 139.600 C 229.535 139.600,229.400 139.150,229.400 138.600 C 229.400 138.050,229.535 137.600,229.700 137.600 C 230.190 137.600,230.040 135.000,229.520 134.480 C 228.913 133.873,226.400 133.848,226.400 134.449 C 226.400 134.777,226.257 134.779,225.869 134.458 C 225.156 133.866,155.062 133.832,153.958 134.423 C 153.441 134.699,153.200 134.696,153.200 134.414 C 153.200 133.841,151.068 133.892,150.480 134.480 M151.683 134.670 C 151.261 134.840,151.261 134.999,151.683 135.539 C 152.145 136.130,152.125 136.142,151.500 135.651 C 150.946 135.216,150.800 135.210,150.800 135.618 C 150.800 135.901,150.684 136.018,150.543 135.876 C 150.207 135.540,151.166 134.391,151.749 134.432 C 152.017 134.450,151.990 134.547,151.683 134.670 M229.120 134.880 C 229.792 135.552,229.717 136.269,228.943 136.566 C 228.387 136.780,228.366 136.722,228.806 136.192 C 229.546 135.301,228.699 134.454,227.808 135.194 C 227.278 135.634,227.220 135.613,227.434 135.057 C 227.731 134.283,228.448 134.208,229.120 134.880 M151.768 146.586 C 152.130 147.451,152.708 148.062,153.307 148.212 C 153.835 148.345,154.267 148.700,154.267 149.001 C 154.267 149.452,154.051 149.461,153.033 149.054 C 151.824 148.569,150.222 146.212,150.641 145.533 C 150.986 144.975,151.165 145.143,151.768 146.586 M229.145 146.786 C 228.550 148.493,225.733 150.314,225.733 148.991 C 225.733 148.695,226.165 148.345,226.693 148.212 C 227.295 148.061,227.871 147.449,228.238 146.570 C 228.941 144.889,229.740 145.080,229.145 146.786 M154.000 147.833 C 154.000 148.001,153.556 147.722,153.012 147.212 C 152.469 146.701,152.123 146.124,152.244 145.928 C 152.462 145.576,154.000 147.244,154.000 147.833 M227.160 147.042 C 225.894 148.390,225.346 148.239,226.470 146.852 C 226.981 146.221,227.549 145.790,227.730 145.894 C 227.912 145.999,227.655 146.515,227.160 147.042 M102.480 158.480 C 101.731 159.229,101.880 160.799,102.700 160.806 C 103.276 160.811,103.298 160.877,102.825 161.176 C 102.136 161.612,101.736 171.200,102.407 171.200 C 102.872 171.200,102.756 172.087,102.242 172.460 C 101.715 172.842,102.275 174.000,102.987 174.000 C 103.324 174.000,103.600 173.850,103.600 173.667 C 103.600 173.483,103.870 173.333,104.200 173.333 C 104.530 173.333,104.800 173.481,104.800 173.662 C 104.800 173.843,134.770 173.991,171.400 173.991 C 217.533 173.991,238.000 173.862,238.000 173.572 C 238.000 173.341,238.188 173.269,238.418 173.411 C 238.647 173.553,239.097 173.451,239.418 173.185 C 239.887 172.796,240.000 172.828,240.000 173.351 C 240.000 174.113,240.834 174.206,241.520 173.520 C 242.206 172.834,242.113 172.000,241.351 172.000 C 240.828 172.000,240.796 171.887,241.185 171.418 C 241.451 171.097,241.553 170.647,241.411 170.418 C 241.269 170.188,241.326 170.000,241.539 170.000 C 241.759 170.000,241.901 168.628,241.869 166.800 C 241.838 165.040,241.645 163.600,241.440 163.600 C 241.235 163.600,241.184 163.483,241.327 163.340 C 241.470 163.196,241.275 162.845,240.894 162.559 C 240.273 162.094,240.301 162.065,241.161 162.283 C 242.176 162.539,242.270 159.710,241.280 158.720 C 240.642 158.082,237.600 157.815,237.600 158.396 C 237.600 158.772,237.464 158.785,237.061 158.450 C 236.129 157.677,105.683 158.023,105.191 158.800 C 104.868 159.311,104.811 159.297,104.806 158.700 C 104.799 157.880,103.229 157.731,102.480 158.480 M104.000 158.751 C 104.000 159.255,102.826 160.159,102.541 159.874 C 102.131 159.465,102.743 158.400,103.387 158.400 C 103.724 158.400,104.000 158.558,104.000 158.751 M240.618 159.382 C 241.158 159.922,241.579 160.777,241.554 161.282 C 241.515 162.046,241.475 162.073,241.313 161.442 C 241.206 161.025,241.002 160.845,240.859 161.042 C 240.717 161.239,240.116 160.905,239.526 160.300 C 238.935 159.695,238.665 159.187,238.926 159.172 C 239.186 159.156,239.040 158.989,238.600 158.800 C 237.843 158.475,237.849 158.455,238.718 158.428 C 239.223 158.413,240.078 158.842,240.618 159.382 M239.802 160.002 C 240.202 160.444,240.615 160.718,240.721 160.612 C 240.990 160.343,239.992 159.200,239.489 159.200 C 239.262 159.200,239.403 159.561,239.802 160.002 M241.600 172.776 C 241.600 173.248,240.820 173.753,240.533 173.467 C 240.247 173.180,240.752 172.400,241.224 172.400 C 241.431 172.400,241.600 172.569,241.600 172.776 M148.000 182.288 C 147.450 182.387,146.824 182.637,146.609 182.845 C 146.138 183.299,146.009 195.600,146.475 195.600 C 146.904 195.600,146.708 196.523,146.203 196.883 C 145.951 197.063,145.994 197.354,146.320 197.680 C 146.646 198.006,146.937 198.049,147.117 197.797 C 147.526 197.224,148.400 197.122,148.400 197.647 C 148.400 197.896,148.753 198.001,149.200 197.884 C 149.897 197.702,150.000 197.872,150.000 199.209 C 150.000 201.242,150.823 202.000,153.029 202.000 C 154.393 202.000,154.800 201.852,154.800 201.353 C 154.800 200.878,155.038 200.771,155.700 200.949 C 156.837 201.255,301.940 201.284,302.435 200.979 C 302.636 200.854,302.800 201.060,302.800 201.434 C 302.800 202.036,303.139 202.088,305.668 201.876 C 308.909 201.604,309.399 201.260,309.768 199.000 C 309.956 197.851,309.914 197.569,309.621 198.000 C 309.396 198.330,309.209 198.887,309.206 199.238 C 309.190 200.929,305.404 202.260,304.394 200.931 C 303.918 200.305,303.919 200.272,304.399 200.700 C 304.708 200.975,305.228 201.200,305.556 201.200 C 306.026 201.200,306.001 201.089,305.440 200.679 C 304.795 200.207,304.787 200.109,305.359 199.634 C 305.707 199.345,305.874 198.905,305.731 198.655 C 305.589 198.405,305.619 198.333,305.799 198.497 C 305.979 198.660,306.368 198.593,306.663 198.348 C 306.996 198.072,307.200 198.056,307.200 198.305 C 307.200 198.527,306.734 199.013,306.165 199.386 C 305.596 199.759,305.239 200.172,305.371 200.305 C 305.504 200.437,306.262 199.928,307.056 199.173 C 308.121 198.161,308.380 198.034,308.041 198.691 C 307.788 199.181,307.210 199.780,306.757 200.023 C 306.303 200.266,306.031 200.565,306.153 200.687 C 306.631 201.165,308.353 199.553,308.795 198.214 C 309.052 197.436,309.419 196.800,309.610 196.800 C 310.229 196.800,309.993 186.714,309.351 185.700 C 308.852 184.911,308.857 184.800,309.391 184.800 C 310.125 184.800,310.216 183.176,309.520 182.480 C 308.800 181.760,307.200 181.877,307.200 182.649 C 307.200 183.178,307.090 183.207,306.605 182.804 C 306.278 182.533,305.738 182.415,305.405 182.543 C 305.072 182.670,304.800 182.601,304.800 182.387 C 304.800 181.958,154.590 181.822,152.450 182.250 C 151.763 182.388,151.200 182.668,151.200 182.874 C 151.200 183.079,151.425 183.118,151.700 182.959 C 151.990 182.792,152.060 182.824,151.867 183.036 C 151.683 183.236,151.323 183.400,151.067 183.400 C 150.810 183.400,150.591 183.580,150.580 183.800 C 150.522 184.989,149.864 186.000,149.149 186.000 C 148.644 186.000,148.445 186.183,148.606 186.500 C 148.745 186.775,148.593 186.674,148.268 186.276 C 147.893 185.816,147.581 185.707,147.415 185.976 C 146.837 186.911,146.306 186.370,146.559 185.105 C 146.894 183.431,147.491 182.867,149.205 182.605 L 150.600 182.393 149.373 182.968 C 148.030 183.597,147.473 184.178,147.042 185.400 C 146.861 185.910,147.165 185.720,147.880 184.876 C 148.496 184.147,149.360 183.500,149.800 183.438 C 150.240 183.376,150.658 183.026,150.729 182.662 C 150.862 181.982,150.208 181.892,148.000 182.288 M309.120 182.880 C 309.757 183.517,309.725 183.866,309.005 184.143 C 308.661 184.275,308.450 184.166,308.505 183.886 C 308.557 183.619,308.381 183.443,308.114 183.495 C 307.834 183.550,307.725 183.339,307.857 182.995 C 308.134 182.275,308.483 182.243,309.120 182.880 M148.889 184.223 C 147.783 184.997,147.758 185.412,148.812 185.491 C 149.370 185.533,149.589 185.340,149.512 184.876 C 149.448 184.488,149.625 184.247,149.930 184.310 C 150.221 184.370,150.345 184.235,150.206 184.010 C 149.887 183.493,149.943 183.484,148.889 184.223 M151.280 199.280 C 150.656 199.904,150.666 200.427,151.300 200.300 C 151.575 200.245,151.755 200.425,151.700 200.700 C 151.645 200.975,151.744 201.200,151.920 201.200 C 152.096 201.200,152.467 200.975,152.744 200.700 C 153.148 200.299,153.195 200.339,152.981 200.900 C 152.650 201.769,151.855 201.798,151.029 200.971 C 150.273 200.216,150.214 199.342,150.900 199.065 C 151.717 198.735,151.786 198.774,151.280 199.280 M90.480 206.480 C 89.873 207.087,89.848 209.600,90.449 209.600 C 90.761 209.600,90.772 209.752,90.486 210.100 C 89.936 210.768,90.148 222.255,90.737 223.707 C 91.457 225.484,96.793 226.932,96.806 225.354 C 96.810 224.825,96.907 224.750,97.131 225.102 C 97.385 225.503,112.645 225.584,172.525 225.502 C 213.816 225.446,247.651 225.553,247.713 225.740 C 247.841 226.124,252.008 225.689,252.783 225.210 C 253.488 224.775,254.039 221.532,253.516 220.900 C 253.268 220.601,253.256 220.400,253.487 220.400 C 253.713 220.400,253.860 218.424,253.843 215.600 C 253.828 212.960,253.666 210.800,253.484 210.800 C 253.302 210.800,253.255 210.635,253.379 210.434 C 253.503 210.233,253.379 209.977,253.102 209.866 C 252.799 209.744,252.878 209.651,253.300 209.632 C 254.207 209.591,254.256 207.513,253.371 206.629 C 252.484 205.741,250.402 205.791,250.394 206.700 C 250.389 207.254,250.315 207.285,250.039 206.849 C 249.847 206.546,249.502 206.414,249.272 206.555 C 249.043 206.697,248.746 206.637,248.613 206.422 C 248.288 205.895,95.987 205.873,94.601 206.400 C 93.957 206.644,93.600 206.641,93.600 206.390 C 93.600 205.833,91.054 205.906,90.480 206.480 M92.172 206.755 C 92.293 206.950,92.078 207.085,91.696 207.055 C 91.246 207.019,91.022 207.262,91.063 207.743 C 91.107 208.268,91.001 208.361,90.700 208.060 C 90.399 207.759,90.424 207.453,90.786 207.017 C 91.363 206.322,91.848 206.230,92.172 206.755 M253.120 206.880 C 253.792 207.552,253.717 208.269,252.943 208.566 C 252.387 208.780,252.366 208.722,252.806 208.192 C 253.189 207.732,253.208 207.448,252.880 207.120 C 252.552 206.792,252.268 206.811,251.808 207.194 C 251.278 207.634,251.220 207.613,251.434 207.057 C 251.731 206.283,252.448 206.208,253.120 206.880 M251.135 223.047 C 250.254 223.928,250.077 223.979,249.861 223.414 C 249.722 223.053,249.763 222.854,249.951 222.970 C 250.139 223.086,250.616 222.824,251.011 222.388 C 251.405 221.952,251.825 221.692,251.943 221.810 C 252.061 221.928,251.697 222.484,251.135 223.047 M253.142 222.754 C 252.379 224.760,249.507 226.343,248.775 225.160 C 248.298 224.387,249.153 223.463,249.828 224.023 C 250.552 224.624,251.924 223.840,252.222 222.655 C 252.349 222.148,252.695 221.733,252.991 221.733 C 253.403 221.733,253.438 221.973,253.142 222.754 M93.812 223.521 C 93.543 223.790,92.400 222.792,92.400 222.289 C 92.400 222.062,92.761 222.203,93.202 222.602 C 93.644 223.002,93.918 223.415,93.812 223.521 M95.639 225.002 C 96.084 224.749,96.100 224.790,95.717 225.204 C 95.188 225.776,94.000 225.133,94.000 224.275 C 94.000 224.039,94.243 224.179,94.539 224.585 C 94.886 225.059,95.279 225.208,95.639 225.002 M123.812 230.349 C 122.426 230.646,121.508 233.520,122.362 234.888 C 122.607 235.280,122.641 235.600,122.438 235.600 C 122.230 235.600,122.098 237.812,122.135 240.700 L 122.200 245.800 124.232 245.745 C 125.828 245.701,126.365 245.851,126.735 246.445 C 127.119 247.060,127.095 247.200,126.603 247.200 C 125.874 247.200,125.788 248.828,126.480 249.520 C 127.200 250.240,128.800 250.123,128.800 249.351 C 128.800 248.818,128.908 248.791,129.403 249.203 C 129.765 249.503,130.553 249.615,131.368 249.483 C 132.116 249.361,132.810 249.343,132.909 249.442 C 133.179 249.713,279.983 249.658,280.421 249.387 C 280.630 249.258,280.800 249.366,280.800 249.627 C 280.800 250.237,284.647 249.913,285.313 249.247 C 285.570 248.990,285.784 248.011,285.790 247.070 C 285.799 245.553,285.909 245.351,286.770 245.279 C 288.912 245.099,290.320 241.469,289.909 237.189 C 289.669 234.701,289.360 234.365,287.066 234.106 C 285.685 233.951,285.316 233.764,285.489 233.311 C 285.614 232.986,285.465 232.560,285.158 232.366 C 284.711 232.083,284.740 232.011,285.300 232.006 C 286.105 231.999,286.223 231.183,285.520 230.480 C 284.817 229.777,284.001 229.895,283.994 230.700 C 283.989 231.260,283.917 231.289,283.634 230.842 C 283.440 230.535,282.993 230.394,282.640 230.529 C 282.288 230.664,282.000 230.601,282.000 230.390 C 282.000 230.144,254.118 230.005,205.000 230.007 C 162.650 230.009,128.000 230.158,128.000 230.338 C 128.000 230.519,127.730 230.667,127.400 230.667 C 127.070 230.667,126.800 230.517,126.800 230.333 C 126.800 229.960,125.598 229.967,123.812 230.349 M125.241 231.158 C 124.493 231.556,123.548 232.493,123.140 233.241 L 122.399 234.600 122.653 233.400 C 123.064 231.463,124.015 230.677,126.200 230.471 C 126.420 230.451,125.988 230.759,125.241 231.158 M288.665 235.429 C 290.566 237.330,288.762 243.561,286.300 243.596 C 285.511 243.607,286.135 242.351,287.188 241.806 C 290.114 240.293,289.990 235.718,287.000 234.826 C 285.983 234.523,285.940 234.464,286.718 234.434 C 287.223 234.415,288.099 234.863,288.665 235.429 M285.028 248.213 C 284.304 249.319,282.554 249.914,281.913 249.273 C 281.609 248.969,281.738 248.911,282.362 249.074 C 283.424 249.352,285.177 247.867,285.246 246.630 C 285.286 245.927,285.321 245.910,285.480 246.520 C 285.582 246.915,285.379 247.678,285.028 248.213 M128.133 249.029 C 127.849 249.770,127.424 249.752,126.775 248.970 C 126.342 248.448,126.348 248.279,126.812 247.992 C 127.525 247.552,128.428 248.261,128.133 249.029 M147.477 254.280 C 146.667 254.490,146.000 255.932,146.000 257.473 C 146.000 258.332,146.143 258.457,146.900 258.267 C 147.714 258.061,147.734 258.089,147.106 258.559 C 146.725 258.845,146.530 259.196,146.673 259.340 C 146.816 259.483,146.751 259.600,146.528 259.600 C 146.278 259.600,146.137 261.137,146.161 263.600 C 146.182 265.800,146.335 267.600,146.500 267.600 C 146.909 267.600,146.693 268.533,146.203 268.883 C 145.951 269.063,145.994 269.354,146.320 269.680 C 146.646 270.006,146.937 270.049,147.117 269.797 C 147.505 269.253,148.400 269.111,148.400 269.593 C 148.400 269.847,166.639 269.985,200.337 269.985 L 252.274 269.985 253.105 269.093 C 253.968 268.166,254.310 258.800,253.481 258.800 C 253.300 258.800,253.255 258.635,253.379 258.434 C 253.503 258.233,253.379 257.977,253.102 257.866 C 252.799 257.744,252.878 257.651,253.300 257.632 C 254.207 257.591,254.256 255.513,253.371 254.629 C 252.484 253.741,250.402 253.791,250.394 254.700 C 250.389 255.254,250.315 255.285,250.039 254.849 C 249.847 254.546,249.489 254.421,249.245 254.572 C 249.000 254.724,248.800 254.660,248.800 254.432 C 248.800 254.146,233.557 254.014,200.212 254.011 L 151.625 254.007 150.763 254.903 L 149.901 255.800 150.365 254.900 C 150.846 253.966,149.666 253.713,147.477 254.280 M149.400 254.686 C 148.285 254.956,146.875 256.335,146.676 257.350 C 146.518 258.155,146.506 258.151,146.454 257.282 C 146.384 256.101,148.094 254.386,149.282 254.446 C 150.098 254.488,150.111 254.514,149.400 254.686 M253.120 254.880 C 253.792 255.552,253.717 256.269,252.943 256.566 C 252.387 256.780,252.366 256.722,252.806 256.192 C 253.189 255.732,253.208 255.448,252.880 255.120 C 252.552 254.792,252.268 254.811,251.808 255.194 C 251.278 255.634,251.220 255.613,251.434 255.057 C 251.731 254.283,252.448 254.208,253.120 254.880 " stroke="none" fill="#4c4c4c" fill-rule="evenodd"></path><path id="path1" d="M150.792 135.010 C 150.514 135.345,150.402 135.735,150.543 135.876 C 150.684 136.018,150.800 135.901,150.800 135.618 C 150.800 135.210,150.946 135.216,151.500 135.651 C 152.125 136.142,152.145 136.130,151.683 135.539 C 151.261 134.999,151.261 134.840,151.683 134.670 C 151.990 134.547,152.017 134.450,151.749 134.432 C 151.501 134.414,151.070 134.674,150.792 135.010 M227.434 135.057 C 227.220 135.613,227.278 135.634,227.808 135.194 C 228.699 134.454,229.546 135.301,228.806 136.192 C 228.366 136.722,228.387 136.780,228.943 136.566 C 229.717 136.269,229.792 135.552,229.120 134.880 C 228.448 134.208,227.731 134.283,227.434 135.057 M150.000 138.200 C 150.000 138.750,150.135 139.200,150.300 139.200 C 150.465 139.200,150.600 138.750,150.600 138.200 C 150.600 137.650,150.465 137.200,150.300 137.200 C 150.135 137.200,150.000 137.650,150.000 138.200 M229.400 138.600 C 229.400 139.150,229.535 139.600,229.700 139.600 C 229.865 139.600,230.000 139.150,230.000 138.600 C 230.000 138.050,229.865 137.600,229.700 137.600 C 229.535 137.600,229.400 138.050,229.400 138.600 M150.641 145.533 C 150.222 146.212,151.824 148.569,153.033 149.054 C 154.051 149.461,154.267 149.452,154.267 149.001 C 154.267 148.700,153.835 148.345,153.307 148.212 C 152.708 148.062,152.130 147.451,151.768 146.586 C 151.165 145.143,150.986 144.975,150.641 145.533 M228.238 146.570 C 227.871 147.449,227.295 148.061,226.693 148.212 C 226.165 148.345,225.733 148.695,225.733 148.991 C 225.733 150.314,228.550 148.493,229.145 146.786 C 229.740 145.080,228.941 144.889,228.238 146.570 M152.244 145.928 C 152.123 146.124,152.469 146.701,153.012 147.212 C 154.186 148.315,154.315 147.927,153.232 146.550 C 152.809 146.013,152.365 145.733,152.244 145.928 M226.470 146.852 C 225.958 147.483,225.701 148.000,225.900 148.000 C 226.458 148.000,228.102 146.109,227.730 145.894 C 227.549 145.790,226.981 146.221,226.470 146.852 M177.100 149.900 C 184.195 149.961,195.805 149.961,202.900 149.900 C 209.995 149.839,204.190 149.789,190.000 149.789 C 175.810 149.789,170.005 149.839,177.100 149.900 M104.806 158.700 C 104.810 159.132,104.925 159.231,105.106 158.960 C 105.268 158.718,105.670 158.417,106.000 158.292 C 106.401 158.139,106.301 158.053,105.700 158.032 C 105.095 158.010,104.802 158.230,104.806 158.700 M110.905 158.287 C 111.514 158.379,112.414 158.377,112.905 158.282 C 113.397 158.187,112.900 158.111,111.800 158.114 C 110.700 158.117,110.297 158.195,110.905 158.287 M102.538 159.017 C 102.408 159.357,102.409 159.742,102.541 159.874 C 102.826 160.159,104.000 159.255,104.000 158.751 C 104.000 158.147,102.787 158.368,102.538 159.017 M238.600 158.800 C 239.040 158.989,239.186 159.156,238.926 159.172 C 238.665 159.187,238.935 159.695,239.526 160.300 C 240.116 160.905,240.717 161.239,240.859 161.042 C 241.002 160.845,241.206 161.025,241.313 161.442 C 241.475 162.073,241.515 162.046,241.554 161.282 C 241.613 160.106,239.910 158.392,238.718 158.428 C 237.849 158.455,237.843 158.475,238.600 158.800 M240.408 159.810 C 241.181 160.741,240.629 160.917,239.802 160.002 C 239.403 159.561,239.262 159.200,239.489 159.200 C 239.716 159.200,240.130 159.474,240.408 159.810 M102.046 161.900 C 102.082 162.743,102.139 162.813,102.293 162.200 C 102.403 161.760,102.697 161.268,102.946 161.106 C 103.234 160.920,103.144 160.810,102.700 160.806 C 102.190 160.802,102.013 161.099,102.046 161.900 M240.894 162.559 C 241.275 162.845,241.470 163.196,241.327 163.340 C 241.184 163.483,241.277 163.600,241.533 163.600 C 242.378 163.600,242.020 162.498,241.100 162.267 C 240.286 162.061,240.266 162.089,240.894 162.559 M241.411 170.418 C 241.553 170.647,241.451 171.097,241.185 171.418 C 240.796 171.887,240.828 172.000,241.351 172.000 C 241.777 172.000,242.000 171.656,242.000 171.000 C 242.000 170.450,241.809 170.000,241.576 170.000 C 241.343 170.000,241.269 170.188,241.411 170.418 M240.584 172.827 C 240.439 173.061,240.416 173.349,240.533 173.467 C 240.820 173.753,241.600 173.248,241.600 172.776 C 241.600 172.265,240.909 172.299,240.584 172.827 M239.383 173.227 C 239.238 173.462,238.867 173.558,238.560 173.440 C 238.252 173.322,238.000 173.399,238.000 173.613 C 238.000 173.826,238.450 174.000,239.000 174.000 C 239.622 174.000,240.000 173.773,240.000 173.400 C 240.000 172.696,239.754 172.627,239.383 173.227 M150.674 182.840 C 150.546 183.328,150.266 183.565,150.008 183.405 C 149.760 183.252,148.949 183.778,148.183 184.590 C 147.426 185.394,146.922 185.725,147.065 185.326 C 147.475 184.177,148.054 183.586,149.373 182.968 L 150.600 182.393 149.205 182.605 C 147.491 182.867,146.894 183.431,146.559 185.105 C 146.306 186.370,146.837 186.911,147.415 185.976 C 147.581 185.707,147.893 185.816,148.268 186.276 C 148.593 186.674,148.745 186.775,148.606 186.500 C 148.445 186.183,148.644 186.000,149.149 186.000 C 149.864 186.000,150.522 184.989,150.580 183.800 C 150.591 183.580,150.810 183.400,151.067 183.400 C 151.323 183.400,151.683 183.236,151.867 183.036 C 152.060 182.824,151.990 182.792,151.700 182.959 C 151.425 183.118,151.200 183.069,151.200 182.851 C 151.200 182.634,151.605 182.378,152.100 182.282 C 152.905 182.127,152.889 182.103,151.947 182.054 C 151.187 182.015,150.832 182.234,150.674 182.840 M304.800 182.387 C 304.800 182.601,305.072 182.670,305.405 182.543 C 305.738 182.415,306.278 182.533,306.605 182.804 C 307.090 183.207,307.200 183.178,307.200 182.649 C 307.200 182.195,306.840 182.000,306.000 182.000 C 305.340 182.000,304.800 182.174,304.800 182.387 M307.857 182.995 C 307.725 183.339,307.834 183.550,308.114 183.495 C 308.381 183.443,308.557 183.619,308.505 183.886 C 308.450 184.166,308.661 184.275,309.005 184.143 C 309.725 183.866,309.757 183.517,309.120 182.880 C 308.483 182.243,308.134 182.275,307.857 182.995 M150.206 184.010 C 150.345 184.235,150.221 184.370,149.930 184.310 C 149.625 184.247,149.448 184.488,149.512 184.876 C 149.589 185.340,149.370 185.533,148.812 185.491 C 147.758 185.412,147.783 184.997,148.889 184.223 C 149.943 183.484,149.887 183.493,150.206 184.010 M309.238 185.500 C 309.533 185.885,309.825 186.275,309.887 186.367 C 309.949 186.458,310.000 186.143,310.000 185.667 C 310.000 185.134,309.750 184.800,309.351 184.800 C 308.796 184.800,308.779 184.901,309.238 185.500 M146.093 193.200 C 146.093 193.970,146.175 194.285,146.276 193.900 C 146.376 193.515,146.376 192.885,146.276 192.500 C 146.175 192.115,146.093 192.430,146.093 193.200 M308.795 198.214 C 308.353 199.553,306.631 201.165,306.153 200.687 C 306.031 200.565,306.303 200.266,306.757 200.023 C 307.210 199.780,307.788 199.181,308.041 198.691 C 308.380 198.034,308.121 198.161,307.056 199.173 C 306.262 199.928,305.504 200.437,305.371 200.305 C 305.239 200.172,305.596 199.759,306.165 199.386 C 306.734 199.013,307.200 198.527,307.200 198.305 C 307.200 198.056,306.996 198.072,306.663 198.348 C 306.368 198.593,305.979 198.660,305.799 198.497 C 305.619 198.333,305.589 198.405,305.731 198.655 C 305.874 198.905,305.707 199.345,305.359 199.634 C 304.787 200.109,304.795 200.207,305.440 200.679 C 306.001 201.089,306.026 201.200,305.556 201.200 C 305.228 201.200,304.708 200.975,304.399 200.700 C 303.919 200.272,303.918 200.305,304.394 200.931 C 305.460 202.334,308.878 201.043,309.307 199.076 C 309.411 198.594,309.630 197.885,309.791 197.500 C 309.961 197.096,309.911 196.800,309.674 196.800 C 309.447 196.800,309.052 197.436,308.795 198.214 M150.900 199.065 C 150.214 199.342,150.273 200.216,151.029 200.971 C 151.855 201.798,152.650 201.769,152.981 200.900 C 153.195 200.339,153.148 200.299,152.744 200.700 C 152.467 200.975,152.096 201.200,151.920 201.200 C 151.744 201.200,151.645 200.975,151.700 200.700 C 151.755 200.425,151.575 200.245,151.300 200.300 C 150.666 200.427,150.656 199.904,151.280 199.280 C 151.786 198.774,151.717 198.735,150.900 199.065 M154.800 201.353 C 154.800 201.947,160.916 202.000,228.800 202.000 C 295.556 202.000,302.800 201.939,302.800 201.376 C 302.800 201.033,302.636 200.854,302.435 200.979 C 301.940 201.284,156.837 201.255,155.700 200.949 C 155.038 200.771,154.800 200.878,154.800 201.353 M98.500 206.287 C 99.105 206.378,100.095 206.378,100.700 206.287 C 101.305 206.195,100.810 206.120,99.600 206.120 C 98.390 206.120,97.895 206.195,98.500 206.287 M243.100 206.289 C 243.815 206.378,244.985 206.378,245.700 206.289 C 246.415 206.201,245.830 206.128,244.400 206.128 C 242.970 206.128,242.385 206.201,243.100 206.289 M248.604 206.407 C 248.742 206.630,249.043 206.697,249.272 206.555 C 249.502 206.414,249.847 206.546,250.039 206.849 C 250.315 207.285,250.389 207.254,250.394 206.700 C 250.398 206.214,250.087 206.000,249.376 206.000 C 248.785 206.000,248.459 206.172,248.604 206.407 M90.786 207.017 C 90.424 207.453,90.399 207.759,90.700 208.060 C 91.001 208.361,91.107 208.268,91.063 207.743 C 91.022 207.262,91.246 207.019,91.696 207.055 C 92.078 207.085,92.293 206.950,92.172 206.755 C 91.848 206.230,91.363 206.322,90.786 207.017 M251.434 207.057 C 251.220 207.613,251.278 207.634,251.808 207.194 C 252.268 206.811,252.552 206.792,252.880 207.120 C 253.208 207.448,253.189 207.732,252.806 208.192 C 252.366 208.722,252.387 208.780,252.943 208.566 C 253.717 208.269,253.792 207.552,253.120 206.880 C 252.448 206.208,251.731 206.283,251.434 207.057 M253.102 209.866 C 253.379 209.977,253.503 210.233,253.379 210.434 C 253.255 210.635,253.343 210.800,253.576 210.800 C 253.809 210.800,254.000 210.530,254.000 210.200 C 254.000 209.870,253.685 209.614,253.300 209.632 C 252.878 209.651,252.799 209.744,253.102 209.866 M251.011 222.388 C 250.616 222.824,250.139 223.086,249.951 222.970 C 249.763 222.854,249.722 223.053,249.861 223.414 C 250.077 223.979,250.254 223.928,251.135 223.047 C 251.697 222.484,252.061 221.928,251.943 221.810 C 251.825 221.692,251.405 221.952,251.011 222.388 M252.222 222.655 C 251.924 223.840,250.552 224.624,249.828 224.023 C 249.153 223.463,248.298 224.387,248.775 225.160 C 249.153 225.770,251.607 225.156,252.345 224.266 C 253.176 223.265,253.567 221.733,252.991 221.733 C 252.695 221.733,252.349 222.148,252.222 222.655 M92.400 222.289 C 92.400 222.792,93.543 223.790,93.812 223.521 C 93.918 223.415,93.644 223.002,93.202 222.602 C 92.761 222.203,92.400 222.062,92.400 222.289 M94.000 224.275 C 94.000 225.133,95.188 225.776,95.717 225.204 C 96.100 224.790,96.084 224.749,95.639 225.002 C 95.279 225.208,94.886 225.059,94.539 224.585 C 94.243 224.179,94.000 224.039,94.000 224.275 M96.806 225.300 C 96.800 225.964,100.655 226.000,172.200 226.000 C 213.670 226.000,247.600 225.865,247.600 225.700 C 247.600 225.535,213.816 225.446,172.525 225.502 C 112.645 225.584,97.385 225.503,97.131 225.102 C 96.902 224.742,96.811 224.798,96.806 225.300 M282.000 230.387 C 282.000 230.601,282.288 230.664,282.640 230.529 C 282.993 230.394,283.440 230.535,283.634 230.842 C 283.917 231.289,283.989 231.260,283.994 230.700 C 283.998 230.218,283.688 230.000,283.000 230.000 C 282.450 230.000,282.000 230.174,282.000 230.387 M124.942 230.677 C 123.820 230.896,122.969 231.909,122.653 233.400 L 122.399 234.600 123.140 233.241 C 123.548 232.493,124.493 231.556,125.241 231.158 C 126.599 230.434,126.554 230.361,124.942 230.677 M285.158 232.366 C 285.465 232.560,285.606 233.007,285.471 233.360 C 285.336 233.712,285.399 234.000,285.613 234.000 C 285.826 234.000,286.000 233.550,286.000 233.000 C 286.000 232.312,285.782 232.002,285.300 232.006 C 284.740 232.011,284.711 232.083,285.158 232.366 M287.000 234.826 C 289.990 235.718,290.114 240.293,287.188 241.806 C 286.535 242.144,286.000 242.686,286.000 243.010 C 286.000 243.918,286.478 243.718,287.968 242.184 C 290.638 239.436,289.812 234.319,286.718 234.434 C 285.940 234.464,285.983 234.523,287.000 234.826 M125.500 245.865 C 125.775 245.976,126.000 246.322,126.000 246.633 C 126.000 246.945,126.272 247.200,126.603 247.200 C 127.107 247.200,127.124 247.067,126.707 246.400 C 126.432 245.960,125.936 245.614,125.604 245.632 C 125.193 245.653,125.160 245.728,125.500 245.865 M285.246 246.630 C 285.177 247.867,283.424 249.352,282.362 249.074 C 281.738 248.911,281.609 248.969,281.913 249.273 C 283.024 250.384,285.905 248.160,285.480 246.520 C 285.321 245.910,285.286 245.927,285.246 246.630 M126.812 247.992 C 126.348 248.279,126.342 248.448,126.775 248.970 C 127.424 249.752,127.849 249.770,128.133 249.029 C 128.428 248.261,127.525 247.552,126.812 247.992 M128.800 249.351 C 128.800 249.872,129.239 250.000,131.024 250.000 C 132.300 250.000,133.149 249.841,133.016 249.626 C 132.889 249.421,132.160 249.354,131.396 249.478 C 130.554 249.615,129.769 249.506,129.403 249.203 C 128.908 248.791,128.800 248.818,128.800 249.351 M279.400 249.600 L 278.200 249.905 279.500 249.953 C 280.215 249.979,280.800 249.820,280.800 249.600 C 280.800 249.380,280.755 249.221,280.700 249.247 C 280.645 249.273,280.060 249.432,279.400 249.600 M171.332 249.900 C 190.434 249.957,221.574 249.957,240.532 249.900 C 259.489 249.843,243.860 249.796,205.800 249.796 C 167.740 249.796,152.229 249.843,171.332 249.900 M248.800 254.424 C 248.800 254.657,249.000 254.724,249.245 254.572 C 249.489 254.421,249.847 254.546,250.039 254.849 C 250.315 255.285,250.389 255.254,250.394 254.700 C 250.398 254.265,250.098 254.000,249.600 254.000 C 249.160 254.000,248.800 254.191,248.800 254.424 M147.382 255.382 C 146.842 255.922,146.425 256.777,146.454 257.282 C 146.506 258.151,146.518 258.155,146.676 257.350 C 146.875 256.335,148.285 254.956,149.400 254.686 C 150.111 254.514,150.098 254.488,149.282 254.446 C 148.777 254.421,147.922 254.842,147.382 255.382 M251.434 255.057 C 251.220 255.613,251.278 255.634,251.808 255.194 C 252.268 254.811,252.552 254.792,252.880 255.120 C 253.208 255.448,253.189 255.732,252.806 256.192 C 252.366 256.722,252.387 256.780,252.943 256.566 C 253.717 256.269,253.792 255.552,253.120 254.880 C 252.448 254.208,251.731 254.283,251.434 255.057 M253.102 257.866 C 253.379 257.977,253.503 258.233,253.379 258.434 C 253.255 258.635,253.343 258.800,253.576 258.800 C 253.809 258.800,254.000 258.530,254.000 258.200 C 254.000 257.870,253.685 257.614,253.300 257.632 C 252.878 257.651,252.799 257.744,253.102 257.866 M146.700 258.276 C 145.925 258.478,145.727 259.600,146.467 259.600 C 146.723 259.600,146.816 259.483,146.673 259.340 C 146.530 259.196,146.725 258.842,147.106 258.552 C 147.837 257.998,147.817 257.984,146.700 258.276 M146.101 265.000 C 146.105 265.880,146.187 266.193,146.283 265.695 C 146.379 265.198,146.375 264.478,146.275 264.095 C 146.175 263.713,146.096 264.120,146.101 265.000 M253.002 269.198 C 252.603 269.639,252.407 270.000,252.567 270.000 C 252.988 270.000,254.128 268.795,253.912 268.579 C 253.811 268.478,253.402 268.756,253.002 269.198 " stroke="none" fill="#504c4c" fill-rule="evenodd"></path><path id="path2" d="M150.792 135.010 C 150.514 135.345,150.402 135.735,150.543 135.876 C 150.684 136.018,150.800 135.901,150.800 135.618 C 150.800 135.210,150.946 135.216,151.500 135.651 C 152.125 136.142,152.145 136.130,151.683 135.539 C 151.261 134.999,151.261 134.840,151.683 134.670 C 151.990 134.547,152.017 134.450,151.749 134.432 C 151.501 134.414,151.070 134.674,150.792 135.010 M227.434 135.057 C 227.220 135.613,227.278 135.634,227.808 135.194 C 228.699 134.454,229.546 135.301,228.806 136.192 C 228.366 136.722,228.387 136.780,228.943 136.566 C 229.717 136.269,229.792 135.552,229.120 134.880 C 228.448 134.208,227.731 134.283,227.434 135.057 M150.000 138.200 C 150.000 138.750,150.135 139.200,150.300 139.200 C 150.465 139.200,150.600 138.750,150.600 138.200 C 150.600 137.650,150.465 137.200,150.300 137.200 C 150.135 137.200,150.000 137.650,150.000 138.200 M229.400 138.600 C 229.400 139.150,229.535 139.600,229.700 139.600 C 229.865 139.600,230.000 139.150,230.000 138.600 C 230.000 138.050,229.865 137.600,229.700 137.600 C 229.535 137.600,229.400 138.050,229.400 138.600 M150.641 145.533 C 150.222 146.212,151.824 148.569,153.033 149.054 C 154.051 149.461,154.267 149.452,154.267 149.001 C 154.267 148.700,153.835 148.345,153.307 148.212 C 152.708 148.062,152.130 147.451,151.768 146.586 C 151.165 145.143,150.986 144.975,150.641 145.533 M228.238 146.570 C 227.871 147.449,227.295 148.061,226.693 148.212 C 226.165 148.345,225.733 148.695,225.733 148.991 C 225.733 150.314,228.550 148.493,229.145 146.786 C 229.740 145.080,228.941 144.889,228.238 146.570 M152.244 145.928 C 152.123 146.124,152.469 146.701,153.012 147.212 C 154.186 148.315,154.315 147.927,153.232 146.550 C 152.809 146.013,152.365 145.733,152.244 145.928 M226.470 146.852 C 225.958 147.483,225.701 148.000,225.900 148.000 C 226.458 148.000,228.102 146.109,227.730 145.894 C 227.549 145.790,226.981 146.221,226.470 146.852 M177.100 149.900 C 184.195 149.961,195.805 149.961,202.900 149.900 C 209.995 149.839,204.190 149.789,190.000 149.789 C 175.810 149.789,170.005 149.839,177.100 149.900 M104.806 158.700 C 104.810 159.132,104.925 159.231,105.106 158.960 C 105.268 158.718,105.670 158.417,106.000 158.292 C 106.401 158.139,106.301 158.053,105.700 158.032 C 105.095 158.010,104.802 158.230,104.806 158.700 M110.905 158.287 C 111.514 158.379,112.414 158.377,112.905 158.282 C 113.397 158.187,112.900 158.111,111.800 158.114 C 110.700 158.117,110.297 158.195,110.905 158.287 M102.538 159.017 C 102.408 159.357,102.409 159.742,102.541 159.874 C 102.826 160.159,104.000 159.255,104.000 158.751 C 104.000 158.147,102.787 158.368,102.538 159.017 M238.600 158.800 C 239.040 158.989,239.186 159.156,238.926 159.172 C 238.665 159.187,238.935 159.695,239.526 160.300 C 240.116 160.905,240.717 161.239,240.859 161.042 C 241.002 160.845,241.206 161.025,241.313 161.442 C 241.475 162.073,241.515 162.046,241.554 161.282 C 241.613 160.106,239.910 158.392,238.718 158.428 C 237.849 158.455,237.843 158.475,238.600 158.800 M240.408 159.810 C 241.181 160.741,240.629 160.917,239.802 160.002 C 239.403 159.561,239.262 159.200,239.489 159.200 C 239.716 159.200,240.130 159.474,240.408 159.810 M102.046 161.900 C 102.082 162.743,102.139 162.813,102.293 162.200 C 102.403 161.760,102.697 161.268,102.946 161.106 C 103.234 160.920,103.144 160.810,102.700 160.806 C 102.190 160.802,102.013 161.099,102.046 161.900 M240.894 162.559 C 241.275 162.845,241.470 163.196,241.327 163.340 C 241.184 163.483,241.277 163.600,241.533 163.600 C 242.378 163.600,242.020 162.498,241.100 162.267 C 240.286 162.061,240.266 162.089,240.894 162.559 M241.411 170.418 C 241.553 170.647,241.451 171.097,241.185 171.418 C 240.796 171.887,240.828 172.000,241.351 172.000 C 241.777 172.000,242.000 171.656,242.000 171.000 C 242.000 170.450,241.809 170.000,241.576 170.000 C 241.343 170.000,241.269 170.188,241.411 170.418 M240.584 172.827 C 240.439 173.061,240.416 173.349,240.533 173.467 C 240.820 173.753,241.600 173.248,241.600 172.776 C 241.600 172.265,240.909 172.299,240.584 172.827 M239.383 173.227 C 239.238 173.462,238.867 173.558,238.560 173.440 C 238.252 173.322,238.000 173.399,238.000 173.613 C 238.000 173.826,238.450 174.000,239.000 174.000 C 239.622 174.000,240.000 173.773,240.000 173.400 C 240.000 172.696,239.754 172.627,239.383 173.227 M150.674 182.840 C 150.546 183.328,150.266 183.565,150.008 183.405 C 149.760 183.252,148.949 183.778,148.183 184.590 C 147.426 185.394,146.922 185.725,147.065 185.326 C 147.475 184.177,148.054 183.586,149.373 182.968 L 150.600 182.393 149.205 182.605 C 147.491 182.867,146.894 183.431,146.559 185.105 C 146.306 186.370,146.837 186.911,147.415 185.976 C 147.581 185.707,147.893 185.816,148.268 186.276 C 148.593 186.674,148.745 186.775,148.606 186.500 C 148.445 186.183,148.644 186.000,149.149 186.000 C 149.864 186.000,150.522 184.989,150.580 183.800 C 150.591 183.580,150.810 183.400,151.067 183.400 C 151.323 183.400,151.683 183.236,151.867 183.036 C 152.060 182.824,151.990 182.792,151.700 182.959 C 151.425 183.118,151.200 183.069,151.200 182.851 C 151.200 182.634,151.605 182.378,152.100 182.282 C 152.905 182.127,152.889 182.103,151.947 182.054 C 151.187 182.015,150.832 182.234,150.674 182.840 M304.800 182.387 C 304.800 182.601,305.072 182.670,305.405 182.543 C 305.738 182.415,306.278 182.533,306.605 182.804 C 307.090 183.207,307.200 183.178,307.200 182.649 C 307.200 182.195,306.840 182.000,306.000 182.000 C 305.340 182.000,304.800 182.174,304.800 182.387 M307.857 182.995 C 307.725 183.339,307.834 183.550,308.114 183.495 C 308.381 183.443,308.557 183.619,308.505 183.886 C 308.450 184.166,308.661 184.275,309.005 184.143 C 309.725 183.866,309.757 183.517,309.120 182.880 C 308.483 182.243,308.134 182.275,307.857 182.995 M150.206 184.010 C 150.345 184.235,150.221 184.370,149.930 184.310 C 149.625 184.247,149.448 184.488,149.512 184.876 C 149.589 185.340,149.370 185.533,148.812 185.491 C 147.758 185.412,147.783 184.997,148.889 184.223 C 149.943 183.484,149.887 183.493,150.206 184.010 M309.238 185.500 C 309.533 185.885,309.825 186.275,309.887 186.367 C 309.949 186.458,310.000 186.143,310.000 185.667 C 310.000 185.134,309.750 184.800,309.351 184.800 C 308.796 184.800,308.779 184.901,309.238 185.500 M146.093 193.200 C 146.093 193.970,146.175 194.285,146.276 193.900 C 146.376 193.515,146.376 192.885,146.276 192.500 C 146.175 192.115,146.093 192.430,146.093 193.200 M308.795 198.214 C 308.353 199.553,306.631 201.165,306.153 200.687 C 306.031 200.565,306.303 200.266,306.757 200.023 C 307.210 199.780,307.788 199.181,308.041 198.691 C 308.380 198.034,308.121 198.161,307.056 199.173 C 306.262 199.928,305.504 200.437,305.371 200.305 C 305.239 200.172,305.596 199.759,306.165 199.386 C 306.734 199.013,307.200 198.527,307.200 198.305 C 307.200 198.056,306.996 198.072,306.663 198.348 C 306.368 198.593,305.979 198.660,305.799 198.497 C 305.619 198.333,305.589 198.405,305.731 198.655 C 305.874 198.905,305.707 199.345,305.359 199.634 C 304.787 200.109,304.795 200.207,305.440 200.679 C 306.001 201.089,306.026 201.200,305.556 201.200 C 305.228 201.200,304.708 200.975,304.399 200.700 C 303.919 200.272,303.918 200.305,304.394 200.931 C 305.460 202.334,308.878 201.043,309.307 199.076 C 309.411 198.594,309.630 197.885,309.791 197.500 C 309.961 197.096,309.911 196.800,309.674 196.800 C 309.447 196.800,309.052 197.436,308.795 198.214 M150.900 199.065 C 150.214 199.342,150.273 200.216,151.029 200.971 C 151.855 201.798,152.650 201.769,152.981 200.900 C 153.195 200.339,153.148 200.299,152.744 200.700 C 152.467 200.975,152.096 201.200,151.920 201.200 C 151.744 201.200,151.645 200.975,151.700 200.700 C 151.755 200.425,151.575 200.245,151.300 200.300 C 150.666 200.427,150.656 199.904,151.280 199.280 C 151.786 198.774,151.717 198.735,150.900 199.065 M154.800 201.353 C 154.800 201.947,160.916 202.000,228.800 202.000 C 295.556 202.000,302.800 201.939,302.800 201.376 C 302.800 201.033,302.636 200.854,302.435 200.979 C 301.940 201.284,156.837 201.255,155.700 200.949 C 155.038 200.771,154.800 200.878,154.800 201.353 M98.500 206.287 C 99.105 206.378,100.095 206.378,100.700 206.287 C 101.305 206.195,100.810 206.120,99.600 206.120 C 98.390 206.120,97.895 206.195,98.500 206.287 M243.100 206.289 C 243.815 206.378,244.985 206.378,245.700 206.289 C 246.415 206.201,245.830 206.128,244.400 206.128 C 242.970 206.128,242.385 206.201,243.100 206.289 M248.604 206.407 C 248.742 206.630,249.043 206.697,249.272 206.555 C 249.502 206.414,249.847 206.546,250.039 206.849 C 250.315 207.285,250.389 207.254,250.394 206.700 C 250.398 206.214,250.087 206.000,249.376 206.000 C 248.785 206.000,248.459 206.172,248.604 206.407 M90.786 207.017 C 90.424 207.453,90.399 207.759,90.700 208.060 C 91.001 208.361,91.107 208.268,91.063 207.743 C 91.022 207.262,91.246 207.019,91.696 207.055 C 92.078 207.085,92.293 206.950,92.172 206.755 C 91.848 206.230,91.363 206.322,90.786 207.017 M251.434 207.057 C 251.220 207.613,251.278 207.634,251.808 207.194 C 252.268 206.811,252.552 206.792,252.880 207.120 C 253.208 207.448,253.189 207.732,252.806 208.192 C 252.366 208.722,252.387 208.780,252.943 208.566 C 253.717 208.269,253.792 207.552,253.120 206.880 C 252.448 206.208,251.731 206.283,251.434 207.057 M253.102 209.866 C 253.379 209.977,253.503 210.233,253.379 210.434 C 253.255 210.635,253.343 210.800,253.576 210.800 C 253.809 210.800,254.000 210.530,254.000 210.200 C 254.000 209.870,253.685 209.614,253.300 209.632 C 252.878 209.651,252.799 209.744,253.102 209.866 M251.011 222.388 C 250.616 222.824,250.139 223.086,249.951 222.970 C 249.763 222.854,249.722 223.053,249.861 223.414 C 250.077 223.979,250.254 223.928,251.135 223.047 C 251.697 222.484,252.061 221.928,251.943 221.810 C 251.825 221.692,251.405 221.952,251.011 222.388 M252.222 222.655 C 251.924 223.840,250.552 224.624,249.828 224.023 C 249.153 223.463,248.298 224.387,248.775 225.160 C 249.153 225.770,251.607 225.156,252.345 224.266 C 253.176 223.265,253.567 221.733,252.991 221.733 C 252.695 221.733,252.349 222.148,252.222 222.655 M92.400 222.289 C 92.400 222.792,93.543 223.790,93.812 223.521 C 93.918 223.415,93.644 223.002,93.202 222.602 C 92.761 222.203,92.400 222.062,92.400 222.289 M94.000 224.275 C 94.000 225.133,95.188 225.776,95.717 225.204 C 96.100 224.790,96.084 224.749,95.639 225.002 C 95.279 225.208,94.886 225.059,94.539 224.585 C 94.243 224.179,94.000 224.039,94.000 224.275 M96.806 225.300 C 96.800 225.964,100.655 226.000,172.200 226.000 C 213.670 226.000,247.600 225.865,247.600 225.700 C 247.600 225.535,213.816 225.446,172.525 225.502 C 112.645 225.584,97.385 225.503,97.131 225.102 C 96.902 224.742,96.811 224.798,96.806 225.300 M282.000 230.387 C 282.000 230.601,282.288 230.664,282.640 230.529 C 282.993 230.394,283.440 230.535,283.634 230.842 C 283.917 231.289,283.989 231.260,283.994 230.700 C 283.998 230.218,283.688 230.000,283.000 230.000 C 282.450 230.000,282.000 230.174,282.000 230.387 M124.942 230.677 C 123.820 230.896,122.969 231.909,122.653 233.400 L 122.399 234.600 123.140 233.241 C 123.548 232.493,124.493 231.556,125.241 231.158 C 126.599 230.434,126.554 230.361,124.942 230.677 M285.158 232.366 C 285.465 232.560,285.606 233.007,285.471 233.360 C 285.336 233.712,285.399 234.000,285.613 234.000 C 285.826 234.000,286.000 233.550,286.000 233.000 C 286.000 232.312,285.782 232.002,285.300 232.006 C 284.740 232.011,284.711 232.083,285.158 232.366 M287.000 234.826 C 289.990 235.718,290.114 240.293,287.188 241.806 C 286.535 242.144,286.000 242.686,286.000 243.010 C 286.000 243.918,286.478 243.718,287.968 242.184 C 290.638 239.436,289.812 234.319,286.718 234.434 C 285.940 234.464,285.983 234.523,287.000 234.826 M125.500 245.865 C 125.775 245.976,126.000 246.322,126.000 246.633 C 126.000 246.945,126.272 247.200,126.603 247.200 C 127.107 247.200,127.124 247.067,126.707 246.400 C 126.432 245.960,125.936 245.614,125.604 245.632 C 125.193 245.653,125.160 245.728,125.500 245.865 M285.246 246.630 C 285.177 247.867,283.424 249.352,282.362 249.074 C 281.738 248.911,281.609 248.969,281.913 249.273 C 283.024 250.384,285.905 248.160,285.480 246.520 C 285.321 245.910,285.286 245.927,285.246 246.630 M126.812 247.992 C 126.348 248.279,126.342 248.448,126.775 248.970 C 127.424 249.752,127.849 249.770,128.133 249.029 C 128.428 248.261,127.525 247.552,126.812 247.992 M128.800 249.351 C 128.800 249.872,129.239 250.000,131.024 250.000 C 132.300 250.000,133.149 249.841,133.016 249.626 C 132.889 249.421,132.160 249.354,131.396 249.478 C 130.554 249.615,129.769 249.506,129.403 249.203 C 128.908 248.791,128.800 248.818,128.800 249.351 M279.400 249.600 L 278.200 249.905 279.500 249.953 C 280.215 249.979,280.800 249.820,280.800 249.600 C 280.800 249.380,280.755 249.221,280.700 249.247 C 280.645 249.273,280.060 249.432,279.400 249.600 M171.332 249.900 C 190.434 249.957,221.574 249.957,240.532 249.900 C 259.489 249.843,243.860 249.796,205.800 249.796 C 167.740 249.796,152.229 249.843,171.332 249.900 M248.800 254.424 C 248.800 254.657,249.000 254.724,249.245 254.572 C 249.489 254.421,249.847 254.546,250.039 254.849 C 250.315 255.285,250.389 255.254,250.394 254.700 C 250.398 254.265,250.098 254.000,249.600 254.000 C 249.160 254.000,248.800 254.191,248.800 254.424 M147.382 255.382 C 146.842 255.922,146.425 256.777,146.454 257.282 C 146.506 258.151,146.518 258.155,146.676 257.350 C 146.875 256.335,148.285 254.956,149.400 254.686 C 150.111 254.514,150.098 254.488,149.282 254.446 C 148.777 254.421,147.922 254.842,147.382 255.382 M251.434 255.057 C 251.220 255.613,251.278 255.634,251.808 255.194 C 252.268 254.811,252.552 254.792,252.880 255.120 C 253.208 255.448,253.189 255.732,252.806 256.192 C 252.366 256.722,252.387 256.780,252.943 256.566 C 253.717 256.269,253.792 255.552,253.120 254.880 C 252.448 254.208,251.731 254.283,251.434 255.057 M253.102 257.866 C 253.379 257.977,253.503 258.233,253.379 258.434 C 253.255 258.635,253.343 258.800,253.576 258.800 C 253.809 258.800,254.000 258.530,254.000 258.200 C 254.000 257.870,253.685 257.614,253.300 257.632 C 252.878 257.651,252.799 257.744,253.102 257.866 M146.700 258.276 C 145.925 258.478,145.727 259.600,146.467 259.600 C 146.723 259.600,146.816 259.483,146.673 259.340 C 146.530 259.196,146.725 258.842,147.106 258.552 C 147.837 257.998,147.817 257.984,146.700 258.276 M146.101 265.000 C 146.105 265.880,146.187 266.193,146.283 265.695 C 146.379 265.198,146.375 264.478,146.275 264.095 C 146.175 263.713,146.096 264.120,146.101 265.000 M253.002 269.198 C 252.603 269.639,252.407 270.000,252.567 270.000 C 252.988 270.000,254.128 268.795,253.912 268.579 C 253.811 268.478,253.402 268.756,253.002 269.198 " stroke="none" fill="#504c4c" fill-rule="evenodd"></path><path id="path3" d="M150.792 135.010 C 150.514 135.345,150.402 135.735,150.543 135.876 C 150.684 136.018,150.800 135.901,150.800 135.618 C 150.800 135.210,150.946 135.216,151.500 135.651 C 152.125 136.142,152.145 136.130,151.683 135.539 C 151.261 134.999,151.261 134.840,151.683 134.670 C 151.990 134.547,152.017 134.450,151.749 134.432 C 151.501 134.414,151.070 134.674,150.792 135.010 M227.434 135.057 C 227.220 135.613,227.278 135.634,227.808 135.194 C 228.699 134.454,229.546 135.301,228.806 136.192 C 228.366 136.722,228.387 136.780,228.943 136.566 C 229.717 136.269,229.792 135.552,229.120 134.880 C 228.448 134.208,227.731 134.283,227.434 135.057 M150.000 138.200 C 150.000 138.750,150.135 139.200,150.300 139.200 C 150.465 139.200,150.600 138.750,150.600 138.200 C 150.600 137.650,150.465 137.200,150.300 137.200 C 150.135 137.200,150.000 137.650,150.000 138.200 M229.400 138.600 C 229.400 139.150,229.535 139.600,229.700 139.600 C 229.865 139.600,230.000 139.150,230.000 138.600 C 230.000 138.050,229.865 137.600,229.700 137.600 C 229.535 137.600,229.400 138.050,229.400 138.600 M150.641 145.533 C 150.222 146.212,151.824 148.569,153.033 149.054 C 154.051 149.461,154.267 149.452,154.267 149.001 C 154.267 148.700,153.835 148.345,153.307 148.212 C 152.708 148.062,152.130 147.451,151.768 146.586 C 151.165 145.143,150.986 144.975,150.641 145.533 M228.238 146.570 C 227.871 147.449,227.295 148.061,226.693 148.212 C 226.165 148.345,225.733 148.695,225.733 148.991 C 225.733 150.314,228.550 148.493,229.145 146.786 C 229.740 145.080,228.941 144.889,228.238 146.570 M152.244 145.928 C 152.123 146.124,152.469 146.701,153.012 147.212 C 154.186 148.315,154.315 147.927,153.232 146.550 C 152.809 146.013,152.365 145.733,152.244 145.928 M226.470 146.852 C 225.958 147.483,225.701 148.000,225.900 148.000 C 226.458 148.000,228.102 146.109,227.730 145.894 C 227.549 145.790,226.981 146.221,226.470 146.852 M177.100 149.900 C 184.195 149.961,195.805 149.961,202.900 149.900 C 209.995 149.839,204.190 149.789,190.000 149.789 C 175.810 149.789,170.005 149.839,177.100 149.900 M104.806 158.700 C 104.810 159.132,104.925 159.231,105.106 158.960 C 105.268 158.718,105.670 158.417,106.000 158.292 C 106.401 158.139,106.301 158.053,105.700 158.032 C 105.095 158.010,104.802 158.230,104.806 158.700 M110.905 158.287 C 111.514 158.379,112.414 158.377,112.905 158.282 C 113.397 158.187,112.900 158.111,111.800 158.114 C 110.700 158.117,110.297 158.195,110.905 158.287 M102.538 159.017 C 102.408 159.357,102.409 159.742,102.541 159.874 C 102.826 160.159,104.000 159.255,104.000 158.751 C 104.000 158.147,102.787 158.368,102.538 159.017 M238.600 158.800 C 239.040 158.989,239.186 159.156,238.926 159.172 C 238.665 159.187,238.935 159.695,239.526 160.300 C 240.116 160.905,240.717 161.239,240.859 161.042 C 241.002 160.845,241.206 161.025,241.313 161.442 C 241.475 162.073,241.515 162.046,241.554 161.282 C 241.613 160.106,239.910 158.392,238.718 158.428 C 237.849 158.455,237.843 158.475,238.600 158.800 M240.408 159.810 C 241.181 160.741,240.629 160.917,239.802 160.002 C 239.403 159.561,239.262 159.200,239.489 159.200 C 239.716 159.200,240.130 159.474,240.408 159.810 M102.046 161.900 C 102.082 162.743,102.139 162.813,102.293 162.200 C 102.403 161.760,102.697 161.268,102.946 161.106 C 103.234 160.920,103.144 160.810,102.700 160.806 C 102.190 160.802,102.013 161.099,102.046 161.900 M240.894 162.559 C 241.275 162.845,241.470 163.196,241.327 163.340 C 241.184 163.483,241.277 163.600,241.533 163.600 C 242.378 163.600,242.020 162.498,241.100 162.267 C 240.286 162.061,240.266 162.089,240.894 162.559 M241.411 170.418 C 241.553 170.647,241.451 171.097,241.185 171.418 C 240.796 171.887,240.828 172.000,241.351 172.000 C 241.777 172.000,242.000 171.656,242.000 171.000 C 242.000 170.450,241.809 170.000,241.576 170.000 C 241.343 170.000,241.269 170.188,241.411 170.418 M240.584 172.827 C 240.439 173.061,240.416 173.349,240.533 173.467 C 240.820 173.753,241.600 173.248,241.600 172.776 C 241.600 172.265,240.909 172.299,240.584 172.827 M239.383 173.227 C 239.238 173.462,238.867 173.558,238.560 173.440 C 238.252 173.322,238.000 173.399,238.000 173.613 C 238.000 173.826,238.450 174.000,239.000 174.000 C 239.622 174.000,240.000 173.773,240.000 173.400 C 240.000 172.696,239.754 172.627,239.383 173.227 M150.674 182.840 C 150.546 183.328,150.266 183.565,150.008 183.405 C 149.760 183.252,148.949 183.778,148.183 184.590 C 147.426 185.394,146.922 185.725,147.065 185.326 C 147.475 184.177,148.054 183.586,149.373 182.968 L 150.600 182.393 149.205 182.605 C 147.491 182.867,146.894 183.431,146.559 185.105 C 146.306 186.370,146.837 186.911,147.415 185.976 C 147.581 185.707,147.893 185.816,148.268 186.276 C 148.593 186.674,148.745 186.775,148.606 186.500 C 148.445 186.183,148.644 186.000,149.149 186.000 C 149.864 186.000,150.522 184.989,150.580 183.800 C 150.591 183.580,150.810 183.400,151.067 183.400 C 151.323 183.400,151.683 183.236,151.867 183.036 C 152.060 182.824,151.990 182.792,151.700 182.959 C 151.425 183.118,151.200 183.069,151.200 182.851 C 151.200 182.634,151.605 182.378,152.100 182.282 C 152.905 182.127,152.889 182.103,151.947 182.054 C 151.187 182.015,150.832 182.234,150.674 182.840 M304.800 182.387 C 304.800 182.601,305.072 182.670,305.405 182.543 C 305.738 182.415,306.278 182.533,306.605 182.804 C 307.090 183.207,307.200 183.178,307.200 182.649 C 307.200 182.195,306.840 182.000,306.000 182.000 C 305.340 182.000,304.800 182.174,304.800 182.387 M307.857 182.995 C 307.725 183.339,307.834 183.550,308.114 183.495 C 308.381 183.443,308.557 183.619,308.505 183.886 C 308.450 184.166,308.661 184.275,309.005 184.143 C 309.725 183.866,309.757 183.517,309.120 182.880 C 308.483 182.243,308.134 182.275,307.857 182.995 M150.206 184.010 C 150.345 184.235,150.221 184.370,149.930 184.310 C 149.625 184.247,149.448 184.488,149.512 184.876 C 149.589 185.340,149.370 185.533,148.812 185.491 C 147.758 185.412,147.783 184.997,148.889 184.223 C 149.943 183.484,149.887 183.493,150.206 184.010 M309.238 185.500 C 309.533 185.885,309.825 186.275,309.887 186.367 C 309.949 186.458,310.000 186.143,310.000 185.667 C 310.000 185.134,309.750 184.800,309.351 184.800 C 308.796 184.800,308.779 184.901,309.238 185.500 M146.093 193.200 C 146.093 193.970,146.175 194.285,146.276 193.900 C 146.376 193.515,146.376 192.885,146.276 192.500 C 146.175 192.115,146.093 192.430,146.093 193.200 M308.795 198.214 C 308.353 199.553,306.631 201.165,306.153 200.687 C 306.031 200.565,306.303 200.266,306.757 200.023 C 307.210 199.780,307.788 199.181,308.041 198.691 C 308.380 198.034,308.121 198.161,307.056 199.173 C 306.262 199.928,305.504 200.437,305.371 200.305 C 305.239 200.172,305.596 199.759,306.165 199.386 C 306.734 199.013,307.200 198.527,307.200 198.305 C 307.200 198.056,306.996 198.072,306.663 198.348 C 306.368 198.593,305.979 198.660,305.799 198.497 C 305.619 198.333,305.589 198.405,305.731 198.655 C 305.874 198.905,305.707 199.345,305.359 199.634 C 304.787 200.109,304.795 200.207,305.440 200.679 C 306.001 201.089,306.026 201.200,305.556 201.200 C 305.228 201.200,304.708 200.975,304.399 200.700 C 303.919 200.272,303.918 200.305,304.394 200.931 C 305.460 202.334,308.878 201.043,309.307 199.076 C 309.411 198.594,309.630 197.885,309.791 197.500 C 309.961 197.096,309.911 196.800,309.674 196.800 C 309.447 196.800,309.052 197.436,308.795 198.214 M150.900 199.065 C 150.214 199.342,150.273 200.216,151.029 200.971 C 151.855 201.798,152.650 201.769,152.981 200.900 C 153.195 200.339,153.148 200.299,152.744 200.700 C 152.467 200.975,152.096 201.200,151.920 201.200 C 151.744 201.200,151.645 200.975,151.700 200.700 C 151.755 200.425,151.575 200.245,151.300 200.300 C 150.666 200.427,150.656 199.904,151.280 199.280 C 151.786 198.774,151.717 198.735,150.900 199.065 M154.800 201.353 C 154.800 201.947,160.916 202.000,228.800 202.000 C 295.556 202.000,302.800 201.939,302.800 201.376 C 302.800 201.033,302.636 200.854,302.435 200.979 C 301.940 201.284,156.837 201.255,155.700 200.949 C 155.038 200.771,154.800 200.878,154.800 201.353 M98.500 206.287 C 99.105 206.378,100.095 206.378,100.700 206.287 C 101.305 206.195,100.810 206.120,99.600 206.120 C 98.390 206.120,97.895 206.195,98.500 206.287 M243.100 206.289 C 243.815 206.378,244.985 206.378,245.700 206.289 C 246.415 206.201,245.830 206.128,244.400 206.128 C 242.970 206.128,242.385 206.201,243.100 206.289 M248.604 206.407 C 248.742 206.630,249.043 206.697,249.272 206.555 C 249.502 206.414,249.847 206.546,250.039 206.849 C 250.315 207.285,250.389 207.254,250.394 206.700 C 250.398 206.214,250.087 206.000,249.376 206.000 C 248.785 206.000,248.459 206.172,248.604 206.407 M90.786 207.017 C 90.424 207.453,90.399 207.759,90.700 208.060 C 91.001 208.361,91.107 208.268,91.063 207.743 C 91.022 207.262,91.246 207.019,91.696 207.055 C 92.078 207.085,92.293 206.950,92.172 206.755 C 91.848 206.230,91.363 206.322,90.786 207.017 M251.434 207.057 C 251.220 207.613,251.278 207.634,251.808 207.194 C 252.268 206.811,252.552 206.792,252.880 207.120 C 253.208 207.448,253.189 207.732,252.806 208.192 C 252.366 208.722,252.387 208.780,252.943 208.566 C 253.717 208.269,253.792 207.552,253.120 206.880 C 252.448 206.208,251.731 206.283,251.434 207.057 M253.102 209.866 C 253.379 209.977,253.503 210.233,253.379 210.434 C 253.255 210.635,253.343 210.800,253.576 210.800 C 253.809 210.800,254.000 210.530,254.000 210.200 C 254.000 209.870,253.685 209.614,253.300 209.632 C 252.878 209.651,252.799 209.744,253.102 209.866 M251.011 222.388 C 250.616 222.824,250.139 223.086,249.951 222.970 C 249.763 222.854,249.722 223.053,249.861 223.414 C 250.077 223.979,250.254 223.928,251.135 223.047 C 251.697 222.484,252.061 221.928,251.943 221.810 C 251.825 221.692,251.405 221.952,251.011 222.388 M252.222 222.655 C 251.924 223.840,250.552 224.624,249.828 224.023 C 249.153 223.463,248.298 224.387,248.775 225.160 C 249.153 225.770,251.607 225.156,252.345 224.266 C 253.176 223.265,253.567 221.733,252.991 221.733 C 252.695 221.733,252.349 222.148,252.222 222.655 M92.400 222.289 C 92.400 222.792,93.543 223.790,93.812 223.521 C 93.918 223.415,93.644 223.002,93.202 222.602 C 92.761 222.203,92.400 222.062,92.400 222.289 M94.000 224.275 C 94.000 225.133,95.188 225.776,95.717 225.204 C 96.100 224.790,96.084 224.749,95.639 225.002 C 95.279 225.208,94.886 225.059,94.539 224.585 C 94.243 224.179,94.000 224.039,94.000 224.275 M96.806 225.300 C 96.800 225.964,100.655 226.000,172.200 226.000 C 213.670 226.000,247.600 225.865,247.600 225.700 C 247.600 225.535,213.816 225.446,172.525 225.502 C 112.645 225.584,97.385 225.503,97.131 225.102 C 96.902 224.742,96.811 224.798,96.806 225.300 M282.000 230.387 C 282.000 230.601,282.288 230.664,282.640 230.529 C 282.993 230.394,283.440 230.535,283.634 230.842 C 283.917 231.289,283.989 231.260,283.994 230.700 C 283.998 230.218,283.688 230.000,283.000 230.000 C 282.450 230.000,282.000 230.174,282.000 230.387 M124.942 230.677 C 123.820 230.896,122.969 231.909,122.653 233.400 L 122.399 234.600 123.140 233.241 C 123.548 232.493,124.493 231.556,125.241 231.158 C 126.599 230.434,126.554 230.361,124.942 230.677 M285.158 232.366 C 285.465 232.560,285.606 233.007,285.471 233.360 C 285.336 233.712,285.399 234.000,285.613 234.000 C 285.826 234.000,286.000 233.550,286.000 233.000 C 286.000 232.312,285.782 232.002,285.300 232.006 C 284.740 232.011,284.711 232.083,285.158 232.366 M287.000 234.826 C 289.990 235.718,290.114 240.293,287.188 241.806 C 286.535 242.144,286.000 242.686,286.000 243.010 C 286.000 243.918,286.478 243.718,287.968 242.184 C 290.638 239.436,289.812 234.319,286.718 234.434 C 285.940 234.464,285.983 234.523,287.000 234.826 M125.500 245.865 C 125.775 245.976,126.000 246.322,126.000 246.633 C 126.000 246.945,126.272 247.200,126.603 247.200 C 127.107 247.200,127.124 247.067,126.707 246.400 C 126.432 245.960,125.936 245.614,125.604 245.632 C 125.193 245.653,125.160 245.728,125.500 245.865 M285.246 246.630 C 285.177 247.867,283.424 249.352,282.362 249.074 C 281.738 248.911,281.609 248.969,281.913 249.273 C 283.024 250.384,285.905 248.160,285.480 246.520 C 285.321 245.910,285.286 245.927,285.246 246.630 M126.812 247.992 C 126.348 248.279,126.342 248.448,126.775 248.970 C 127.424 249.752,127.849 249.770,128.133 249.029 C 128.428 248.261,127.525 247.552,126.812 247.992 M128.800 249.351 C 128.800 249.872,129.239 250.000,131.024 250.000 C 132.300 250.000,133.149 249.841,133.016 249.626 C 132.889 249.421,132.160 249.354,131.396 249.478 C 130.554 249.615,129.769 249.506,129.403 249.203 C 128.908 248.791,128.800 248.818,128.800 249.351 M279.400 249.600 L 278.200 249.905 279.500 249.953 C 280.215 249.979,280.800 249.820,280.800 249.600 C 280.800 249.380,280.755 249.221,280.700 249.247 C 280.645 249.273,280.060 249.432,279.400 249.600 M171.332 249.900 C 190.434 249.957,221.574 249.957,240.532 249.900 C 259.489 249.843,243.860 249.796,205.800 249.796 C 167.740 249.796,152.229 249.843,171.332 249.900 M248.800 254.424 C 248.800 254.657,249.000 254.724,249.245 254.572 C 249.489 254.421,249.847 254.546,250.039 254.849 C 250.315 255.285,250.389 255.254,250.394 254.700 C 250.398 254.265,250.098 254.000,249.600 254.000 C 249.160 254.000,248.800 254.191,248.800 254.424 M147.382 255.382 C 146.842 255.922,146.425 256.777,146.454 257.282 C 146.506 258.151,146.518 258.155,146.676 257.350 C 146.875 256.335,148.285 254.956,149.400 254.686 C 150.111 254.514,150.098 254.488,149.282 254.446 C 148.777 254.421,147.922 254.842,147.382 255.382 M251.434 255.057 C 251.220 255.613,251.278 255.634,251.808 255.194 C 252.268 254.811,252.552 254.792,252.880 255.120 C 253.208 255.448,253.189 255.732,252.806 256.192 C 252.366 256.722,252.387 256.780,252.943 256.566 C 253.717 256.269,253.792 255.552,253.120 254.880 C 252.448 254.208,251.731 254.283,251.434 255.057 M253.102 257.866 C 253.379 257.977,253.503 258.233,253.379 258.434 C 253.255 258.635,253.343 258.800,253.576 258.800 C 253.809 258.800,254.000 258.530,254.000 258.200 C 254.000 257.870,253.685 257.614,253.300 257.632 C 252.878 257.651,252.799 257.744,253.102 257.866 M146.700 258.276 C 145.925 258.478,145.727 259.600,146.467 259.600 C 146.723 259.600,146.816 259.483,146.673 259.340 C 146.530 259.196,146.725 258.842,147.106 258.552 C 147.837 257.998,147.817 257.984,146.700 258.276 M146.101 265.000 C 146.105 265.880,146.187 266.193,146.283 265.695 C 146.379 265.198,146.375 264.478,146.275 264.095 C 146.175 263.713,146.096 264.120,146.101 265.000 M253.002 269.198 C 252.603 269.639,252.407 270.000,252.567 270.000 C 252.988 270.000,254.128 268.795,253.912 268.579 C 253.811 268.478,253.402 268.756,253.002 269.198 " stroke="none" fill="#504c4c" fill-rule="evenodd"></path><path id="path4" d="M150.792 135.010 C 150.514 135.345,150.402 135.735,150.543 135.876 C 150.684 136.018,150.800 135.901,150.800 135.618 C 150.800 135.210,150.946 135.216,151.500 135.651 C 152.125 136.142,152.145 136.130,151.683 135.539 C 151.261 134.999,151.261 134.840,151.683 134.670 C 151.990 134.547,152.017 134.450,151.749 134.432 C 151.501 134.414,151.070 134.674,150.792 135.010 M227.434 135.057 C 227.220 135.613,227.278 135.634,227.808 135.194 C 228.699 134.454,229.546 135.301,228.806 136.192 C 228.366 136.722,228.387 136.780,228.943 136.566 C 229.717 136.269,229.792 135.552,229.120 134.880 C 228.448 134.208,227.731 134.283,227.434 135.057 M150.000 138.200 C 150.000 138.750,150.135 139.200,150.300 139.200 C 150.465 139.200,150.600 138.750,150.600 138.200 C 150.600 137.650,150.465 137.200,150.300 137.200 C 150.135 137.200,150.000 137.650,150.000 138.200 M229.400 138.600 C 229.400 139.150,229.535 139.600,229.700 139.600 C 229.865 139.600,230.000 139.150,230.000 138.600 C 230.000 138.050,229.865 137.600,229.700 137.600 C 229.535 137.600,229.400 138.050,229.400 138.600 M150.641 145.533 C 150.222 146.212,151.824 148.569,153.033 149.054 C 154.051 149.461,154.267 149.452,154.267 149.001 C 154.267 148.700,153.835 148.345,153.307 148.212 C 152.708 148.062,152.130 147.451,151.768 146.586 C 151.165 145.143,150.986 144.975,150.641 145.533 M228.238 146.570 C 227.871 147.449,227.295 148.061,226.693 148.212 C 226.165 148.345,225.733 148.695,225.733 148.991 C 225.733 150.314,228.550 148.493,229.145 146.786 C 229.740 145.080,228.941 144.889,228.238 146.570 M152.244 145.928 C 152.123 146.124,152.469 146.701,153.012 147.212 C 154.186 148.315,154.315 147.927,153.232 146.550 C 152.809 146.013,152.365 145.733,152.244 145.928 M226.470 146.852 C 225.958 147.483,225.701 148.000,225.900 148.000 C 226.458 148.000,228.102 146.109,227.730 145.894 C 227.549 145.790,226.981 146.221,226.470 146.852 M177.100 149.900 C 184.195 149.961,195.805 149.961,202.900 149.900 C 209.995 149.839,204.190 149.789,190.000 149.789 C 175.810 149.789,170.005 149.839,177.100 149.900 M104.806 158.700 C 104.810 159.132,104.925 159.231,105.106 158.960 C 105.268 158.718,105.670 158.417,106.000 158.292 C 106.401 158.139,106.301 158.053,105.700 158.032 C 105.095 158.010,104.802 158.230,104.806 158.700 M110.905 158.287 C 111.514 158.379,112.414 158.377,112.905 158.282 C 113.397 158.187,112.900 158.111,111.800 158.114 C 110.700 158.117,110.297 158.195,110.905 158.287 M102.538 159.017 C 102.408 159.357,102.409 159.742,102.541 159.874 C 102.826 160.159,104.000 159.255,104.000 158.751 C 104.000 158.147,102.787 158.368,102.538 159.017 M238.600 158.800 C 239.040 158.989,239.186 159.156,238.926 159.172 C 238.665 159.187,238.935 159.695,239.526 160.300 C 240.116 160.905,240.717 161.239,240.859 161.042 C 241.002 160.845,241.206 161.025,241.313 161.442 C 241.475 162.073,241.515 162.046,241.554 161.282 C 241.613 160.106,239.910 158.392,238.718 158.428 C 237.849 158.455,237.843 158.475,238.600 158.800 M240.408 159.810 C 241.181 160.741,240.629 160.917,239.802 160.002 C 239.403 159.561,239.262 159.200,239.489 159.200 C 239.716 159.200,240.130 159.474,240.408 159.810 M102.046 161.900 C 102.082 162.743,102.139 162.813,102.293 162.200 C 102.403 161.760,102.697 161.268,102.946 161.106 C 103.234 160.920,103.144 160.810,102.700 160.806 C 102.190 160.802,102.013 161.099,102.046 161.900 M240.894 162.559 C 241.275 162.845,241.470 163.196,241.327 163.340 C 241.184 163.483,241.277 163.600,241.533 163.600 C 242.378 163.600,242.020 162.498,241.100 162.267 C 240.286 162.061,240.266 162.089,240.894 162.559 M241.411 170.418 C 241.553 170.647,241.451 171.097,241.185 171.418 C 240.796 171.887,240.828 172.000,241.351 172.000 C 241.777 172.000,242.000 171.656,242.000 171.000 C 242.000 170.450,241.809 170.000,241.576 170.000 C 241.343 170.000,241.269 170.188,241.411 170.418 M240.584 172.827 C 240.439 173.061,240.416 173.349,240.533 173.467 C 240.820 173.753,241.600 173.248,241.600 172.776 C 241.600 172.265,240.909 172.299,240.584 172.827 M239.383 173.227 C 239.238 173.462,238.867 173.558,238.560 173.440 C 238.252 173.322,238.000 173.399,238.000 173.613 C 238.000 173.826,238.450 174.000,239.000 174.000 C 239.622 174.000,240.000 173.773,240.000 173.400 C 240.000 172.696,239.754 172.627,239.383 173.227 M150.674 182.840 C 150.546 183.328,150.266 183.565,150.008 183.405 C 149.760 183.252,148.949 183.778,148.183 184.590 C 147.426 185.394,146.922 185.725,147.065 185.326 C 147.475 184.177,148.054 183.586,149.373 182.968 L 150.600 182.393 149.205 182.605 C 147.491 182.867,146.894 183.431,146.559 185.105 C 146.306 186.370,146.837 186.911,147.415 185.976 C 147.581 185.707,147.893 185.816,148.268 186.276 C 148.593 186.674,148.745 186.775,148.606 186.500 C 148.445 186.183,148.644 186.000,149.149 186.000 C 149.864 186.000,150.522 184.989,150.580 183.800 C 150.591 183.580,150.810 183.400,151.067 183.400 C 151.323 183.400,151.683 183.236,151.867 183.036 C 152.060 182.824,151.990 182.792,151.700 182.959 C 151.425 183.118,151.200 183.069,151.200 182.851 C 151.200 182.634,151.605 182.378,152.100 182.282 C 152.905 182.127,152.889 182.103,151.947 182.054 C 151.187 182.015,150.832 182.234,150.674 182.840 M304.800 182.387 C 304.800 182.601,305.072 182.670,305.405 182.543 C 305.738 182.415,306.278 182.533,306.605 182.804 C 307.090 183.207,307.200 183.178,307.200 182.649 C 307.200 182.195,306.840 182.000,306.000 182.000 C 305.340 182.000,304.800 182.174,304.800 182.387 M307.857 182.995 C 307.725 183.339,307.834 183.550,308.114 183.495 C 308.381 183.443,308.557 183.619,308.505 183.886 C 308.450 184.166,308.661 184.275,309.005 184.143 C 309.725 183.866,309.757 183.517,309.120 182.880 C 308.483 182.243,308.134 182.275,307.857 182.995 M150.206 184.010 C 150.345 184.235,150.221 184.370,149.930 184.310 C 149.625 184.247,149.448 184.488,149.512 184.876 C 149.589 185.340,149.370 185.533,148.812 185.491 C 147.758 185.412,147.783 184.997,148.889 184.223 C 149.943 183.484,149.887 183.493,150.206 184.010 M309.238 185.500 C 309.533 185.885,309.825 186.275,309.887 186.367 C 309.949 186.458,310.000 186.143,310.000 185.667 C 310.000 185.134,309.750 184.800,309.351 184.800 C 308.796 184.800,308.779 184.901,309.238 185.500 M146.093 193.200 C 146.093 193.970,146.175 194.285,146.276 193.900 C 146.376 193.515,146.376 192.885,146.276 192.500 C 146.175 192.115,146.093 192.430,146.093 193.200 M308.795 198.214 C 308.353 199.553,306.631 201.165,306.153 200.687 C 306.031 200.565,306.303 200.266,306.757 200.023 C 307.210 199.780,307.788 199.181,308.041 198.691 C 308.380 198.034,308.121 198.161,307.056 199.173 C 306.262 199.928,305.504 200.437,305.371 200.305 C 305.239 200.172,305.596 199.759,306.165 199.386 C 306.734 199.013,307.200 198.527,307.200 198.305 C 307.200 198.056,306.996 198.072,306.663 198.348 C 306.368 198.593,305.979 198.660,305.799 198.497 C 305.619 198.333,305.589 198.405,305.731 198.655 C 305.874 198.905,305.707 199.345,305.359 199.634 C 304.787 200.109,304.795 200.207,305.440 200.679 C 306.001 201.089,306.026 201.200,305.556 201.200 C 305.228 201.200,304.708 200.975,304.399 200.700 C 303.919 200.272,303.918 200.305,304.394 200.931 C 305.460 202.334,308.878 201.043,309.307 199.076 C 309.411 198.594,309.630 197.885,309.791 197.500 C 309.961 197.096,309.911 196.800,309.674 196.800 C 309.447 196.800,309.052 197.436,308.795 198.214 M150.900 199.065 C 150.214 199.342,150.273 200.216,151.029 200.971 C 151.855 201.798,152.650 201.769,152.981 200.900 C 153.195 200.339,153.148 200.299,152.744 200.700 C 152.467 200.975,152.096 201.200,151.920 201.200 C 151.744 201.200,151.645 200.975,151.700 200.700 C 151.755 200.425,151.575 200.245,151.300 200.300 C 150.666 200.427,150.656 199.904,151.280 199.280 C 151.786 198.774,151.717 198.735,150.900 199.065 M154.800 201.353 C 154.800 201.947,160.916 202.000,228.800 202.000 C 295.556 202.000,302.800 201.939,302.800 201.376 C 302.800 201.033,302.636 200.854,302.435 200.979 C 301.940 201.284,156.837 201.255,155.700 200.949 C 155.038 200.771,154.800 200.878,154.800 201.353 M98.500 206.287 C 99.105 206.378,100.095 206.378,100.700 206.287 C 101.305 206.195,100.810 206.120,99.600 206.120 C 98.390 206.120,97.895 206.195,98.500 206.287 M243.100 206.289 C 243.815 206.378,244.985 206.378,245.700 206.289 C 246.415 206.201,245.830 206.128,244.400 206.128 C 242.970 206.128,242.385 206.201,243.100 206.289 M248.604 206.407 C 248.742 206.630,249.043 206.697,249.272 206.555 C 249.502 206.414,249.847 206.546,250.039 206.849 C 250.315 207.285,250.389 207.254,250.394 206.700 C 250.398 206.214,250.087 206.000,249.376 206.000 C 248.785 206.000,248.459 206.172,248.604 206.407 M90.786 207.017 C 90.424 207.453,90.399 207.759,90.700 208.060 C 91.001 208.361,91.107 208.268,91.063 207.743 C 91.022 207.262,91.246 207.019,91.696 207.055 C 92.078 207.085,92.293 206.950,92.172 206.755 C 91.848 206.230,91.363 206.322,90.786 207.017 M251.434 207.057 C 251.220 207.613,251.278 207.634,251.808 207.194 C 252.268 206.811,252.552 206.792,252.880 207.120 C 253.208 207.448,253.189 207.732,252.806 208.192 C 252.366 208.722,252.387 208.780,252.943 208.566 C 253.717 208.269,253.792 207.552,253.120 206.880 C 252.448 206.208,251.731 206.283,251.434 207.057 M253.102 209.866 C 253.379 209.977,253.503 210.233,253.379 210.434 C 253.255 210.635,253.343 210.800,253.576 210.800 C 253.809 210.800,254.000 210.530,254.000 210.200 C 254.000 209.870,253.685 209.614,253.300 209.632 C 252.878 209.651,252.799 209.744,253.102 209.866 M251.011 222.388 C 250.616 222.824,250.139 223.086,249.951 222.970 C 249.763 222.854,249.722 223.053,249.861 223.414 C 250.077 223.979,250.254 223.928,251.135 223.047 C 251.697 222.484,252.061 221.928,251.943 221.810 C 251.825 221.692,251.405 221.952,251.011 222.388 M252.222 222.655 C 251.924 223.840,250.552 224.624,249.828 224.023 C 249.153 223.463,248.298 224.387,248.775 225.160 C 249.153 225.770,251.607 225.156,252.345 224.266 C 253.176 223.265,253.567 221.733,252.991 221.733 C 252.695 221.733,252.349 222.148,252.222 222.655 M92.400 222.289 C 92.400 222.792,93.543 223.790,93.812 223.521 C 93.918 223.415,93.644 223.002,93.202 222.602 C 92.761 222.203,92.400 222.062,92.400 222.289 M94.000 224.275 C 94.000 225.133,95.188 225.776,95.717 225.204 C 96.100 224.790,96.084 224.749,95.639 225.002 C 95.279 225.208,94.886 225.059,94.539 224.585 C 94.243 224.179,94.000 224.039,94.000 224.275 M96.806 225.300 C 96.800 225.964,100.655 226.000,172.200 226.000 C 213.670 226.000,247.600 225.865,247.600 225.700 C 247.600 225.535,213.816 225.446,172.525 225.502 C 112.645 225.584,97.385 225.503,97.131 225.102 C 96.902 224.742,96.811 224.798,96.806 225.300 M282.000 230.387 C 282.000 230.601,282.288 230.664,282.640 230.529 C 282.993 230.394,283.440 230.535,283.634 230.842 C 283.917 231.289,283.989 231.260,283.994 230.700 C 283.998 230.218,283.688 230.000,283.000 230.000 C 282.450 230.000,282.000 230.174,282.000 230.387 M124.942 230.677 C 123.820 230.896,122.969 231.909,122.653 233.400 L 122.399 234.600 123.140 233.241 C 123.548 232.493,124.493 231.556,125.241 231.158 C 126.599 230.434,126.554 230.361,124.942 230.677 M285.158 232.366 C 285.465 232.560,285.606 233.007,285.471 233.360 C 285.336 233.712,285.399 234.000,285.613 234.000 C 285.826 234.000,286.000 233.550,286.000 233.000 C 286.000 232.312,285.782 232.002,285.300 232.006 C 284.740 232.011,284.711 232.083,285.158 232.366 M287.000 234.826 C 289.990 235.718,290.114 240.293,287.188 241.806 C 286.535 242.144,286.000 242.686,286.000 243.010 C 286.000 243.918,286.478 243.718,287.968 242.184 C 290.638 239.436,289.812 234.319,286.718 234.434 C 285.940 234.464,285.983 234.523,287.000 234.826 M125.500 245.865 C 125.775 245.976,126.000 246.322,126.000 246.633 C 126.000 246.945,126.272 247.200,126.603 247.200 C 127.107 247.200,127.124 247.067,126.707 246.400 C 126.432 245.960,125.936 245.614,125.604 245.632 C 125.193 245.653,125.160 245.728,125.500 245.865 M285.246 246.630 C 285.177 247.867,283.424 249.352,282.362 249.074 C 281.738 248.911,281.609 248.969,281.913 249.273 C 283.024 250.384,285.905 248.160,285.480 246.520 C 285.321 245.910,285.286 245.927,285.246 246.630 M126.812 247.992 C 126.348 248.279,126.342 248.448,126.775 248.970 C 127.424 249.752,127.849 249.770,128.133 249.029 C 128.428 248.261,127.525 247.552,126.812 247.992 M128.800 249.351 C 128.800 249.872,129.239 250.000,131.024 250.000 C 132.300 250.000,133.149 249.841,133.016 249.626 C 132.889 249.421,132.160 249.354,131.396 249.478 C 130.554 249.615,129.769 249.506,129.403 249.203 C 128.908 248.791,128.800 248.818,128.800 249.351 M279.400 249.600 L 278.200 249.905 279.500 249.953 C 280.215 249.979,280.800 249.820,280.800 249.600 C 280.800 249.380,280.755 249.221,280.700 249.247 C 280.645 249.273,280.060 249.432,279.400 249.600 M171.332 249.900 C 190.434 249.957,221.574 249.957,240.532 249.900 C 259.489 249.843,243.860 249.796,205.800 249.796 C 167.740 249.796,152.229 249.843,171.332 249.900 M248.800 254.424 C 248.800 254.657,249.000 254.724,249.245 254.572 C 249.489 254.421,249.847 254.546,250.039 254.849 C 250.315 255.285,250.389 255.254,250.394 254.700 C 250.398 254.265,250.098 254.000,249.600 254.000 C 249.160 254.000,248.800 254.191,248.800 254.424 M147.382 255.382 C 146.842 255.922,146.425 256.777,146.454 257.282 C 146.506 258.151,146.518 258.155,146.676 257.350 C 146.875 256.335,148.285 254.956,149.400 254.686 C 150.111 254.514,150.098 254.488,149.282 254.446 C 148.777 254.421,147.922 254.842,147.382 255.382 M251.434 255.057 C 251.220 255.613,251.278 255.634,251.808 255.194 C 252.268 254.811,252.552 254.792,252.880 255.120 C 253.208 255.448,253.189 255.732,252.806 256.192 C 252.366 256.722,252.387 256.780,252.943 256.566 C 253.717 256.269,253.792 255.552,253.120 254.880 C 252.448 254.208,251.731 254.283,251.434 255.057 M253.102 257.866 C 253.379 257.977,253.503 258.233,253.379 258.434 C 253.255 258.635,253.343 258.800,253.576 258.800 C 253.809 258.800,254.000 258.530,254.000 258.200 C 254.000 257.870,253.685 257.614,253.300 257.632 C 252.878 257.651,252.799 257.744,253.102 257.866 M146.700 258.276 C 145.925 258.478,145.727 259.600,146.467 259.600 C 146.723 259.600,146.816 259.483,146.673 259.340 C 146.530 259.196,146.725 258.842,147.106 258.552 C 147.837 257.998,147.817 257.984,146.700 258.276 M146.101 265.000 C 146.105 265.880,146.187 266.193,146.283 265.695 C 146.379 265.198,146.375 264.478,146.275 264.095 C 146.175 263.713,146.096 264.120,146.101 265.000 M253.002 269.198 C 252.603 269.639,252.407 270.000,252.567 270.000 C 252.988 270.000,254.128 268.795,253.912 268.579 C 253.811 268.478,253.402 268.756,253.002 269.198 " stroke="none" fill="#504c4c" fill-rule="evenodd"></path></g></svg>