<svg id="svg" version="1.1" xmlns="http://www.w3.org/2000/svg" xmlns:xlink="http://www.w3.org/1999/xlink" width="400" height="400" viewBox="0, 0, 400,400"><g id="svgg"><path id="path0" d="M202.252 98.317 C 202.157 98.473,202.079 99.287,202.079 100.127 C 202.080 102.134,202.167 102.090,198.233 102.091 C 194.458 102.092,193.765 102.459,194.112 104.272 C 194.438 105.977,194.113 106.339,192.457 106.117 C 190.547 105.861,189.806 106.650,190.123 108.603 C 190.349 109.997,190.346 110.000,188.803 110.000 C 186.332 110.000,185.999 110.632,186.004 115.329 C 186.010 120.908,186.259 122.138,187.542 122.932 C 188.124 123.291,189.410 124.319,190.400 125.214 C 191.390 126.110,192.924 127.328,193.809 127.921 C 195.418 128.999,197.825 131.523,202.036 136.544 C 203.730 138.564,204.438 139.815,204.959 141.705 C 205.337 143.077,206.073 144.830,206.594 145.600 C 207.116 146.370,207.726 148.019,207.951 149.265 C 208.759 153.739,209.674 155.066,210.967 153.637 C 215.003 149.177,231.326 149.135,236.195 153.572 C 236.638 153.976,237.586 154.603,238.302 154.965 C 239.018 155.327,240.052 156.333,240.600 157.200 C 241.148 158.067,242.142 159.060,242.810 159.405 C 243.602 159.815,244.364 160.758,245.000 162.117 C 245.536 163.263,246.339 164.650,246.785 165.200 C 247.913 166.591,248.872 173.073,248.354 175.805 C 247.963 177.863,248.195 180.433,248.889 181.754 C 249.237 182.415,249.602 182.478,251.865 182.267 C 256.422 181.841,264.344 183.601,265.218 185.234 C 265.443 185.654,266.296 186.348,267.113 186.776 C 269.774 188.170,276.088 195.045,276.561 197.064 C 277.175 199.681,277.732 200.485,279.440 201.217 C 281.086 201.923,281.989 203.434,281.998 205.500 C 282.000 206.093,286.929 206.183,289.297 205.633 C 290.173 205.430,290.703 205.434,290.574 205.643 C 290.262 206.147,292.204 206.086,294.154 205.531 C 296.147 204.963,297.200 204.132,297.200 203.125 C 297.200 202.140,297.568 202.039,301.675 201.901 C 305.699 201.766,305.630 201.806,305.900 199.412 L 306.106 197.584 307.457 197.837 C 309.365 198.195,310.143 197.456,309.842 195.571 C 309.608 194.107,309.610 194.104,311.252 193.884 C 313.910 193.527,313.800 194.233,313.800 177.480 L 313.800 162.200 312.056 162.123 C 309.945 162.029,310.105 162.188,309.925 160.012 L 309.776 158.224 307.988 158.075 C 305.830 157.896,306.066 158.134,305.914 155.987 C 305.781 154.092,305.835 154.130,303.082 154.046 C 301.568 154.000,301.565 153.996,301.827 152.596 C 302.240 150.395,301.711 150.088,297.487 150.071 C 295.459 150.063,292.900 150.044,291.800 150.028 L 289.800 150.000 289.873 144.427 C 289.954 138.246,289.760 137.708,287.615 138.137 C 286.071 138.446,285.966 138.210,285.958 134.414 C 285.950 130.677,285.527 130.000,283.197 130.000 C 281.654 130.000,281.651 129.997,281.877 128.603 C 282.179 126.739,281.465 125.921,279.628 126.029 C 278.843 126.074,277.255 126.087,276.100 126.056 L 274.000 126.000 274.000 124.629 C 274.000 123.874,273.717 122.974,273.371 122.629 C 272.703 121.960,269.382 121.724,269.784 122.374 C 269.927 122.606,269.518 122.605,268.708 122.373 C 266.710 121.799,258.884 122.017,258.349 122.661 C 258.090 122.974,258.017 123.767,258.173 124.596 L 258.436 126.000 256.218 126.000 L 254.000 126.000 253.984 122.700 C 253.946 114.884,253.862 114.582,251.598 114.200 C 250.218 113.966,249.994 113.785,249.957 112.865 C 249.848 110.128,249.902 110.206,248.034 110.101 C 245.895 109.981,246.067 110.153,245.916 107.991 L 245.791 106.209 244.009 106.084 C 241.847 105.933,242.019 106.105,241.899 103.966 C 241.793 102.077,241.891 102.140,238.900 102.043 C 237.760 102.005,237.599 101.864,237.594 100.900 C 237.583 99.006,234.024 97.066,233.152 98.478 C 232.986 98.746,232.805 98.732,232.622 98.435 C 232.309 97.930,202.561 97.814,202.252 98.317 M236.606 100.130 C 236.933 100.597,237.193 101.253,237.184 101.589 C 237.175 101.936,236.913 101.730,236.576 101.110 C 235.952 99.960,234.606 99.026,234.058 99.364 C 233.880 99.474,233.733 99.323,233.733 99.026 C 233.733 98.238,235.851 99.051,236.606 100.130 M305.002 200.798 C 304.603 201.239,304.130 201.600,303.952 201.600 C 303.774 201.600,304.027 201.186,304.514 200.680 C 305.590 199.563,306.025 199.668,305.002 200.798 M151.283 231.172 C 149.518 232.567,149.196 233.071,148.409 235.661 C 147.421 238.913,145.834 240.797,143.407 241.598 C 141.799 242.128,141.534 243.628,142.539 246.513 C 143.565 249.460,144.954 249.936,152.315 249.858 L 157.800 249.800 157.861 248.800 C 157.894 248.250,157.939 247.345,157.961 246.789 C 157.997 245.866,158.131 245.791,159.522 245.924 C 162.531 246.211,163.183 242.517,160.231 241.908 C 157.452 241.334,156.702 239.654,157.623 236.061 L 158.128 234.089 156.164 231.850 C 153.821 229.178,153.808 229.176,151.283 231.172 M206.480 242.480 C 206.216 242.744,206.000 243.644,206.000 244.480 C 206.000 245.979,205.978 246.000,204.449 246.000 C 201.956 246.000,201.917 246.158,202.066 255.768 C 202.237 266.745,201.422 265.800,210.714 265.800 C 218.584 265.800,217.842 266.076,217.957 263.100 C 217.995 262.122,218.152 262.000,219.371 262.000 C 221.811 262.000,221.946 261.583,221.979 253.943 C 222.013 246.298,221.921 246.000,219.551 246.000 C 218.022 246.000,218.000 245.979,218.000 244.480 C 218.000 242.147,217.645 242.000,212.000 242.000 C 208.613 242.000,206.803 242.157,206.480 242.480 M170.277 250.323 C 170.199 250.475,170.096 251.313,170.049 252.185 C 169.943 254.147,169.974 254.118,167.904 254.163 C 165.984 254.205,166.161 253.691,166.054 259.518 L 166.000 262.436 164.596 262.173 C 162.168 261.717,162.081 261.987,162.068 270.010 C 162.061 274.743,162.205 277.279,162.490 277.456 C 162.739 277.609,162.809 277.538,162.655 277.289 C 162.508 277.051,162.557 276.750,162.766 276.621 C 162.974 276.492,163.250 276.557,163.379 276.766 C 163.508 276.974,163.427 277.260,163.200 277.400 C 162.973 277.540,162.874 277.796,162.980 277.968 C 163.086 278.139,162.312 278.197,161.259 278.096 C 158.775 277.857,157.864 278.650,158.075 280.864 C 158.197 282.142,158.098 282.400,157.484 282.400 C 156.402 282.400,155.284 283.096,154.740 284.109 C 154.130 285.245,153.815 296.891,154.418 296.000 C 154.716 295.560,154.752 295.709,154.554 296.558 C 154.295 297.669,154.331 297.705,155.442 297.446 C 156.291 297.248,156.440 297.284,156.000 297.582 C 155.532 297.898,155.675 297.989,156.647 297.994 C 157.803 298.000,157.911 298.120,158.114 299.633 C 158.412 301.860,158.231 301.792,164.010 301.869 C 169.787 301.946,170.201 301.773,169.925 299.406 C 169.770 298.077,169.827 297.998,170.980 297.957 C 173.991 297.853,173.789 298.068,173.923 294.822 C 174.022 292.413,174.194 291.740,174.823 291.299 C 175.814 290.605,175.820 289.399,174.835 288.710 C 174.223 288.281,174.043 287.577,173.935 285.187 C 173.844 283.172,173.637 282.184,173.300 282.150 C 173.025 282.123,172.170 282.078,171.400 282.050 C 170.337 282.012,170.000 281.827,170.000 281.280 C 170.000 280.884,169.775 280.318,169.500 280.021 C 169.096 279.586,169.107 279.544,169.558 279.801 C 169.992 280.048,170.071 279.884,169.913 279.059 C 169.802 278.477,169.866 278.000,170.055 278.000 C 170.245 278.000,170.400 278.368,170.400 278.818 C 170.400 280.242,172.157 281.600,174.000 281.600 C 175.843 281.600,177.600 280.242,177.600 278.818 C 177.600 277.992,177.637 277.981,180.800 277.843 C 181.901 277.796,181.846 278.045,181.943 272.700 L 182.000 269.600 183.351 269.600 C 185.630 269.600,185.777 269.100,185.789 261.266 L 185.800 254.229 184.000 254.078 C 181.819 253.895,182.018 254.096,181.899 251.966 L 181.800 250.200 176.110 250.123 C 172.980 250.080,170.355 250.170,170.277 250.323 M134.414 254.584 C 134.164 254.885,133.996 255.552,134.042 256.066 C 134.087 256.580,134.096 258.101,134.062 259.447 L 134.000 261.895 132.367 262.114 C 130.058 262.423,130.089 262.335,130.019 268.700 C 130.001 270.297,129.931 270.400,128.862 270.400 C 126.914 270.400,126.400 271.424,126.400 275.305 C 126.400 280.678,126.992 281.453,131.400 281.858 C 134.300 282.125,134.420 282.200,134.143 283.584 C 133.737 285.616,134.259 285.834,139.661 285.892 C 142.911 285.927,144.363 285.815,143.979 285.560 C 143.578 285.294,143.755 285.259,144.558 285.446 C 145.669 285.705,145.705 285.669,145.446 284.558 C 145.261 283.766,145.296 283.581,145.556 283.972 C 145.813 284.358,145.944 283.456,145.958 281.202 C 145.978 278.223,146.643 276.190,147.133 277.613 C 147.321 278.158,148.945 278.095,149.520 277.520 C 150.108 276.932,150.157 275.200,149.586 275.200 C 149.300 275.200,149.300 274.960,149.586 274.426 C 149.814 274.001,150.000 272.854,150.000 271.879 C 150.000 270.106,150.001 270.105,151.633 269.886 C 153.864 269.587,153.800 269.762,153.800 264.000 C 153.800 258.252,153.858 258.412,151.679 258.120 C 150.180 257.919,150.081 257.820,149.880 256.321 C 149.763 255.448,149.547 254.614,149.401 254.467 C 148.831 253.896,134.894 254.005,134.414 254.584 M149.002 255.202 C 150.025 256.332,149.590 256.437,148.514 255.320 C 148.027 254.814,147.774 254.400,147.952 254.400 C 148.130 254.400,148.603 254.761,149.002 255.202 M153.002 259.202 C 154.025 260.332,153.590 260.437,152.514 259.320 C 152.027 258.814,151.774 258.400,151.952 258.400 C 152.130 258.400,152.603 258.761,153.002 259.202 M204.523 265.164 C 204.355 265.398,202.800 263.942,202.800 263.552 C 202.800 263.374,203.214 263.627,203.720 264.114 C 204.226 264.601,204.587 265.074,204.523 265.164 M185.200 266.818 C 185.200 267.421,183.331 269.203,182.718 269.184 C 182.433 269.175,182.683 268.906,183.273 268.586 C 183.862 268.265,184.460 267.643,184.599 267.202 C 184.872 266.342,185.200 266.133,185.200 266.818 M153.002 268.798 C 152.603 269.239,152.130 269.600,151.952 269.600 C 151.774 269.600,152.027 269.186,152.514 268.680 C 153.590 267.563,154.025 267.668,153.002 268.798 M175.400 279.200 C 176.170 278.454,176.800 278.067,176.800 278.340 C 176.800 279.140,174.910 280.800,174.000 280.800 C 173.090 280.800,171.200 279.140,171.200 278.340 C 171.200 278.067,171.830 278.454,172.600 279.200 L 174.000 280.557 175.400 279.200 M174.480 278.480 C 174.107 278.853,173.893 278.853,173.520 278.480 C 173.147 278.107,173.253 278.000,174.000 278.000 C 174.747 278.000,174.853 278.107,174.480 278.480 M190.396 278.605 C 190.141 278.912,189.974 279.756,190.025 280.481 C 190.075 281.207,190.090 282.799,190.058 284.020 L 190.000 286.239 188.545 286.070 C 187.544 285.953,187.177 286.039,187.366 286.345 C 187.547 286.638,187.404 286.700,186.951 286.526 C 186.416 286.321,186.321 286.416,186.526 286.951 C 186.674 287.336,186.627 287.540,186.421 287.413 C 185.834 287.050,185.960 301.069,186.549 301.557 C 187.601 302.431,205.792 301.906,205.857 301.000 C 205.889 300.560,205.934 298.805,205.957 297.100 L 206.000 294.000 207.371 294.000 C 209.812 294.000,209.944 293.588,209.938 285.997 C 209.936 282.036,209.782 279.287,209.571 279.418 C 209.372 279.541,209.328 279.331,209.474 278.951 C 209.679 278.416,209.584 278.321,209.049 278.526 C 208.662 278.674,208.459 278.627,208.588 278.419 C 208.996 277.760,190.944 277.944,190.396 278.605 M156.400 285.000 C 155.428 285.990,154.587 286.800,154.530 286.800 C 154.204 286.800,156.194 283.929,156.741 283.609 C 158.205 282.754,158.072 283.296,156.400 285.000 " stroke="none" fill="#494949" fill-rule="evenodd"></path><path id="path1" d="M161.751 114.539 C 159.769 115.093,158.800 115.844,158.800 116.825 C 158.800 117.925,158.150 118.132,154.784 118.103 C 152.681 118.086,151.717 118.224,151.751 118.539 C 151.778 118.792,151.620 119.033,151.400 119.074 C 151.180 119.114,151.057 118.870,151.127 118.531 C 151.203 118.167,151.039 117.986,150.727 118.089 C 150.437 118.184,150.142 118.659,150.071 119.142 C 149.787 121.074,148.152 122.047,145.055 122.127 L 142.200 122.200 142.078 124.100 C 142.008 125.197,141.754 126.024,141.478 126.056 C 141.215 126.087,140.370 126.132,139.600 126.156 C 138.231 126.199,138.200 126.238,138.188 127.878 C 138.174 129.964,137.980 130.158,135.885 130.181 L 134.200 130.200 134.185 132.000 L 134.170 133.800 132.485 133.923 C 130.808 134.045,130.259 134.617,131.398 135.054 C 131.726 135.181,131.882 135.468,131.742 135.693 C 131.590 135.940,131.345 135.845,131.125 135.451 C 130.924 135.093,130.589 134.800,130.380 134.800 C 129.811 134.800,129.921 137.897,130.500 138.163 C 130.775 138.289,130.595 138.292,130.100 138.169 C 129.326 137.977,129.201 138.104,129.206 139.073 C 129.210 139.812,129.325 140.023,129.539 139.684 C 129.747 139.356,129.867 139.646,129.867 140.480 C 129.867 141.862,129.042 143.116,128.602 142.403 C 128.465 142.181,128.498 141.997,128.676 141.994 C 129.452 141.979,127.709 141.212,126.888 141.206 C 126.032 141.200,125.980 141.346,126.047 143.587 C 126.096 145.202,126.261 145.888,126.559 145.710 C 126.879 145.519,126.880 145.605,126.562 146.023 C 126.284 146.390,126.113 149.346,126.093 154.136 C 126.056 163.000,126.578 161.974,122.074 162.035 C 120.045 162.062,118.400 162.255,118.400 162.466 C 118.400 162.676,118.625 162.716,118.900 162.555 C 119.175 162.394,119.074 162.635,118.676 163.090 C 118.113 163.732,118.068 163.970,118.476 164.155 C 118.764 164.286,118.550 164.277,118.000 164.136 C 116.062 163.640,115.794 163.738,115.915 164.900 C 115.978 165.505,115.863 166.000,115.658 166.000 C 115.140 166.000,114.778 164.922,115.055 164.200 C 115.201 163.820,115.050 163.600,114.643 163.600 C 114.195 163.600,114.000 163.964,114.000 164.800 C 114.000 165.856,113.856 166.006,112.800 166.050 C 109.848 166.173,109.372 166.230,108.928 166.513 C 108.668 166.678,108.342 166.630,108.204 166.407 C 107.808 165.766,106.401 165.932,106.124 166.653 C 105.987 167.012,106.078 167.634,106.329 168.034 C 106.624 168.508,106.644 168.849,106.385 169.009 C 106.166 169.144,106.091 169.423,106.217 169.628 C 106.493 170.073,105.916 170.132,102.049 170.049 C 98.590 169.976,98.000 170.326,98.000 172.449 C 98.000 173.978,97.979 174.000,96.480 174.000 C 94.564 174.000,94.000 174.564,94.000 176.480 C 94.000 177.902,93.923 178.000,92.800 178.000 C 91.964 178.000,91.600 178.195,91.600 178.643 C 91.600 179.050,91.820 179.201,92.200 179.055 C 92.922 178.778,94.000 179.140,94.000 179.658 C 94.000 179.863,93.505 179.978,92.900 179.915 C 91.958 179.817,91.815 179.934,91.901 180.733 C 91.957 181.247,91.827 181.967,91.613 182.333 C 91.210 183.025,90.984 182.069,91.132 180.300 C 91.164 179.915,90.923 179.600,90.595 179.600 C 90.180 179.600,90.000 180.030,90.000 181.024 C 90.000 181.871,90.162 182.347,90.400 182.200 C 90.620 182.064,90.800 182.143,90.800 182.376 C 90.800 182.609,90.625 182.800,90.411 182.800 C 90.197 182.800,90.084 183.520,90.158 184.400 L 90.294 186.000 88.627 186.000 C 86.539 186.000,85.998 186.533,86.006 188.580 C 86.011 189.773,86.114 190.042,86.400 189.600 C 86.633 189.239,86.790 189.190,86.794 189.476 C 86.797 189.738,86.647 190.047,86.460 190.163 C 85.921 190.496,85.966 216.741,86.508 218.400 C 87.260 220.701,89.641 222.440,90.125 221.042 C 90.209 220.799,90.261 221.770,90.239 223.200 L 90.200 225.800 92.100 225.922 C 93.200 225.993,94.022 226.245,94.051 226.522 C 94.079 226.785,94.124 227.630,94.151 228.400 C 94.199 229.768,94.239 229.800,95.881 229.815 C 97.971 229.833,98.167 230.029,98.185 232.119 C 98.200 233.761,98.232 233.801,99.600 233.849 C 102.289 233.942,102.200 233.872,102.200 235.899 L 102.200 237.800 105.897 237.830 C 110.154 237.865,110.124 237.849,110.167 240.101 L 110.200 241.800 126.063 241.922 L 141.927 242.044 142.138 240.922 C 142.254 240.305,142.464 238.926,142.605 237.858 C 142.803 236.357,143.215 235.532,144.418 234.227 C 145.511 233.041,146.156 231.839,146.586 230.191 C 147.426 226.963,148.403 226.443,153.600 226.450 C 159.776 226.459,161.256 228.304,161.582 236.400 L 161.800 241.800 213.207 241.881 C 241.750 241.927,264.863 241.808,265.175 241.615 C 265.484 241.424,265.841 240.490,265.969 239.540 L 266.200 237.812 268.000 237.806 L 269.800 237.800 269.810 236.124 C 269.822 234.043,269.991 233.874,272.101 233.833 L 273.800 233.800 273.832 232.066 C 273.864 230.320,274.469 229.498,275.446 229.873 C 276.059 230.108,278.064 228.224,277.970 227.501 C 277.819 226.334,278.074 226.022,279.386 225.776 C 281.754 225.332,281.792 225.173,281.885 215.150 L 281.969 206.023 280.285 205.567 C 277.571 204.834,276.710 204.280,276.133 202.900 C 275.834 202.185,275.434 201.600,275.243 201.600 C 275.053 201.600,274.680 201.076,274.415 200.435 C 274.149 199.794,273.227 198.638,272.366 197.864 C 271.406 197.002,270.798 196.099,270.794 195.529 C 270.785 194.220,270.411 193.778,268.711 193.070 C 267.711 192.654,267.052 192.033,266.704 191.178 C 266.236 190.032,265.887 189.830,263.192 189.147 C 261.546 188.731,259.300 187.814,258.200 187.110 L 256.200 185.831 250.227 185.769 C 242.295 185.687,242.875 186.503,242.930 175.500 C 242.975 166.495,242.688 164.672,241.153 164.185 C 240.734 164.052,240.129 163.437,239.809 162.818 C 238.923 161.104,235.238 157.619,234.052 157.373 C 230.728 156.684,229.357 156.133,227.871 154.892 C 225.512 152.921,220.602 153.061,217.971 155.175 C 216.294 156.523,213.908 157.314,210.000 157.818 C 208.790 157.974,207.353 158.453,206.806 158.882 L 205.812 159.663 204.741 158.465 C 203.883 157.504,203.622 156.724,203.425 154.533 C 202.620 145.582,202.164 143.546,200.641 142.109 C 199.850 141.363,199.098 140.268,198.968 139.676 C 198.550 137.762,198.455 137.634,197.003 137.027 C 196.007 136.611,195.388 135.990,194.969 134.988 C 194.573 134.040,193.929 133.364,193.084 133.011 C 192.308 132.686,191.483 131.875,191.000 130.962 C 190.477 129.974,189.810 129.346,189.074 129.152 C 187.497 128.736,186.913 128.158,186.364 126.468 C 186.102 125.661,185.192 124.353,184.344 123.561 C 182.870 122.188,182.809 122.032,182.999 120.129 L 183.197 118.135 179.668 118.119 C 175.992 118.102,174.000 117.136,174.000 115.372 C 174.000 114.019,165.644 113.451,161.751 114.539 M126.880 138.880 C 125.946 139.814,126.299 140.865,127.500 140.727 C 128.364 140.627,128.627 140.364,128.727 139.500 C 128.865 138.299,127.814 137.946,126.880 138.880 M115.600 162.533 C 115.600 162.859,116.067 163.067,116.800 163.067 C 117.533 163.067,118.000 162.859,118.000 162.533 C 118.000 162.207,117.533 162.000,116.800 162.000 C 116.067 162.000,115.600 162.207,115.600 162.533 M280.469 222.400 C 280.744 222.400,280.719 222.184,280.400 221.800 C 280.113 221.454,280.074 221.200,280.308 221.200 C 280.884 221.200,281.245 222.325,280.765 222.622 C 280.288 222.916,279.195 222.092,279.212 221.451 C 279.219 221.203,279.408 221.315,279.632 221.700 C 279.856 222.085,280.233 222.400,280.469 222.400 M264.425 240.375 C 263.955 240.845,263.367 241.103,263.117 240.949 C 262.828 240.770,262.978 240.552,263.532 240.347 C 264.009 240.170,264.400 239.714,264.400 239.333 C 264.400 238.829,264.520 238.760,264.840 239.080 C 265.160 239.400,265.047 239.753,264.425 240.375 " stroke="none" fill="#f4f4f3" fill-rule="evenodd"></path><path id="path2" d="M183.400 118.232 C 183.620 118.324,183.766 119.224,183.723 120.232 C 183.655 121.877,183.767 122.132,184.821 122.732 C 185.629 123.191,186.194 123.993,186.629 125.295 C 187.211 127.042,188.755 128.800,189.705 128.800 C 190.428 128.800,199.011 137.778,199.563 139.112 C 199.862 139.832,200.588 140.764,201.177 141.184 C 202.289 141.975,202.232 141.780,204.237 151.704 C 204.918 155.074,205.703 156.627,206.884 156.944 C 209.762 157.715,213.960 156.751,216.518 154.732 C 219.160 152.646,228.288 152.687,230.193 154.792 C 230.556 155.193,232.449 156.097,234.401 156.800 C 237.395 157.880,238.010 158.253,238.337 159.191 C 238.550 159.801,239.456 160.890,240.351 161.609 C 243.271 163.955,244.735 170.679,243.936 178.075 C 243.229 184.630,243.678 184.995,252.871 185.331 L 258.341 185.531 261.071 187.117 C 262.572 187.990,264.402 188.833,265.137 188.992 C 266.062 189.191,266.717 189.691,267.262 190.615 C 267.695 191.349,268.662 192.312,269.410 192.753 C 270.161 193.196,271.026 194.167,271.340 194.918 C 271.653 195.668,272.450 196.666,273.110 197.136 C 273.771 197.606,274.432 198.473,274.580 199.062 C 274.978 200.647,277.774 203.619,280.029 204.852 C 281.116 205.447,281.885 205.723,281.737 205.467 C 280.730 203.716,279.732 202.679,278.400 202.000 C 277.223 201.400,276.614 200.680,275.780 198.909 C 275.183 197.639,274.072 195.880,273.313 195.000 C 270.473 191.711,266.966 188.380,265.723 187.790 C 265.016 187.455,263.911 186.737,263.267 186.195 C 261.737 184.907,257.392 184.000,252.758 184.000 C 249.917 184.000,248.830 183.827,247.545 183.172 L 245.922 182.344 246.261 179.072 C 247.042 171.535,245.028 163.389,241.753 160.846 C 241.119 160.354,240.060 159.247,239.400 158.388 C 236.612 154.757,227.100 151.218,221.687 151.797 C 218.545 152.134,214.284 153.375,213.650 154.139 C 211.175 157.122,207.767 156.053,206.766 151.980 C 206.418 150.561,205.853 148.860,205.511 148.200 C 205.168 147.540,204.491 145.650,204.005 144.000 C 202.734 139.684,196.808 132.336,191.139 128.046 C 189.667 126.932,187.895 125.132,187.172 124.016 C 186.453 122.907,185.697 122.000,185.492 122.000 C 185.287 122.000,185.183 121.199,185.261 120.221 C 185.381 118.713,185.280 118.409,184.601 118.226 C 183.655 117.972,182.792 117.976,183.400 118.232 M128.767 139.584 C 128.660 140.216,128.243 140.666,127.600 140.844 C 126.718 141.088,126.700 141.125,127.451 141.160 C 128.496 141.209,129.323 140.286,129.100 139.319 C 128.973 138.765,128.897 138.825,128.767 139.584 M115.039 163.137 C 114.654 163.760,115.385 164.328,115.882 163.792 C 116.261 163.384,116.242 163.225,115.795 163.053 C 115.482 162.933,115.142 162.971,115.039 163.137 M91.039 179.137 C 90.654 179.760,91.385 180.328,91.882 179.792 C 92.261 179.384,92.242 179.225,91.795 179.053 C 91.482 178.933,91.142 178.971,91.039 179.137 M152.000 227.077 C 148.463 227.670,147.831 228.305,146.616 232.486 C 146.169 234.023,145.703 234.841,145.177 235.007 C 144.225 235.310,143.683 236.283,142.747 239.377 C 141.810 242.469,141.981 242.523,143.810 239.717 C 144.641 238.443,145.640 237.040,146.031 236.600 C 146.422 236.160,147.122 234.780,147.587 233.533 C 150.750 225.051,159.066 227.218,159.613 236.666 C 159.823 240.296,160.503 242.000,161.742 242.000 C 161.998 242.000,161.974 241.814,161.680 241.520 C 161.382 241.222,161.199 239.744,161.198 237.620 C 161.194 231.937,159.201 228.194,155.655 227.209 C 154.171 226.796,153.759 226.782,152.000 227.077 " stroke="none" fill="#cccccc" fill-rule="evenodd"></path><path id="path3" d="M233.733 99.026 C 233.733 99.323,233.880 99.474,234.058 99.364 C 234.606 99.026,235.952 99.960,236.576 101.110 C 236.913 101.730,237.175 101.936,237.184 101.589 C 237.210 100.608,236.104 99.315,234.873 98.885 C 233.988 98.577,233.733 98.608,233.733 99.026 M185.252 120.000 C 185.202 121.100,185.319 122.000,185.513 122.000 C 185.707 122.000,186.453 122.907,187.172 124.016 C 187.895 125.132,189.667 126.932,191.139 128.046 C 196.808 132.336,202.734 139.684,204.005 144.000 C 204.491 145.650,205.168 147.540,205.511 148.200 C 205.853 148.860,206.418 150.561,206.766 151.980 C 207.767 156.053,211.175 157.122,213.650 154.139 C 214.284 153.375,218.545 152.134,221.687 151.797 C 227.100 151.218,236.612 154.757,239.400 158.388 C 240.060 159.247,241.119 160.354,241.753 160.846 C 245.028 163.389,247.042 171.535,246.261 179.072 L 245.922 182.344 247.545 183.172 C 248.830 183.827,249.917 184.000,252.758 184.000 C 257.392 184.000,261.737 184.907,263.267 186.195 C 263.911 186.737,265.016 187.455,265.723 187.790 C 266.966 188.380,270.473 191.711,273.313 195.000 C 274.072 195.880,275.183 197.639,275.780 198.909 C 276.618 200.690,277.221 201.399,278.420 202.010 C 279.274 202.446,280.444 203.477,281.020 204.301 L 282.067 205.800 281.786 204.400 C 281.360 202.276,280.935 201.707,279.396 201.199 C 277.916 200.710,277.105 199.570,276.613 197.283 C 276.148 195.128,269.933 188.253,267.113 186.776 C 266.296 186.348,265.443 185.654,265.218 185.234 C 264.344 183.601,256.422 181.841,251.865 182.267 C 249.602 182.478,249.237 182.415,248.889 181.754 C 248.195 180.433,247.963 177.863,248.354 175.805 C 248.872 173.073,247.913 166.591,246.785 165.200 C 246.339 164.650,245.536 163.263,245.000 162.117 C 244.364 160.758,243.602 159.815,242.810 159.405 C 242.142 159.060,241.148 158.067,240.600 157.200 C 240.052 156.333,239.018 155.327,238.302 154.965 C 237.586 154.603,236.638 153.976,236.195 153.572 C 231.326 149.135,215.003 149.177,210.967 153.637 C 209.674 155.066,208.759 153.739,207.951 149.265 C 207.726 148.019,207.116 146.370,206.594 145.600 C 206.073 144.830,205.337 143.077,204.959 141.705 C 204.438 139.815,203.730 138.564,202.036 136.544 C 197.825 131.523,195.418 128.999,193.809 127.921 C 192.924 127.328,191.390 126.110,190.400 125.214 C 189.410 124.319,188.114 123.285,187.519 122.918 C 186.641 122.376,186.389 121.852,186.173 120.125 C 185.839 117.447,185.371 117.383,185.252 120.000 M304.514 200.680 C 304.027 201.186,303.774 201.600,303.952 201.600 C 304.342 201.600,305.798 200.045,305.564 199.877 C 305.474 199.813,305.001 200.174,304.514 200.680 M289.400 205.600 L 288.200 205.905 289.276 205.953 C 289.868 205.979,290.464 205.820,290.600 205.600 C 290.736 205.380,290.792 205.221,290.724 205.247 C 290.656 205.273,290.060 205.432,289.400 205.600 M151.800 228.630 C 149.746 229.366,148.683 230.596,147.607 233.480 C 147.131 234.756,146.424 236.160,146.036 236.600 C 145.437 237.278,143.737 239.745,142.670 241.484 C 142.098 242.416,144.785 241.160,146.182 239.843 C 147.149 238.931,147.770 237.764,148.409 235.661 C 149.196 233.071,149.518 232.567,151.283 231.172 C 153.808 229.176,153.821 229.178,156.164 231.850 L 158.128 234.089 157.623 236.061 C 156.726 239.563,157.475 241.363,160.038 241.859 L 161.400 242.122 160.613 241.233 C 159.995 240.535,159.780 239.553,159.613 236.666 C 159.406 233.092,159.355 232.935,157.800 231.061 C 155.339 228.096,154.377 227.706,151.800 228.630 M148.514 255.320 C 149.001 255.826,149.474 256.187,149.564 256.123 C 149.798 255.955,148.342 254.400,147.952 254.400 C 147.774 254.400,148.027 254.814,148.514 255.320 M152.514 259.320 C 153.001 259.826,153.474 260.187,153.564 260.123 C 153.798 259.955,152.342 258.400,151.952 258.400 C 151.774 258.400,152.027 258.814,152.514 259.320 M202.800 263.552 C 202.800 263.942,204.355 265.398,204.523 265.164 C 204.587 265.074,204.226 264.601,203.720 264.114 C 203.214 263.627,202.800 263.374,202.800 263.552 M184.599 267.202 C 184.460 267.643,183.862 268.265,183.273 268.586 C 182.683 268.906,182.433 269.175,182.718 269.184 C 183.331 269.203,185.200 267.421,185.200 266.818 C 185.200 266.133,184.872 266.342,184.599 267.202 M152.514 268.680 C 152.027 269.186,151.774 269.600,151.952 269.600 C 152.342 269.600,153.798 268.045,153.564 267.877 C 153.474 267.813,153.001 268.174,152.514 268.680 M171.200 278.340 C 171.200 279.140,173.090 280.800,174.000 280.800 C 174.910 280.800,176.800 279.140,176.800 278.340 C 176.800 278.067,176.170 278.454,175.400 279.200 L 174.000 280.557 172.600 279.200 C 171.830 278.454,171.200 278.067,171.200 278.340 M173.520 278.480 C 173.893 278.853,174.107 278.853,174.480 278.480 C 174.853 278.107,174.747 278.000,174.000 278.000 C 173.253 278.000,173.147 278.107,173.520 278.480 M156.741 283.609 C 156.194 283.929,154.204 286.800,154.530 286.800 C 154.587 286.800,155.428 285.990,156.400 285.000 C 158.072 283.296,158.205 282.754,156.741 283.609 " stroke="none" fill="#7c7c7c" fill-rule="evenodd"></path><path id="path4" d="M183.143 118.900 C 182.795 121.954,182.852 122.171,184.375 123.590 C 185.206 124.366,186.102 125.661,186.364 126.468 C 186.913 128.158,187.497 128.736,189.074 129.152 C 189.810 129.346,190.477 129.974,191.000 130.962 C 191.483 131.875,192.308 132.686,193.084 133.011 C 193.929 133.364,194.573 134.040,194.969 134.988 C 195.388 135.990,196.007 136.611,197.003 137.027 C 198.455 137.634,198.550 137.762,198.968 139.676 C 199.098 140.268,199.850 141.363,200.641 142.109 C 202.164 143.546,202.620 145.582,203.425 154.533 C 203.622 156.724,203.883 157.504,204.741 158.465 L 205.812 159.663 206.806 158.882 C 207.353 158.453,208.790 157.974,210.000 157.818 C 213.908 157.314,216.294 156.523,217.971 155.175 C 220.602 153.061,225.512 152.921,227.871 154.892 C 229.357 156.133,230.728 156.684,234.052 157.373 C 235.238 157.619,238.923 161.104,239.809 162.818 C 240.129 163.437,240.734 164.052,241.153 164.185 C 242.688 164.672,242.975 166.495,242.930 175.500 C 242.875 186.503,242.295 185.687,250.227 185.769 L 256.200 185.831 258.200 187.110 C 259.300 187.814,261.546 188.731,263.192 189.147 C 265.887 189.830,266.236 190.032,266.704 191.178 C 267.052 192.033,267.711 192.654,268.711 193.070 C 270.411 193.778,270.785 194.220,270.794 195.529 C 270.798 196.099,271.406 197.002,272.366 197.864 C 273.227 198.638,274.149 199.794,274.415 200.435 C 274.680 201.076,275.065 201.600,275.269 201.600 C 275.474 201.600,275.831 202.144,276.063 202.808 C 276.295 203.473,276.870 204.233,277.342 204.497 C 278.221 204.989,281.600 205.981,281.600 205.746 C 281.600 205.675,280.835 205.232,279.900 204.761 C 277.865 203.738,274.950 200.630,274.594 199.105 C 274.454 198.503,273.792 197.622,273.124 197.146 C 272.456 196.670,271.653 195.668,271.340 194.918 C 271.026 194.167,270.161 193.196,269.410 192.753 C 268.662 192.312,267.695 191.349,267.262 190.615 C 266.717 189.691,266.062 189.191,265.137 188.992 C 264.402 188.833,262.572 187.990,261.071 187.117 L 258.341 185.531 252.871 185.331 C 243.678 184.995,243.229 184.630,243.936 178.075 C 244.735 170.679,243.271 163.955,240.351 161.609 C 239.456 160.890,238.550 159.801,238.337 159.191 C 238.010 158.253,237.395 157.880,234.401 156.800 C 232.449 156.097,230.556 155.193,230.193 154.792 C 228.288 152.687,219.160 152.646,216.518 154.732 C 213.960 156.751,209.762 157.715,206.884 156.944 C 205.703 156.627,204.918 155.074,204.237 151.704 C 202.232 141.780,202.289 141.975,201.177 141.184 C 200.588 140.764,199.862 139.832,199.563 139.112 C 199.011 137.778,190.428 128.800,189.705 128.800 C 188.755 128.800,187.211 127.042,186.629 125.295 C 186.194 123.993,185.629 123.191,184.821 122.732 C 183.767 122.132,183.655 121.877,183.723 120.232 C 183.790 118.645,183.300 117.521,183.143 118.900 M128.576 140.826 C 127.806 141.629,127.648 141.957,128.117 141.776 C 128.511 141.625,128.804 141.659,128.769 141.851 C 128.621 142.661,128.835 142.822,129.362 142.295 C 129.761 141.897,130.112 139.604,129.775 139.600 C 129.761 139.600,129.221 140.152,128.576 140.826 M118.400 162.797 C 118.070 163.009,117.485 163.084,117.100 162.964 C 116.715 162.844,116.400 162.943,116.400 163.183 C 116.400 163.666,118.387 164.546,118.722 164.211 C 118.838 164.095,118.695 164.000,118.405 164.000 C 118.032 164.000,118.089 163.765,118.600 163.200 C 119.391 162.326,119.329 162.201,118.400 162.797 M114.806 164.700 C 114.809 164.865,114.980 165.265,115.184 165.588 C 115.645 166.317,116.186 165.861,115.862 165.017 C 115.623 164.394,114.795 164.145,114.806 164.700 M92.400 179.213 C 92.400 179.728,93.540 180.194,93.906 179.828 C 94.055 179.679,93.912 179.389,93.588 179.184 C 92.814 178.695,92.400 178.705,92.400 179.213 M90.957 181.033 C 91.091 181.381,91.205 181.966,91.212 182.333 C 91.223 182.921,91.274 182.915,91.646 182.276 C 92.122 181.456,91.855 180.400,91.170 180.400 C 90.919 180.400,90.823 180.684,90.957 181.033 M149.692 226.778 C 147.520 227.131,147.326 227.345,146.579 230.221 C 146.151 231.870,145.536 233.037,144.575 234.023 C 143.170 235.464,142.378 237.372,142.427 239.197 C 142.448 239.984,142.562 239.855,142.957 238.600 C 143.690 236.271,144.298 235.286,145.177 235.007 C 145.703 234.841,146.169 234.023,146.616 232.486 C 147.601 229.099,148.229 228.115,149.693 227.667 C 153.831 226.402,156.271 226.798,158.463 229.091 C 160.635 231.363,160.934 232.214,161.239 237.000 L 161.521 241.400 161.445 236.200 C 161.318 227.419,158.692 225.314,149.692 226.778 M264.400 239.389 C 264.400 239.739,264.009 240.170,263.532 240.347 C 263.053 240.524,262.848 240.782,263.073 240.922 C 263.299 241.061,263.883 240.750,264.372 240.230 C 264.941 239.624,265.106 239.189,264.830 239.019 C 264.592 238.872,264.400 239.037,264.400 239.389 " stroke="none" fill="#e4e4e4" fill-rule="evenodd"></path></g></svg>