<svg id="svg" version="1.1" xmlns="http://www.w3.org/2000/svg" xmlns:xlink="http://www.w3.org/1999/xlink" width="400" height="400" viewBox="0, 0, 400,400"><g id="svgg"><path id="path0" d="M160.227 229.033 C 158.016 229.842,157.349 230.564,155.810 233.806 C 155.067 235.372,154.164 236.898,153.803 237.197 C 153.442 237.497,152.869 238.295,152.528 238.971 C 152.187 239.647,151.468 240.672,150.929 241.249 C 150.139 242.094,149.973 242.637,150.074 244.049 L 150.200 245.800 152.100 245.922 L 154.000 246.044 154.000 247.542 C 154.000 249.851,154.364 250.000,160.000 250.000 C 165.624 250.000,166.000 249.848,166.000 247.573 C 166.000 246.158,166.059 246.097,167.633 245.886 C 170.028 245.565,171.223 242.394,169.145 241.872 C 166.848 241.295,166.600 240.773,166.600 236.502 C 166.600 231.997,164.218 227.888,161.920 228.428 C 161.854 228.444,161.092 228.716,160.227 229.033 M214.480 242.480 C 214.216 242.744,214.000 243.644,214.000 244.480 C 214.000 245.944,213.950 246.000,212.629 246.000 C 210.089 246.000,209.969 246.403,210.091 254.537 L 210.200 261.800 212.079 261.921 L 213.958 262.042 214.079 263.921 L 214.200 265.800 219.545 265.912 C 225.588 266.038,226.000 265.888,226.000 263.551 C 226.000 262.051,226.045 262.000,227.371 262.000 C 229.911 262.000,230.031 261.597,229.909 253.463 L 229.800 246.200 227.900 246.078 L 226.000 245.956 226.000 244.458 C 226.000 242.149,225.636 242.000,220.000 242.000 C 216.613 242.000,214.803 242.157,214.480 242.480 M176.800 250.562 C 174.786 251.283,174.258 252.656,174.072 257.656 L 173.915 261.911 172.345 262.162 C 170.201 262.505,170.000 263.227,170.000 270.597 C 170.000 275.412,170.125 276.868,170.576 277.319 C 171.077 277.820,170.894 277.925,169.166 278.129 C 166.577 278.436,166.493 278.506,166.178 280.609 C 165.933 282.243,165.810 282.400,164.783 282.400 C 162.434 282.400,161.799 284.849,162.061 292.893 C 162.228 297.999,162.030 297.767,166.385 297.938 L 169.905 298.076 170.119 299.671 C 170.404 301.800,170.405 301.800,174.000 301.800 C 177.599 301.800,177.595 301.802,177.884 299.653 C 178.098 298.054,178.117 298.039,179.950 297.920 L 181.800 297.800 181.911 290.200 C 181.986 285.118,181.871 282.269,181.565 281.600 C 180.492 279.255,180.627 279.389,178.400 278.468 C 177.643 278.155,178.813 278.048,183.220 278.027 C 190.228 277.994,190.000 278.146,190.000 273.520 L 190.000 270.000 191.371 270.000 C 193.932 270.000,194.000 269.742,194.000 260.000 C 194.000 252.585,193.905 251.162,193.371 250.629 C 192.556 249.814,179.043 249.759,176.800 250.562 M142.480 254.480 C 142.179 254.781,142.000 256.276,142.000 258.480 L 142.000 262.000 140.449 262.000 C 137.991 262.000,137.973 262.081,138.093 272.450 L 138.200 281.800 140.052 281.920 C 141.875 282.038,141.908 282.065,142.159 283.632 C 142.500 285.766,143.545 286.154,148.121 285.844 C 153.290 285.494,153.496 285.310,153.887 280.700 L 154.116 278.000 155.578 278.000 C 157.728 278.000,158.000 277.502,158.000 273.573 L 158.000 270.105 159.633 269.886 C 161.851 269.589,161.783 269.756,161.931 264.228 C 162.080 258.666,161.807 258.000,159.371 258.000 C 158.076 258.000,158.000 257.924,158.000 256.629 C 158.000 254.143,157.557 254.000,149.851 254.000 C 145.025 254.000,142.816 254.144,142.480 254.480 M204.182 276.182 C 203.642 276.722,203.200 277.330,203.200 277.532 C 203.200 277.735,202.210 277.983,201.000 278.083 C 198.162 278.319,198.224 278.224,198.061 282.633 C 197.930 286.212,197.879 286.400,197.038 286.400 C 194.652 286.400,194.023 288.326,194.010 295.671 C 193.997 302.563,193.113 302.040,204.536 301.907 L 213.800 301.800 213.914 297.900 L 214.029 294.000 215.566 294.000 C 217.960 294.000,218.031 293.745,217.909 285.548 L 217.800 278.200 213.300 278.087 C 210.603 278.019,208.800 277.811,208.800 277.569 C 208.800 276.843,206.858 275.200,206.000 275.200 C 205.540 275.200,204.722 275.642,204.182 276.182 M207.208 277.010 C 207.486 277.345,207.603 277.731,207.467 277.867 C 207.331 278.003,206.945 277.886,206.610 277.608 C 206.118 277.200,205.882 277.200,205.390 277.608 C 205.055 277.886,204.669 278.003,204.533 277.867 C 204.144 277.478,205.222 276.400,206.000 276.400 C 206.386 276.400,206.930 276.674,207.208 277.010 " stroke="none" fill="#404041" fill-rule="evenodd"></path><path id="path1" d="M162.413 114.585 C 162.154 114.897,161.975 115.478,162.017 115.876 C 162.234 117.964,162.234 117.964,158.100 118.086 L 154.200 118.200 154.078 120.100 C 153.943 122.210,153.988 122.192,149.300 122.007 C 147.824 121.948,147.600 122.049,147.600 122.770 C 147.600 123.333,147.343 123.600,146.800 123.600 C 146.178 123.600,146.000 123.867,146.000 124.800 C 146.000 125.804,145.841 126.000,145.028 126.000 C 144.324 126.000,144.020 126.249,143.928 126.900 C 143.848 127.466,143.479 127.846,142.935 127.923 C 142.143 128.036,142.071 128.281,142.071 130.855 C 142.071 134.167,142.225 133.928,139.987 134.084 L 138.200 134.209 138.074 136.604 C 138.004 137.922,137.745 139.072,137.497 139.159 C 137.095 139.301,136.519 139.868,134.598 142.009 C 134.171 142.485,134.044 144.704,134.015 152.187 C 133.995 157.449,133.924 161.810,133.857 161.876 C 133.791 161.942,130.546 162.007,126.646 162.020 C 118.747 162.047,118.000 162.287,118.000 164.800 C 118.000 166.083,117.297 166.235,112.370 166.013 C 110.573 165.932,109.858 166.736,110.075 168.594 C 110.235 169.962,110.201 170.001,108.820 170.046 C 105.919 170.140,106.146 169.925,106.046 172.678 C 106.002 173.911,105.934 173.960,104.100 174.078 L 102.200 174.200 102.000 176.200 L 101.800 178.200 100.000 178.200 L 98.200 178.200 98.101 181.966 C 97.986 186.333,98.095 186.125,95.899 186.167 L 94.200 186.200 94.200 202.000 L 94.200 217.800 95.925 217.858 C 98.137 217.932,98.034 217.747,98.042 221.640 C 98.051 225.494,98.330 226.000,100.449 226.000 C 101.945 226.000,102.002 226.049,102.050 227.400 C 102.146 230.090,101.911 229.853,104.578 229.950 C 105.930 229.999,105.958 230.036,106.078 231.900 L 106.200 233.800 108.218 233.918 L 110.235 234.036 110.073 235.424 C 109.819 237.604,110.365 237.927,114.307 237.927 C 116.457 237.927,117.831 238.093,117.921 238.364 C 118.001 238.604,118.457 238.821,118.933 238.846 C 119.610 238.883,119.646 238.933,119.100 239.076 C 118.296 239.286,118.174 240.414,118.880 241.120 C 119.586 241.826,120.714 241.704,120.924 240.900 C 121.063 240.367,121.118 240.413,121.154 241.090 L 121.200 241.980 135.696 241.890 L 150.191 241.800 150.721 239.342 C 151.087 237.646,151.660 236.406,152.570 235.342 C 153.296 234.494,154.455 232.679,155.146 231.308 C 156.686 228.256,157.572 227.642,160.845 227.360 C 166.319 226.888,168.146 229.012,168.746 236.542 C 168.954 239.150,169.290 241.450,169.492 241.652 C 169.713 241.873,190.058 241.976,220.448 241.910 C 276.718 241.788,272.903 241.984,273.464 239.182 C 273.671 238.145,273.878 237.994,275.150 237.954 C 278.088 237.860,277.855 238.080,277.954 235.300 C 278.000 234.011,278.017 234.000,280.024 234.000 C 281.137 234.000,281.959 233.858,281.852 233.684 C 281.744 233.510,282.232 233.434,282.936 233.517 C 284.618 233.713,285.767 232.522,285.520 230.837 C 285.424 230.180,285.492 229.733,285.672 229.845 C 285.853 229.956,286.000 229.137,286.000 228.024 C 286.000 226.377,286.130 225.993,286.700 225.963 C 290.285 225.775,289.892 226.474,289.963 220.164 C 289.998 217.132,290.062 216.900,290.984 216.480 C 292.927 215.595,294.420 211.073,292.900 210.676 C 292.373 210.538,292.423 210.481,293.100 210.446 C 293.595 210.421,294.000 210.220,294.000 210.000 C 294.000 209.780,293.595 209.579,293.100 209.554 C 292.347 209.515,292.323 209.476,292.951 209.314 C 294.657 208.877,293.008 203.468,291.016 202.968 C 290.208 202.766,290.022 202.441,289.921 201.062 L 289.800 199.400 287.861 199.276 C 285.649 199.136,284.648 198.279,282.982 195.100 C 282.435 194.055,281.774 193.200,281.515 193.200 C 280.867 193.200,278.800 191.169,278.800 190.532 C 278.800 190.247,277.945 189.578,276.900 189.046 C 275.855 188.514,274.550 187.594,274.000 187.002 C 271.912 184.752,268.742 183.996,260.800 183.854 C 257.413 183.794,256.378 183.631,255.454 183.013 L 254.308 182.248 254.610 178.824 C 255.240 171.679,255.036 169.419,253.478 166.259 C 252.702 164.687,251.848 162.809,251.580 162.087 C 251.138 160.897,245.029 154.696,243.000 153.377 C 238.850 150.679,222.986 151.621,219.930 154.747 C 218.545 156.164,218.051 156.254,216.386 155.393 C 215.085 154.720,214.983 154.423,214.457 149.725 C 214.215 147.562,213.818 146.068,213.290 145.325 C 212.851 144.706,211.947 142.799,211.283 141.087 C 210.578 139.269,209.657 137.645,209.069 137.182 C 208.515 136.747,207.942 135.849,207.797 135.187 C 207.634 134.444,206.844 133.413,205.732 132.492 C 204.741 131.671,203.579 130.317,203.148 129.483 C 202.718 128.648,201.924 127.580,201.383 127.110 C 200.667 126.488,200.400 125.850,200.400 124.761 C 200.400 122.663,200.059 122.000,198.979 122.000 C 198.147 122.000,198.030 121.790,197.922 120.100 L 197.800 118.200 195.700 118.079 C 193.612 117.959,193.600 117.951,193.600 116.628 C 193.600 114.186,193.747 114.209,177.581 114.109 C 165.298 114.032,162.806 114.110,162.413 114.585 M142.667 126.667 C 142.206 127.127,142.375 127.600,143.000 127.600 C 143.330 127.600,143.600 127.330,143.600 127.000 C 143.600 126.375,143.127 126.206,142.667 126.667 M204.792 277.010 C 204.135 277.801,204.599 278.265,205.390 277.608 C 205.882 277.200,206.118 277.200,206.610 277.608 C 206.945 277.886,207.331 278.003,207.467 277.867 C 207.856 277.478,206.778 276.400,206.000 276.400 C 205.614 276.400,205.070 276.674,204.792 277.010 " stroke="none" fill="#f4f4f4" fill-rule="evenodd"></path><path id="path2" d="M227.800 98.306 C 228.020 98.468,228.560 99.030,229.000 99.557 L 229.800 100.513 228.918 99.972 C 227.784 99.276,227.276 99.784,227.972 100.918 L 228.513 101.800 227.557 101.000 C 227.030 100.560,226.468 100.020,226.306 99.800 C 226.144 99.580,226.009 99.903,226.006 100.518 C 226.002 101.338,226.175 101.604,226.659 101.518 C 227.021 101.453,227.396 101.625,227.492 101.900 C 227.603 102.219,227.437 102.312,227.033 102.157 C 226.685 102.024,226.400 102.114,226.400 102.357 C 226.400 102.601,226.209 102.800,225.976 102.800 C 225.743 102.800,225.652 102.639,225.774 102.442 C 225.895 102.246,225.563 102.111,225.036 102.142 C 224.508 102.174,224.160 102.335,224.262 102.500 C 224.364 102.665,224.257 102.800,224.024 102.800 C 223.791 102.800,223.600 102.665,223.600 102.500 C 223.599 101.927,221.396 102.070,220.708 102.688 C 220.082 103.250,219.993 103.247,219.766 102.654 C 219.627 102.295,219.359 102.000,219.170 102.000 C 218.980 102.000,218.941 102.301,219.082 102.669 C 219.277 103.177,219.177 103.277,218.669 103.082 C 217.826 102.758,217.800 103.166,218.625 103.769 C 219.160 104.160,218.857 104.616,216.525 106.921 C 214.314 109.108,213.913 109.688,214.400 109.998 C 214.827 110.270,214.601 110.331,213.618 110.209 C 212.858 110.115,211.990 110.243,211.688 110.493 C 211.270 110.840,211.055 110.812,210.785 110.376 C 210.491 109.901,210.330 109.939,209.829 110.602 C 209.464 111.085,209.220 111.193,209.213 110.876 C 209.206 110.588,209.020 110.464,208.800 110.600 C 208.580 110.736,208.400 110.657,208.400 110.424 C 208.400 110.191,208.124 110.000,207.786 110.000 C 207.287 110.000,207.256 110.157,207.618 110.834 C 208.187 111.897,207.897 112.187,206.834 111.618 C 206.157 111.256,206.000 111.287,206.000 111.786 C 206.000 112.124,206.191 112.400,206.424 112.400 C 206.657 112.400,206.736 112.580,206.600 112.800 C 206.464 113.020,206.538 113.200,206.764 113.200 C 206.990 113.200,207.078 113.451,206.961 113.758 C 206.808 114.155,206.304 114.257,205.220 114.112 C 202.312 113.722,200.467 119.739,202.621 122.588 C 202.948 123.021,203.391 124.023,203.604 124.814 C 203.846 125.713,205.004 127.322,206.696 129.110 C 211.278 133.952,212.393 135.430,212.998 137.470 C 213.384 138.768,213.988 139.737,214.776 140.319 C 216.270 141.423,217.198 144.346,217.206 147.973 C 217.215 151.650,217.383 151.818,220.134 150.889 C 221.375 150.470,222.823 149.661,223.352 149.090 C 225.608 146.656,239.420 146.686,241.936 149.131 C 242.541 149.719,244.083 150.551,245.363 150.980 C 247.077 151.555,247.804 152.029,248.122 152.780 C 248.741 154.246,250.031 155.600,250.808 155.600 C 251.580 155.600,252.448 156.537,253.104 158.079 C 253.357 158.672,254.004 159.446,254.541 159.798 C 255.787 160.615,256.186 161.647,257.225 166.755 C 257.731 169.241,258.363 171.223,258.798 171.690 C 259.985 172.964,260.064 173.988,259.013 174.467 C 257.557 175.130,256.686 177.785,257.506 179.055 C 257.694 179.346,259.894 179.575,263.600 179.691 C 269.816 179.885,270.637 180.056,271.010 181.230 C 271.170 181.736,272.070 182.234,273.725 182.733 C 275.800 183.360,276.313 183.700,276.897 184.840 C 277.347 185.718,278.150 186.437,279.160 186.868 C 280.305 187.356,280.858 187.904,281.221 188.909 C 281.575 189.886,282.097 190.419,283.033 190.758 C 284.027 191.117,284.464 191.596,284.819 192.717 C 285.502 194.872,286.313 196.000,287.179 196.000 C 287.597 196.000,288.486 196.461,289.155 197.024 C 290.125 197.840,290.719 198.022,292.086 197.924 L 293.800 197.800 294.000 195.800 C 294.123 194.573,294.393 193.800,294.700 193.800 C 294.975 193.800,295.200 193.620,295.200 193.400 C 295.200 193.180,294.990 193.000,294.733 193.000 C 294.477 193.000,294.193 192.730,294.103 192.400 C 293.957 191.867,293.986 191.867,294.363 192.400 C 294.755 192.954,294.983 192.685,294.831 191.851 C 294.796 191.659,295.035 191.605,295.363 191.731 C 295.772 191.888,295.888 191.772,295.731 191.363 C 295.605 191.035,295.659 190.796,295.851 190.831 C 296.685 190.983,296.954 190.755,296.400 190.363 C 295.867 189.986,295.867 189.957,296.400 190.103 C 296.730 190.193,297.000 190.477,297.000 190.733 C 297.000 190.990,297.180 191.155,297.400 191.100 C 297.620 191.045,297.775 190.775,297.744 190.500 C 297.714 190.225,298.050 190.000,298.491 190.000 C 299.096 190.000,299.242 189.804,299.084 189.200 C 298.969 188.761,299.066 188.283,299.299 188.139 C 299.549 187.984,299.606 188.067,299.438 188.338 C 299.062 188.946,299.707 188.933,300.320 188.320 C 300.933 187.707,300.946 187.062,300.338 187.438 C 300.067 187.606,299.984 187.549,300.139 187.299 C 300.283 187.066,300.761 186.969,301.200 187.084 C 302.121 187.325,302.338 186.098,301.520 185.280 C 301.224 184.984,301.201 184.800,301.459 184.800 C 301.690 184.800,301.894 184.257,301.913 183.593 C 301.936 182.764,301.799 182.475,301.473 182.670 C 301.132 182.874,301.137 182.784,301.490 182.347 C 301.817 181.943,301.850 181.585,301.587 181.274 C 301.371 181.017,301.308 180.888,301.447 180.987 C 301.872 181.289,303.949 180.042,304.388 179.222 C 305.099 177.893,304.841 177.871,303.640 179.158 C 302.448 180.434,301.005 180.999,302.000 179.800 C 302.281 179.461,302.323 179.200,302.096 179.200 C 301.874 179.200,301.607 178.750,301.502 178.200 C 301.371 177.513,301.489 177.200,301.879 177.200 C 302.207 177.200,302.326 177.004,302.162 176.738 C 301.984 176.450,302.052 176.385,302.345 176.566 C 302.602 176.725,302.710 177.022,302.585 177.225 C 302.459 177.428,302.771 177.579,303.278 177.559 C 303.785 177.540,304.605 177.620,305.100 177.739 C 306.081 177.973,306.357 177.312,305.427 176.955 C 305.112 176.834,304.880 176.402,304.910 175.995 C 304.941 175.588,305.112 175.345,305.290 175.455 C 305.467 175.565,305.509 175.823,305.383 176.028 C 305.256 176.232,305.343 176.400,305.576 176.400 C 306.281 176.400,306.051 175.256,305.261 174.833 C 304.748 174.558,304.375 174.584,304.038 174.919 C 303.659 175.295,303.611 175.248,303.818 174.703 C 303.998 174.229,304.358 174.074,304.942 174.220 C 305.717 174.414,305.808 174.260,305.880 172.618 C 305.924 171.618,305.783 170.800,305.566 170.800 C 305.312 170.800,305.316 170.530,305.579 170.039 C 306.035 169.188,306.126 144.000,305.673 144.000 C 305.523 144.000,305.374 143.551,305.342 143.002 C 305.311 142.454,305.446 142.105,305.642 142.226 C 305.839 142.348,306.000 142.087,306.000 141.647 C 306.000 141.207,305.811 140.731,305.581 140.588 C 305.294 140.411,305.309 140.150,305.630 139.764 C 305.990 139.330,305.983 139.200,305.600 139.200 C 305.224 139.200,305.213 139.066,305.556 138.653 C 306.503 137.512,304.671 133.898,303.352 134.307 C 302.501 134.571,301.737 133.313,301.853 131.841 C 301.915 131.048,301.792 130.400,301.580 130.400 C 301.367 130.400,301.420 130.016,301.697 129.548 C 302.109 128.850,302.100 128.660,301.650 128.498 C 300.942 128.243,299.757 127.058,299.502 126.350 C 299.342 125.903,299.147 125.893,298.467 126.294 C 297.762 126.710,297.666 126.694,297.858 126.194 C 297.983 125.867,297.886 125.600,297.643 125.600 C 297.399 125.600,297.200 125.409,297.200 125.176 C 297.200 124.943,297.384 124.866,297.609 125.005 C 297.860 125.161,297.980 124.773,297.921 123.996 C 297.832 122.828,297.736 122.750,296.612 122.940 C 295.946 123.053,295.625 123.053,295.900 122.940 C 296.757 122.586,296.454 121.730,295.029 120.479 C 293.684 119.298,293.583 118.800,294.690 118.800 C 295.009 118.800,295.125 118.997,294.962 119.262 C 294.781 119.554,294.852 119.615,295.156 119.427 C 295.792 119.034,296.894 119.979,296.623 120.685 C 296.505 120.991,296.587 121.132,296.805 120.997 C 297.022 120.863,297.200 121.023,297.200 121.353 C 297.200 121.683,297.368 122.057,297.574 122.184 C 297.806 122.327,297.808 121.918,297.580 121.108 C 297.111 119.446,295.726 118.283,294.494 118.518 C 293.855 118.640,293.615 118.538,293.746 118.198 C 293.851 117.923,293.737 117.497,293.493 117.253 C 292.808 116.568,292.764 115.501,293.431 115.756 C 294.123 116.022,294.184 115.144,293.520 114.480 C 292.856 113.816,291.978 113.877,292.244 114.569 C 292.499 115.236,291.432 115.192,290.747 114.507 C 290.503 114.263,290.054 114.158,289.751 114.274 C 289.448 114.390,289.200 114.276,289.200 114.019 C 289.200 113.763,289.380 113.664,289.600 113.800 C 289.820 113.936,290.000 113.867,290.000 113.647 C 290.000 113.427,289.801 113.124,289.557 112.974 C 289.314 112.823,289.269 112.588,289.457 112.450 C 289.646 112.313,289.305 111.716,288.700 111.126 C 288.095 110.535,287.600 110.224,287.600 110.435 C 287.600 110.646,287.105 110.502,286.500 110.116 C 285.671 109.587,285.517 109.563,285.876 110.019 C 286.277 110.529,286.183 110.616,285.276 110.568 C 284.545 110.531,284.218 110.303,284.255 109.861 C 284.285 109.502,284.174 109.292,284.008 109.395 C 283.563 109.670,282.347 108.191,282.699 107.803 C 282.865 107.621,282.775 107.601,282.500 107.759 C 282.225 107.918,282.000 107.872,282.000 107.657 C 282.000 107.442,282.225 107.176,282.500 107.065 C 282.885 106.910,282.879 106.856,282.476 106.832 C 282.188 106.814,282.064 106.620,282.200 106.400 C 282.336 106.180,282.249 106.000,282.006 106.000 C 281.763 106.000,281.594 106.225,281.630 106.500 C 281.810 107.887,281.616 108.029,280.400 107.400 C 279.740 107.059,279.200 106.604,279.200 106.390 C 279.200 106.175,278.885 106.003,278.500 106.006 C 277.896 106.011,277.882 106.070,278.400 106.437 C 278.933 106.814,278.933 106.842,278.400 106.688 C 278.019 106.579,277.842 106.130,277.915 105.458 C 277.978 104.876,277.833 104.400,277.592 104.400 C 277.350 104.400,277.256 104.568,277.383 104.772 C 277.509 104.977,277.458 105.240,277.269 105.357 C 277.080 105.474,276.949 105.115,276.979 104.560 C 277.009 104.005,277.294 103.389,277.613 103.192 C 278.085 102.900,278.098 102.738,277.680 102.320 C 277.262 101.902,277.100 101.915,276.808 102.387 C 276.611 102.706,275.995 102.991,275.440 103.021 C 274.885 103.051,274.526 102.920,274.643 102.731 C 274.760 102.542,275.023 102.491,275.228 102.617 C 275.432 102.744,275.600 102.681,275.600 102.478 C 275.600 102.275,274.878 102.109,273.996 102.109 C 272.601 102.109,272.458 102.189,272.896 102.724 C 273.286 103.200,273.157 103.182,272.331 102.644 C 271.743 102.261,270.663 101.931,269.931 101.909 C 269.199 101.887,268.833 101.792,269.117 101.696 C 269.539 101.554,269.539 101.406,269.117 100.886 C 268.676 100.343,268.702 100.289,269.300 100.513 C 269.827 100.710,270.000 100.568,270.000 99.938 C 270.000 99.227,269.907 99.179,269.377 99.619 C 268.863 100.046,268.776 100.037,268.877 99.568 C 268.946 99.249,268.751 99.054,268.432 99.123 C 267.963 99.224,267.954 99.137,268.381 98.623 C 268.821 98.093,268.773 98.000,268.062 98.000 C 267.434 98.000,267.289 98.175,267.480 98.700 C 267.706 99.320,267.634 99.311,266.851 98.622 C 265.974 97.852,265.968 97.852,266.258 98.622 C 266.524 99.332,266.486 99.348,265.821 98.807 C 265.020 98.154,258.400 97.793,258.400 98.402 C 258.400 98.590,257.876 98.594,257.236 98.410 C 255.658 97.958,240.813 97.937,239.250 98.386 C 238.489 98.604,238.000 98.599,238.000 98.372 C 238.000 97.892,235.977 97.900,235.213 98.383 C 234.891 98.587,234.441 98.615,234.213 98.445 C 233.845 98.169,232.911 98.140,230.700 98.338 C 230.315 98.372,230.000 98.681,230.000 99.024 C 230.000 99.367,229.828 99.541,229.617 99.411 C 229.407 99.281,229.336 98.910,229.460 98.587 C 229.626 98.155,229.385 98.002,228.543 98.006 C 227.914 98.009,227.580 98.144,227.800 98.306 M226.400 98.800 C 226.400 99.020,226.591 99.200,226.824 99.200 C 227.057 99.200,227.112 99.425,226.947 99.700 C 226.743 100.040,226.863 100.024,227.323 99.651 C 228.056 99.057,228.251 98.598,227.600 99.000 C 227.380 99.136,227.200 99.057,227.200 98.824 C 227.200 98.591,227.020 98.400,226.800 98.400 C 226.580 98.400,226.400 98.580,226.400 98.800 M214.800 106.811 C 214.470 107.172,214.152 107.684,214.094 107.950 C 213.938 108.667,215.483 107.766,215.969 106.857 C 216.470 105.921,215.645 105.888,214.800 106.811 M284.514 107.300 C 285.001 107.795,285.462 108.059,285.538 107.887 C 285.739 107.428,284.790 106.400,284.165 106.400 C 283.820 106.400,283.944 106.721,284.514 107.300 M283.373 107.894 C 283.424 108.246,283.754 108.576,284.106 108.627 C 284.857 108.738,284.610 107.766,283.809 107.459 C 283.488 107.336,283.316 107.507,283.373 107.894 M282.960 109.167 C 283.654 109.743,283.854 110.604,283.200 110.200 C 282.980 110.064,282.786 110.188,282.768 110.476 C 282.747 110.833,282.667 110.809,282.516 110.400 C 282.395 110.070,282.034 109.499,281.713 109.130 C 280.978 108.285,281.931 108.313,282.960 109.167 M281.783 109.572 C 282.184 110.221,281.313 110.418,280.796 109.796 C 280.394 109.311,280.419 109.200,280.927 109.200 C 281.271 109.200,281.656 109.368,281.783 109.572 M295.182 120.984 C 296.199 121.904,296.200 122.083,295.193 122.712 C 294.472 123.162,293.252 121.727,293.606 120.845 C 293.640 120.759,293.428 120.534,293.134 120.344 C 292.762 120.102,292.867 120.035,293.482 120.121 C 293.967 120.188,294.732 120.577,295.182 120.984 M300.640 126.640 C 300.313 127.493,300.507 127.687,301.360 127.360 C 302.069 127.088,302.048 126.349,301.324 126.108 C 301.090 126.030,300.782 126.270,300.640 126.640 M216.000 129.576 C 216.000 129.758,215.550 129.993,215.000 130.098 C 214.063 130.277,214.001 130.185,214.013 128.645 L 214.025 127.000 215.013 128.122 C 215.556 128.740,216.000 129.394,216.000 129.576 M218.480 134.480 C 218.107 134.853,218.000 134.747,218.000 134.000 C 218.000 133.253,218.107 133.147,218.480 133.520 C 218.853 133.893,218.853 134.107,218.480 134.480 M305.254 179.038 C 305.192 179.997,304.171 181.027,303.000 181.312 C 302.360 181.468,302.408 181.517,303.238 181.554 C 304.557 181.613,305.720 180.361,305.487 179.133 C 305.327 178.297,305.303 178.287,305.254 179.038 M283.572 180.570 C 284.666 181.734,284.376 182.400,282.776 182.400 C 281.751 182.400,281.600 182.254,281.600 181.267 C 281.600 179.348,282.219 179.130,283.572 180.570 M287.572 184.570 C 288.666 185.734,288.376 186.400,286.776 186.400 C 285.751 186.400,285.600 186.254,285.600 185.267 C 285.600 183.348,286.219 183.130,287.572 184.570 M291.600 188.811 C 291.600 189.326,291.796 189.500,292.200 189.345 C 292.530 189.218,292.800 189.324,292.800 189.581 C 292.800 189.837,293.008 189.919,293.262 189.762 C 293.516 189.605,293.617 189.648,293.487 189.858 C 293.184 190.349,290.133 190.538,289.852 190.084 C 289.531 189.564,290.038 187.977,290.445 188.228 C 290.640 188.349,290.800 188.246,290.800 188.000 C 290.800 187.754,290.980 187.664,291.200 187.800 C 291.420 187.936,291.600 188.391,291.600 188.811 M300.422 188.576 C 299.691 189.355,299.609 189.600,300.081 189.600 C 300.830 189.600,301.732 188.597,301.530 187.990 C 301.450 187.749,300.951 188.013,300.422 188.576 M296.163 192.175 C 295.909 192.454,296.011 192.830,296.462 193.273 C 296.974 193.777,297.238 193.827,297.509 193.473 C 298.005 192.826,296.708 191.575,296.163 192.175 " stroke="none" fill="#ec6a4a" fill-rule="evenodd"></path><path id="path3" d="M238.000 98.345 C 238.000 98.534,238.450 98.603,239.000 98.498 C 239.550 98.393,240.000 98.238,240.000 98.153 C 240.000 98.069,239.550 98.000,239.000 98.000 C 238.450 98.000,238.000 98.155,238.000 98.345 M256.400 98.153 C 256.400 98.238,256.850 98.393,257.400 98.498 C 257.950 98.603,258.400 98.534,258.400 98.345 C 258.400 98.155,257.950 98.000,257.400 98.000 C 256.850 98.000,256.400 98.069,256.400 98.153 M227.459 99.535 C 226.835 100.224,226.847 100.318,227.653 101.035 C 228.510 101.797,228.511 101.796,227.972 100.918 C 227.276 99.784,227.784 99.276,228.918 99.972 C 229.796 100.511,229.796 100.509,229.038 99.657 C 228.123 98.628,228.269 98.639,227.459 99.535 M226.191 102.009 C 225.783 102.461,225.674 102.800,225.938 102.800 C 226.192 102.800,226.400 102.601,226.400 102.357 C 226.400 102.114,226.670 102.018,227.000 102.145 C 227.330 102.271,227.600 102.211,227.600 102.011 C 227.600 101.251,226.879 101.250,226.191 102.009 M274.583 102.827 C 274.371 103.171,276.295 103.038,276.649 102.685 C 276.806 102.527,276.441 102.439,275.836 102.489 C 275.231 102.539,274.667 102.691,274.583 102.827 M277.160 103.300 C 276.986 103.739,276.971 105.562,277.143 105.390 C 277.446 105.088,277.679 103.200,277.414 103.200 C 277.296 103.200,277.182 103.245,277.160 103.300 M215.862 106.618 C 216.070 107.160,214.978 108.157,214.501 107.862 C 214.317 107.748,214.138 108.031,214.103 108.489 C 214.050 109.195,214.282 109.087,215.620 107.780 C 217.451 105.993,217.431 106.032,216.444 106.107 C 216.028 106.138,215.766 106.368,215.862 106.618 M279.200 106.390 C 279.200 107.066,281.505 108.069,281.737 107.494 C 281.888 107.121,281.945 107.129,281.968 107.524 C 281.987 107.826,282.211 107.926,282.500 107.759 C 282.775 107.601,282.865 107.621,282.699 107.803 C 282.347 108.191,283.563 109.670,284.008 109.395 C 284.174 109.292,284.285 109.502,284.255 109.861 C 284.218 110.302,284.545 110.531,285.269 110.568 C 285.857 110.599,286.252 110.483,286.146 110.312 C 286.040 110.140,285.722 110.000,285.441 110.000 C 285.159 110.000,284.727 109.559,284.482 109.019 C 284.101 108.185,281.991 106.671,281.133 106.617 C 280.987 106.608,280.732 106.465,280.567 106.300 C 280.135 105.869,279.200 105.930,279.200 106.390 M281.713 109.130 C 282.034 109.499,282.395 110.070,282.516 110.400 C 282.667 110.809,282.747 110.833,282.768 110.476 C 282.786 110.188,282.980 110.064,283.200 110.200 C 283.854 110.604,283.654 109.743,282.960 109.167 C 281.931 108.313,280.978 108.285,281.713 109.130 M280.796 109.796 C 281.068 110.123,281.453 110.291,281.652 110.168 C 282.162 109.852,281.674 109.200,280.927 109.200 C 280.419 109.200,280.394 109.311,280.796 109.796 M207.039 111.138 C 206.900 111.361,206.982 111.665,207.220 111.812 C 207.835 112.193,208.232 111.672,207.718 111.158 C 207.431 110.871,207.207 110.864,207.039 111.138 M290.945 114.678 C 291.377 115.111,292.400 115.171,292.400 114.765 C 292.400 114.564,292.010 114.400,291.533 114.400 C 291.057 114.400,290.792 114.525,290.945 114.678 M292.957 116.188 C 293.102 117.175,293.600 117.390,293.600 116.467 C 293.600 115.990,293.436 115.600,293.235 115.600 C 293.035 115.600,292.910 115.865,292.957 116.188 M293.200 120.400 C 293.530 120.613,293.620 120.795,293.400 120.803 C 293.180 120.811,293.450 121.189,294.000 121.644 C 294.550 122.098,294.775 122.353,294.500 122.211 C 294.225 122.069,294.000 122.133,294.000 122.353 C 294.000 123.038,294.578 123.151,295.317 122.611 C 296.060 122.068,294.267 119.990,293.069 120.006 C 292.797 120.010,292.852 120.175,293.200 120.400 M202.149 122.600 C 202.254 123.040,202.467 124.030,202.622 124.800 C 202.935 126.357,203.985 127.801,207.100 130.954 C 208.255 132.123,209.200 133.345,209.200 133.670 C 209.200 133.995,209.671 134.697,210.247 135.230 C 210.823 135.764,211.916 137.460,212.675 139.000 C 213.434 140.540,214.583 142.777,215.228 143.972 C 216.113 145.611,216.400 146.675,216.400 148.311 C 216.400 150.152,217.310 153.200,217.860 153.200 C 217.952 153.200,218.451 152.923,218.968 152.584 C 225.765 148.130,238.584 147.959,245.111 152.236 C 246.876 153.392,252.681 159.385,253.406 160.800 C 253.801 161.570,254.452 162.650,254.852 163.200 C 256.658 165.681,257.678 173.345,256.607 176.381 C 256.060 177.929,256.073 178.180,256.767 179.532 L 257.520 181.000 261.260 181.000 C 266.531 181.000,273.307 183.140,276.097 185.685 C 281.605 190.711,283.942 193.186,284.793 194.895 C 285.590 196.494,285.959 196.830,287.168 197.047 C 287.956 197.189,288.960 197.472,289.400 197.677 C 289.950 197.932,289.849 197.728,289.078 197.024 C 288.460 196.461,287.610 196.000,287.187 196.000 C 286.313 196.000,285.504 194.878,284.819 192.717 C 284.464 191.596,284.027 191.117,283.033 190.758 C 282.097 190.419,281.575 189.886,281.221 188.909 C 280.858 187.904,280.305 187.356,279.160 186.868 C 278.150 186.437,277.347 185.718,276.897 184.840 C 276.313 183.700,275.800 183.360,273.725 182.733 C 272.070 182.234,271.170 181.736,271.010 181.230 C 270.637 180.056,269.816 179.885,263.600 179.691 C 259.894 179.575,257.694 179.346,257.506 179.055 C 256.686 177.785,257.557 175.130,259.013 174.467 C 260.064 173.988,259.985 172.964,258.798 171.690 C 258.363 171.223,257.731 169.241,257.225 166.755 C 256.186 161.647,255.787 160.615,254.541 159.798 C 254.004 159.446,253.357 158.672,253.104 158.079 C 252.448 156.537,251.580 155.600,250.808 155.600 C 250.031 155.600,248.741 154.246,248.122 152.780 C 247.804 152.029,247.077 151.555,245.363 150.980 C 244.083 150.551,242.541 149.719,241.936 149.131 C 239.420 146.686,225.608 146.656,223.352 149.090 C 222.823 149.661,221.375 150.470,220.134 150.889 C 217.383 151.818,217.215 151.650,217.206 147.973 C 217.198 144.346,216.270 141.423,214.776 140.319 C 213.988 139.737,213.384 138.768,212.998 137.470 C 212.393 135.430,211.278 133.952,206.696 129.110 C 205.004 127.322,203.846 125.713,203.604 124.814 C 203.168 123.195,201.792 121.100,202.149 122.600 M296.013 122.691 C 295.489 123.282,295.503 123.323,296.146 123.076 C 296.542 122.924,297.041 122.800,297.256 122.800 C 297.471 122.800,297.536 122.620,297.400 122.400 C 297.057 121.845,296.698 121.921,296.013 122.691 M298.800 126.921 C 298.800 127.111,299.014 127.195,299.275 127.108 C 299.913 126.896,301.107 128.073,300.888 128.700 C 300.793 128.975,300.874 129.200,301.070 129.200 C 301.266 129.200,301.462 128.757,301.507 128.215 C 301.571 127.446,301.443 127.285,300.925 127.484 C 300.425 127.676,300.324 127.575,300.516 127.075 C 300.715 126.557,300.554 126.429,299.785 126.493 C 299.243 126.538,298.800 126.730,298.800 126.921 M214.013 128.645 C 214.001 130.185,214.063 130.277,215.000 130.098 C 216.251 129.859,216.253 129.532,215.013 128.122 L 214.025 127.000 214.013 128.645 M218.000 134.000 C 218.000 134.747,218.107 134.853,218.480 134.480 C 218.853 134.107,218.853 133.893,218.480 133.520 C 218.107 133.147,218.000 133.253,218.000 134.000 M305.342 143.002 C 305.374 143.551,305.535 144.000,305.700 144.000 C 306.123 144.000,306.075 142.493,305.642 142.226 C 305.446 142.105,305.311 142.454,305.342 143.002 M303.828 174.677 C 303.613 175.242,303.659 175.295,304.038 174.919 C 304.375 174.584,304.748 174.558,305.261 174.833 C 305.758 175.099,306.000 175.093,306.000 174.814 C 306.000 174.586,305.835 174.400,305.633 174.400 C 305.431 174.400,305.004 174.300,304.684 174.177 C 304.346 174.047,303.988 174.256,303.828 174.677 M302.162 176.738 C 302.326 177.004,302.207 177.200,301.879 177.200 C 301.489 177.200,301.371 177.513,301.502 178.200 C 301.607 178.750,301.874 179.200,302.096 179.200 C 302.323 179.200,302.281 179.461,302.000 179.800 C 300.995 181.010,302.454 180.427,303.660 179.136 C 304.905 177.803,304.661 177.102,303.093 177.512 C 302.565 177.650,302.370 177.572,302.544 177.291 C 302.692 177.051,302.602 176.725,302.345 176.566 C 302.052 176.385,301.984 176.450,302.162 176.738 M281.867 179.867 C 281.018 180.715,281.623 182.400,282.776 182.400 C 284.376 182.400,284.666 181.734,283.572 180.570 C 282.617 179.554,282.307 179.426,281.867 179.867 M285.867 183.867 C 285.018 184.715,285.623 186.400,286.776 186.400 C 288.376 186.400,288.666 185.734,287.572 184.570 C 286.617 183.554,286.307 183.426,285.867 183.867 M290.800 188.000 C 290.800 188.246,290.640 188.349,290.445 188.228 C 290.038 187.977,289.531 189.564,289.852 190.084 C 290.133 190.538,293.184 190.349,293.487 189.858 C 293.617 189.648,293.516 189.605,293.262 189.762 C 293.008 189.919,292.800 189.837,292.800 189.581 C 292.800 189.324,292.530 189.218,292.200 189.345 C 291.796 189.500,291.600 189.326,291.600 188.811 C 291.600 188.391,291.420 187.936,291.200 187.800 C 290.980 187.664,290.800 187.754,290.800 188.000 M296.400 190.400 C 296.955 190.759,296.672 190.981,295.851 190.831 C 295.659 190.796,295.605 191.035,295.731 191.363 C 295.893 191.787,295.773 191.888,295.314 191.712 C 294.903 191.554,294.768 191.624,294.941 191.904 C 295.091 192.147,295.030 192.458,294.807 192.596 C 294.583 192.734,294.400 192.627,294.400 192.357 C 294.400 192.087,294.284 191.982,294.143 192.124 C 293.679 192.587,294.726 193.420,295.875 193.500 C 296.838 193.568,296.908 193.508,296.360 193.089 C 295.895 192.733,295.840 192.480,296.160 192.160 C 296.480 191.840,296.737 191.895,297.103 192.360 C 297.541 192.916,297.592 192.869,297.493 192.000 C 297.351 190.747,296.894 189.998,296.276 190.006 C 295.990 190.010,296.039 190.167,296.400 190.400 " stroke="none" fill="#ec7454" fill-rule="evenodd"></path><path id="path4" d="M226.871 99.029 C 225.991 100.026,226.535 100.266,227.486 99.300 C 227.973 98.805,228.153 98.407,227.886 98.415 C 227.619 98.424,227.162 98.700,226.871 99.029 M282.800 107.024 C 282.800 107.367,282.965 107.545,283.168 107.420 C 283.647 107.124,284.876 108.353,284.580 108.832 C 284.455 109.035,284.633 109.200,284.976 109.200 C 285.881 109.200,285.744 108.580,284.582 107.418 C 283.420 106.256,282.800 106.119,282.800 107.024 M294.124 119.582 C 294.257 120.454,295.614 122.119,295.932 121.801 C 296.044 121.689,296.534 121.858,297.020 122.176 C 297.870 122.733,297.887 122.719,297.458 121.812 C 297.213 121.293,296.847 120.971,296.645 121.096 C 296.442 121.221,296.410 121.108,296.573 120.844 C 296.966 120.208,296.021 119.106,295.315 119.377 C 295.009 119.495,294.868 119.413,295.003 119.195 C 295.137 118.978,294.968 118.800,294.626 118.800 C 294.236 118.800,294.049 119.091,294.124 119.582 M200.304 124.100 C 200.440 125.631,200.749 126.448,201.445 127.116 C 201.971 127.620,202.745 128.700,203.166 129.516 C 203.587 130.332,204.741 131.671,205.732 132.492 C 206.844 133.413,207.634 134.444,207.797 135.187 C 207.942 135.849,208.515 136.747,209.069 137.182 C 209.657 137.645,210.578 139.269,211.283 141.087 C 211.947 142.799,212.851 144.706,213.290 145.325 C 213.818 146.068,214.215 147.562,214.457 149.725 C 214.983 154.423,215.085 154.720,216.386 155.393 C 218.051 156.254,218.545 156.164,219.930 154.747 C 222.986 151.621,238.850 150.679,243.000 153.377 C 245.029 154.696,251.138 160.897,251.580 162.087 C 251.848 162.809,252.702 164.687,253.478 166.259 C 255.036 169.419,255.240 171.679,254.610 178.824 L 254.308 182.248 255.454 183.013 C 256.378 183.631,257.413 183.794,260.800 183.854 C 268.742 183.996,271.912 184.752,274.000 187.002 C 274.550 187.594,275.855 188.514,276.900 189.046 C 277.945 189.578,278.800 190.226,278.800 190.485 C 278.800 191.133,280.831 193.200,281.468 193.200 C 281.753 193.200,282.435 194.055,282.982 195.100 C 284.662 198.305,285.606 199.096,287.945 199.258 C 291.326 199.492,290.690 197.682,287.168 197.047 C 285.959 196.830,285.590 196.494,284.793 194.895 C 283.942 193.186,281.605 190.711,276.097 185.685 C 273.307 183.140,266.531 181.000,261.260 181.000 L 257.520 181.000 256.767 179.532 C 256.073 178.180,256.060 177.929,256.607 176.381 C 257.678 173.345,256.658 165.681,254.852 163.200 C 254.452 162.650,253.801 161.570,253.406 160.800 C 252.681 159.385,246.876 153.392,245.111 152.236 C 238.584 147.959,225.765 148.130,218.968 152.584 C 218.451 152.923,217.952 153.200,217.860 153.200 C 217.310 153.200,216.400 150.152,216.400 148.311 C 216.400 146.675,216.113 145.611,215.228 143.972 C 214.583 142.777,213.434 140.540,212.675 139.000 C 211.916 137.460,210.823 135.764,210.247 135.230 C 209.671 134.697,209.200 133.995,209.200 133.670 C 209.200 133.345,208.255 132.123,207.100 130.954 C 203.985 127.801,202.935 126.357,202.622 124.800 C 202.110 122.255,201.965 122.000,201.032 122.000 C 200.172 122.000,200.129 122.125,200.304 124.100 M304.610 178.780 C 304.253 179.470,303.520 180.236,302.981 180.482 C 302.441 180.727,302.000 181.116,302.000 181.344 C 302.000 181.612,302.159 181.601,302.449 181.311 C 302.696 181.064,303.112 180.945,303.374 181.045 C 303.930 181.259,305.453 179.720,305.068 179.334 C 304.924 179.191,305.011 178.828,305.260 178.527 C 305.510 178.227,305.612 177.878,305.486 177.753 C 305.361 177.628,304.967 178.090,304.610 178.780 M300.074 188.282 C 299.564 188.831,299.217 189.350,299.303 189.436 C 299.388 189.522,299.974 189.054,300.604 188.396 C 301.234 187.738,301.581 187.219,301.375 187.242 C 301.169 187.265,300.583 187.734,300.074 188.282 M158.902 227.590 C 157.082 228.022,156.522 228.590,154.968 231.577 C 154.217 233.020,153.073 234.830,152.425 235.600 C 150.992 237.302,149.541 242.539,150.824 241.379 C 151.222 241.018,151.915 239.942,152.364 238.987 C 152.813 238.032,153.440 237.104,153.758 236.925 C 154.075 236.746,155.115 235.070,156.068 233.200 C 159.648 226.173,167.268 227.693,166.797 235.341 C 166.518 239.866,166.943 241.230,168.780 241.711 C 169.415 241.877,169.468 241.740,169.193 240.651 C 169.020 239.963,168.770 237.703,168.638 235.630 C 168.194 228.642,165.130 226.112,158.902 227.590 " stroke="none" fill="#f4ac8c" fill-rule="evenodd"></path></g></svg>