<svg id="svg" version="1.1" xmlns="http://www.w3.org/2000/svg" xmlns:xlink="http://www.w3.org/1999/xlink" width="400" height="400" viewBox="0, 0, 400,400"><g id="svgg"><path id="path0" d="M204.658 90.383 C 202.927 90.725,202.415 91.297,202.406 92.900 C 202.401 93.895,202.257 94.004,200.900 94.046 C 198.347 94.125,198.201 94.177,198.158 95.024 C 198.099 96.191,196.154 98.000,194.958 98.000 C 194.405 98.000,194.059 98.172,194.189 98.383 C 194.320 98.594,193.883 99.047,193.220 99.390 C 192.556 99.733,191.737 100.549,191.398 101.204 C 191.059 101.859,190.651 102.374,190.491 102.350 C 188.150 101.992,186.218 103.377,186.488 105.218 C 186.580 105.845,186.496 106.259,186.301 106.139 C 186.106 106.018,185.980 106.163,186.021 106.460 C 186.412 109.309,186.071 109.952,184.100 110.078 L 182.200 110.200 182.087 114.000 L 181.974 117.800 184.711 119.075 C 186.459 119.889,187.608 120.699,187.888 121.314 C 188.130 121.844,189.130 122.655,190.111 123.116 C 191.231 123.643,192.210 124.490,192.745 125.397 C 193.240 126.235,194.107 127.018,194.813 127.264 C 195.601 127.539,196.307 128.233,196.818 129.236 C 197.253 130.087,198.113 131.045,198.731 131.364 C 199.359 131.689,200.177 132.661,200.587 133.571 C 200.990 134.465,201.907 135.645,202.625 136.192 C 203.589 136.927,204.165 137.897,204.824 139.894 C 205.316 141.382,206.137 143.103,206.649 143.718 C 207.880 145.198,209.200 149.568,209.200 152.166 C 209.200 156.013,213.000 156.720,216.310 153.487 C 219.459 150.413,235.516 150.353,238.800 153.403 C 239.350 153.914,240.825 154.814,242.078 155.402 C 243.331 155.991,244.649 156.920,245.007 157.467 C 245.366 158.015,246.192 158.648,246.844 158.875 C 247.600 159.139,248.315 159.850,248.820 160.838 C 249.254 161.691,250.103 162.703,250.705 163.089 C 252.195 164.041,252.664 164.712,253.219 166.680 C 253.480 167.604,254.024 168.660,254.430 169.027 C 256.541 170.937,257.856 180.092,256.613 184.222 C 255.770 187.023,256.691 188.652,259.027 188.492 C 264.548 188.114,266.814 188.341,269.317 189.522 C 270.682 190.168,272.841 191.102,274.114 191.600 C 275.386 192.097,276.614 192.853,276.842 193.278 C 277.070 193.704,278.099 194.413,279.128 194.853 C 281.060 195.679,284.115 198.494,285.365 200.600 C 285.757 201.260,286.645 202.164,287.339 202.608 C 288.134 203.117,288.792 204.004,289.121 205.008 C 289.408 205.884,290.182 207.158,290.841 207.840 C 291.501 208.522,292.472 210.142,293.000 211.440 L 293.960 213.800 305.880 213.800 L 317.800 213.800 317.877 212.056 C 317.975 209.838,317.751 209.966,321.547 209.958 C 325.261 209.950,326.000 209.523,326.000 207.386 C 326.000 206.412,326.240 205.900,326.848 205.574 C 327.444 205.255,327.616 205.251,327.425 205.560 C 327.049 206.168,328.908 206.132,329.520 205.520 C 330.132 204.908,330.168 203.049,329.560 203.425 C 329.259 203.610,329.268 203.421,329.586 202.826 C 329.842 202.347,329.982 201.747,329.897 201.492 C 329.812 201.237,330.296 200.752,330.971 200.414 C 331.755 200.022,332.373 199.293,332.677 198.400 C 332.940 197.630,333.165 197.236,333.177 197.524 C 333.190 197.812,333.376 197.938,333.592 197.805 C 333.837 197.654,333.981 191.811,333.976 182.217 C 333.967 165.200,334.046 165.693,331.397 166.123 C 330.019 166.347,329.999 166.330,329.954 164.875 C 329.861 161.911,330.079 162.146,327.322 162.046 C 326.089 162.002,326.040 161.934,325.922 160.100 L 325.800 158.200 324.007 158.072 C 322.027 157.932,321.519 157.464,321.861 156.098 C 322.163 154.895,321.322 153.947,320.037 154.043 C 319.467 154.086,317.877 154.093,316.505 154.060 L 314.009 154.000 313.752 152.391 C 313.420 150.316,313.234 150.225,309.237 150.194 L 305.874 150.167 305.837 144.517 C 305.796 138.194,305.871 138.414,303.633 138.114 C 302.068 137.904,301.999 137.834,301.981 136.447 C 301.912 131.157,301.691 130.581,299.609 130.248 C 297.990 129.989,297.776 129.680,297.941 127.847 C 298.036 126.801,297.253 125.974,296.246 126.056 C 294.032 126.236,293.600 126.035,293.600 124.829 C 293.600 123.325,292.677 122.416,291.071 122.339 C 290.372 122.306,289.620 122.236,289.400 122.185 C 289.180 122.134,287.448 122.072,285.551 122.046 L 282.102 122.000 281.844 120.388 C 281.515 118.329,280.675 117.987,276.074 118.040 C 271.158 118.096,270.674 118.285,270.243 120.318 L 269.886 122.000 267.743 122.000 C 265.654 122.000,265.600 121.971,265.600 120.862 C 265.600 119.469,264.500 118.400,263.069 118.400 C 262.014 118.400,261.999 118.363,261.946 115.500 C 261.838 109.693,262.016 110.205,260.096 110.163 C 258.021 110.118,258.106 110.202,257.925 108.012 L 257.776 106.224 255.988 106.075 C 253.843 105.898,254.150 106.329,253.843 103.060 C 253.478 99.175,252.308 97.736,250.180 98.552 C 249.823 98.689,249.663 98.622,249.803 98.395 C 249.939 98.175,249.602 98.000,249.042 98.000 C 247.846 98.000,245.901 96.191,245.842 95.024 C 245.799 94.177,245.653 94.125,243.100 94.046 C 241.672 94.002,241.600 93.935,241.600 92.649 C 241.600 90.152,241.994 90.206,223.239 90.139 C 213.868 90.106,205.506 90.216,204.658 90.383 M206.400 90.590 C 206.400 90.694,205.865 91.056,205.210 91.395 C 204.556 91.733,203.753 92.503,203.426 93.105 C 203.099 93.707,202.825 93.963,202.816 93.674 C 202.785 92.660,203.674 91.530,204.931 90.983 C 206.410 90.340,206.400 90.343,206.400 90.590 M240.218 91.782 C 240.758 92.322,241.194 92.997,241.186 93.282 C 241.178 93.567,240.933 93.370,240.642 92.844 C 240.350 92.318,239.682 91.650,239.156 91.358 C 238.630 91.067,238.433 90.822,238.718 90.814 C 239.003 90.806,239.678 91.242,240.218 91.782 M251.818 100.182 C 252.358 100.722,252.800 101.392,252.800 101.671 C 252.800 101.950,252.524 101.784,252.187 101.302 C 251.849 100.821,251.179 100.151,250.698 99.813 C 250.216 99.476,250.050 99.200,250.329 99.200 C 250.608 99.200,251.278 99.642,251.818 100.182 M194.000 101.153 C 194.000 101.570,193.643 102.000,193.200 102.116 C 192.305 102.350,192.121 101.639,192.880 100.880 C 193.574 100.186,194.000 100.290,194.000 101.153 M189.302 103.813 C 188.821 104.151,188.151 104.821,187.813 105.302 C 187.476 105.784,187.200 105.950,187.200 105.671 C 187.200 105.392,187.642 104.722,188.182 104.182 C 188.722 103.642,189.392 103.200,189.671 103.200 C 189.950 103.200,189.784 103.476,189.302 103.813 M292.606 124.130 C 292.933 124.597,293.193 125.253,293.184 125.589 C 293.175 125.936,292.913 125.730,292.576 125.110 C 291.952 123.960,290.606 123.026,290.058 123.364 C 289.880 123.474,289.733 123.323,289.733 123.026 C 289.733 122.238,291.851 123.051,292.606 124.130 M300.602 131.602 C 301.625 132.732,301.190 132.837,300.114 131.720 C 299.627 131.214,299.374 130.800,299.552 130.800 C 299.730 130.800,300.203 131.161,300.602 131.602 M305.002 139.202 C 306.025 140.332,305.590 140.437,304.514 139.320 C 304.027 138.814,303.774 138.400,303.952 138.400 C 304.130 138.400,304.603 138.761,305.002 139.202 M312.602 151.602 C 313.625 152.732,313.190 152.837,312.114 151.720 C 311.627 151.214,311.374 150.800,311.552 150.800 C 311.730 150.800,312.203 151.161,312.602 151.602 M331.448 198.578 C 330.683 199.731,330.000 199.804,330.000 198.733 C 330.000 198.009,330.220 197.800,330.982 197.800 C 331.866 197.800,331.913 197.878,331.448 198.578 " stroke="none" fill="#494949" fill-rule="evenodd"></path><path id="path1" d="M151.502 219.718 C 149.774 220.141,148.540 221.586,148.203 223.582 C 148.043 224.529,147.384 225.861,146.629 226.765 C 145.915 227.620,145.110 228.923,144.840 229.660 C 144.571 230.397,143.549 232.620,142.569 234.600 C 141.589 236.580,140.790 238.398,140.794 238.641 C 140.797 238.883,140.002 240.296,139.027 241.781 C 138.051 243.267,136.876 245.723,136.415 247.240 C 135.937 248.813,135.067 250.580,134.388 251.353 C 133.733 252.099,132.910 253.404,132.559 254.254 C 131.601 256.572,130.912 257.137,128.447 257.626 C 126.733 257.966,125.731 258.481,124.222 259.794 L 122.244 261.517 122.222 265.397 C 122.198 269.660,122.269 269.793,124.600 269.815 C 125.480 269.824,128.855 269.869,132.100 269.915 L 138.000 270.000 138.000 272.000 C 138.000 274.174,138.216 274.017,135.008 274.176 C 134.143 274.219,134.172 274.064,134.068 279.151 L 134.000 282.502 132.424 282.250 C 130.419 281.930,130.275 282.176,130.125 286.187 C 129.971 290.300,129.910 290.442,128.415 290.143 C 127.460 289.952,127.200 290.039,127.200 290.550 C 127.200 290.907,126.931 291.200,126.602 291.200 C 126.155 291.200,126.022 291.628,126.073 292.900 C 126.243 297.126,126.068 298.000,125.047 298.000 C 124.418 298.000,124.019 298.283,123.876 298.830 C 123.757 299.286,123.300 299.753,122.862 299.868 C 122.115 300.063,122.068 300.388,122.132 304.938 L 122.200 309.800 127.436 309.935 C 133.360 310.088,134.000 309.838,134.000 307.371 C 134.000 306.080,134.082 305.997,135.400 305.950 C 136.170 305.923,137.019 305.877,137.287 305.850 C 137.565 305.821,137.838 305.027,137.924 304.000 C 138.106 301.794,138.048 301.853,140.112 301.799 C 141.698 301.759,141.802 301.685,141.825 300.578 C 141.890 297.514,141.865 297.554,143.591 297.762 C 145.463 297.987,145.800 297.627,145.800 295.400 L 145.800 293.800 147.466 293.800 C 149.535 293.800,149.792 293.547,149.833 291.465 C 149.949 285.676,149.858 286.000,151.371 286.000 C 153.114 286.000,154.000 285.114,154.000 283.371 C 154.000 282.103,154.098 281.995,155.300 281.939 C 156.015 281.906,156.853 281.860,157.162 281.837 C 157.528 281.811,157.783 281.169,157.891 280.002 C 158.093 277.837,157.892 278.044,159.978 277.856 C 161.684 277.703,161.703 277.685,161.854 276.007 C 162.059 273.727,162.279 273.476,163.842 273.729 C 164.754 273.877,165.153 273.796,165.091 273.473 C 165.041 273.213,165.229 273.046,165.508 273.103 C 165.859 273.174,165.941 272.903,165.772 272.232 C 165.308 270.383,165.889 269.543,167.431 269.832 C 168.530 270.038,168.800 269.962,168.800 269.445 C 168.800 269.090,169.073 268.800,169.407 268.800 C 169.858 268.800,169.992 268.413,169.927 267.300 C 169.663 262.776,169.873 262.059,171.500 261.924 L 173.000 261.800 172.893 257.870 L 172.786 253.939 174.393 252.113 C 176.801 249.377,175.843 248.071,171.969 248.806 C 168.478 249.468,160.573 249.316,159.829 248.572 C 158.346 247.089,158.990 242.510,160.930 240.751 C 163.102 238.781,163.585 238.179,163.810 237.156 C 163.942 236.555,164.460 235.620,164.962 235.078 C 165.464 234.537,166.543 232.879,167.358 231.395 C 168.174 229.911,169.372 228.166,170.021 227.518 C 170.669 226.869,171.200 226.108,171.200 225.826 C 171.200 225.543,171.884 224.522,172.720 223.556 C 174.374 221.646,174.454 220.878,173.088 220.019 C 172.084 219.387,153.891 219.134,151.502 219.718 M122.584 298.827 C 122.439 299.061,122.416 299.349,122.533 299.467 C 122.820 299.753,123.600 299.248,123.600 298.776 C 123.600 298.265,122.909 298.299,122.584 298.827 " stroke="none" fill="#ec6442" fill-rule="evenodd"></path><path id="path2" d="M192.792 101.010 C 192.514 101.345,192.397 101.731,192.533 101.867 C 192.824 102.157,194.000 101.263,194.000 100.751 C 194.000 100.200,193.348 100.340,192.792 101.010 M155.200 111.200 C 154.760 111.640,154.400 112.435,154.400 112.966 L 154.400 113.931 147.900 114.066 C 140.521 114.219,139.265 114.574,138.662 116.681 C 138.318 117.884,138.170 117.969,136.248 118.081 L 134.200 118.200 134.079 120.079 L 133.958 121.958 132.079 122.079 L 130.200 122.200 130.078 124.100 C 129.948 126.130,129.909 126.154,126.700 126.140 C 126.234 126.138,126.000 126.446,126.000 127.065 C 126.000 128.160,123.811 130.400,122.741 130.400 C 122.130 130.400,122.000 130.715,122.000 132.200 C 122.000 133.955,121.967 134.001,120.700 134.046 C 118.410 134.127,118.201 134.189,118.146 134.800 C 118.117 135.130,118.072 135.985,118.046 136.700 C 118.015 137.568,117.801 138.000,117.400 138.000 C 117.058 138.000,116.780 138.387,116.754 138.900 C 116.717 139.613,116.668 139.650,116.520 139.077 C 116.252 138.042,114.636 138.350,114.477 139.466 C 114.396 140.033,114.603 140.397,115.077 140.520 C 115.633 140.664,115.586 140.718,114.871 140.754 C 114.165 140.789,113.960 141.015,114.016 141.700 C 114.056 142.195,114.069 145.142,114.044 148.249 L 114.000 153.898 112.388 154.156 C 110.319 154.486,110.003 155.287,110.034 160.113 C 110.047 162.141,110.044 164.361,110.029 165.046 L 110.000 166.293 107.190 166.494 C 104.229 166.705,102.800 167.469,102.800 168.838 C 102.800 169.929,102.506 169.984,96.472 170.024 C 90.262 170.065,89.770 170.249,90.087 172.414 C 90.319 173.994,90.169 174.061,86.371 174.076 C 82.627 174.091,81.839 174.567,82.083 176.665 C 82.238 177.987,82.223 178.000,80.600 178.000 C 78.564 178.000,78.000 178.538,78.000 180.480 C 78.000 182.037,77.758 182.212,75.876 182.017 C 74.863 181.912,73.948 182.775,74.024 183.766 C 74.173 185.690,74.015 185.927,72.402 186.200 C 70.233 186.566,70.102 186.946,70.013 193.100 C 70.005 193.628,69.752 194.000,69.400 194.000 C 69.058 194.000,68.780 194.387,68.754 194.900 C 68.717 195.613,68.668 195.650,68.520 195.077 C 68.397 194.603,68.033 194.396,67.466 194.477 C 66.350 194.636,66.042 196.252,67.077 196.520 C 67.650 196.668,67.613 196.717,66.900 196.754 L 66.000 196.800 66.006 212.900 C 66.013 231.081,66.311 233.200,68.862 233.200 C 69.802 233.200,69.977 233.632,70.161 236.409 C 70.240 237.614,70.327 238.915,70.353 239.300 C 70.422 240.328,71.858 241.600,72.948 241.600 C 73.776 241.600,73.922 241.830,74.101 243.420 C 74.350 245.628,74.337 245.614,76.367 245.886 C 77.948 246.098,78.000 246.153,78.000 247.604 C 78.000 249.470,78.710 250.087,80.672 249.926 C 82.111 249.807,82.224 249.881,82.613 251.200 C 83.121 252.927,84.544 253.689,87.700 253.924 L 90.000 254.096 90.000 255.420 C 90.000 257.864,90.443 258.000,98.396 258.000 C 106.582 258.000,106.716 258.026,106.494 259.538 C 106.294 260.905,107.217 261.767,108.598 261.503 C 109.149 261.397,109.600 261.466,109.600 261.655 C 109.600 261.845,112.354 262.000,115.720 262.000 L 121.839 262.000 122.356 260.570 C 122.748 259.486,123.276 258.966,124.537 258.422 C 125.452 258.027,126.548 257.315,126.974 256.839 C 127.399 256.363,128.344 255.605,129.074 255.154 C 129.803 254.704,130.400 254.124,130.400 253.867 C 130.401 253.104,132.630 248.675,133.517 247.675 C 133.968 247.166,134.719 245.493,135.185 243.957 C 135.718 242.203,136.526 240.614,137.357 239.683 C 138.201 238.737,138.989 237.173,139.532 235.364 C 140.001 233.804,140.717 232.094,141.124 231.564 C 141.530 231.034,142.619 229.025,143.543 227.100 C 144.467 225.175,145.383 223.600,145.578 223.600 C 145.774 223.600,146.248 222.745,146.633 221.700 C 148.581 216.403,148.831 216.318,162.918 216.181 C 176.475 216.049,176.187 215.967,176.654 220.119 L 176.915 222.437 175.117 224.119 C 174.111 225.060,173.101 226.469,172.823 227.319 C 172.549 228.154,171.608 229.667,170.731 230.680 C 169.853 231.694,168.726 233.441,168.225 234.562 C 167.725 235.683,166.930 236.943,166.458 237.362 C 165.986 237.781,165.600 238.346,165.600 238.618 C 165.600 238.890,164.779 240.227,163.776 241.590 C 160.049 246.653,160.175 246.881,166.643 246.747 C 175.533 246.563,175.927 246.590,177.104 247.466 C 179.028 248.898,179.106 249.973,177.452 252.275 C 176.417 253.716,176.000 254.715,176.000 255.756 C 176.000 256.933,175.802 257.307,174.983 257.680 C 174.078 258.093,173.977 258.354,174.055 260.072 L 174.143 262.000 217.507 262.000 L 260.872 262.000 261.623 261.100 C 262.265 260.330,262.375 260.301,262.387 260.900 C 262.404 261.798,264.098 261.844,264.971 260.971 C 265.823 260.120,265.781 258.506,264.900 258.276 C 264.228 258.100,274.638 257.829,276.124 257.983 C 277.275 258.103,277.977 257.235,277.922 255.761 C 277.857 254.051,277.894 254.019,280.034 253.899 C 281.904 253.794,281.849 253.873,281.957 251.122 C 281.997 250.127,282.146 250.034,283.900 249.922 L 285.800 249.800 285.921 247.921 L 286.042 246.042 287.921 245.921 L 289.800 245.800 290.000 243.800 L 290.200 241.800 292.000 241.800 L 293.800 241.800 293.869 240.000 C 293.907 239.010,293.952 237.165,293.969 235.900 C 293.998 233.722,294.053 233.600,295.000 233.600 C 296.295 233.600,297.582 232.296,297.665 230.900 C 298.386 218.733,297.985 214.495,296.085 214.199 C 291.470 213.480,288.423 211.192,287.504 207.757 C 287.142 206.404,286.582 205.541,285.501 204.672 C 284.675 204.009,283.659 202.887,283.241 202.180 C 282.824 201.473,281.938 200.572,281.273 200.179 C 280.607 199.786,279.837 199.043,279.562 198.528 C 279.248 197.942,278.213 197.283,276.793 196.765 C 275.546 196.311,274.076 195.522,273.527 195.013 C 271.220 192.874,268.895 192.394,260.200 192.265 C 254.094 192.175,253.049 191.580,252.881 188.100 C 252.792 186.239,252.962 185.251,253.581 184.036 C 254.550 182.139,254.612 179.639,253.746 177.400 C 253.406 176.520,252.502 173.730,251.737 171.200 C 250.514 167.156,250.157 166.431,248.779 165.200 C 247.918 164.430,247.039 163.317,246.827 162.728 C 246.577 162.033,245.835 161.379,244.720 160.870 C 243.774 160.438,242.534 159.635,241.965 159.086 C 236.530 153.846,223.250 153.427,214.109 158.207 C 208.819 160.973,207.899 160.373,206.817 153.444 C 206.456 151.132,206.018 149.866,205.182 148.712 C 204.485 147.750,203.785 145.987,203.385 144.189 C 202.845 141.763,202.381 140.809,200.755 138.783 C 199.669 137.430,198.524 135.827,198.211 135.221 C 197.897 134.615,197.175 133.813,196.605 133.440 C 196.035 133.066,195.264 132.122,194.891 131.341 C 194.480 130.479,193.632 129.625,192.733 129.166 C 191.918 128.750,190.943 127.888,190.566 127.251 C 190.190 126.613,189.256 125.794,188.492 125.429 C 184.632 123.588,182.409 120.554,182.031 116.611 L 181.800 114.200 175.700 114.090 L 169.600 113.979 169.600 112.990 C 169.600 110.745,168.586 110.400,162.000 110.400 C 156.533 110.400,155.929 110.471,155.200 111.200 M330.392 198.610 C 330.114 198.945,329.997 199.331,330.133 199.467 C 330.424 199.757,331.600 198.863,331.600 198.351 C 331.600 197.800,330.948 197.940,330.392 198.610 " stroke="none" fill="#f4f4f4" fill-rule="evenodd"></path><path id="path3" d="M204.931 90.983 C 203.674 91.530,202.785 92.660,202.816 93.674 C 202.825 93.963,203.099 93.707,203.426 93.105 C 203.753 92.503,204.556 91.733,205.210 91.395 C 207.100 90.418,206.902 90.126,204.931 90.983 M239.156 91.358 C 239.682 91.650,240.350 92.318,240.642 92.844 C 240.933 93.370,241.178 93.567,241.186 93.282 C 241.204 92.610,239.390 90.796,238.718 90.814 C 238.433 90.822,238.630 91.067,239.156 91.358 M250.698 99.813 C 251.179 100.151,251.849 100.821,252.187 101.302 C 252.524 101.784,252.800 101.950,252.800 101.671 C 252.800 101.013,250.987 99.200,250.329 99.200 C 250.050 99.200,250.216 99.476,250.698 99.813 M188.182 104.182 C 187.642 104.722,187.200 105.392,187.200 105.671 C 187.200 105.950,187.476 105.784,187.813 105.302 C 188.151 104.821,188.821 104.151,189.302 103.813 C 189.784 103.476,189.950 103.200,189.671 103.200 C 189.392 103.200,188.722 103.642,188.182 104.182 M182.400 118.363 C 182.400 118.848,188.321 124.400,188.837 124.400 C 189.236 124.400,191.204 126.174,194.504 129.510 C 197.680 132.719,198.708 133.892,199.513 135.226 C 199.987 136.011,200.759 137.001,201.230 137.426 C 202.210 138.311,203.750 141.230,204.171 143.000 C 204.329 143.660,205.072 145.411,205.824 146.890 C 206.668 148.553,207.362 150.692,207.640 152.490 C 208.054 155.171,209.271 158.400,209.867 158.400 C 210.704 158.400,215.276 156.483,216.744 155.516 C 223.182 151.277,236.583 152.858,243.372 158.657 C 244.237 159.396,245.168 160.000,245.442 160.000 C 245.715 160.000,246.358 160.560,246.870 161.245 C 247.381 161.930,248.543 163.267,249.452 164.216 C 250.658 165.477,251.446 166.890,252.376 169.459 C 253.076 171.394,253.794 173.162,253.972 173.388 C 255.101 174.826,255.593 181.135,254.830 184.402 C 253.663 189.405,255.448 191.428,260.616 190.960 C 265.661 190.503,272.568 192.146,274.996 194.381 C 275.438 194.788,276.663 195.522,277.717 196.013 C 279.923 197.038,287.536 204.890,288.200 206.825 C 288.618 208.041,291.315 211.617,293.027 213.225 L 294.021 214.159 293.435 212.499 C 292.593 210.113,292.051 209.156,290.773 207.800 C 290.151 207.140,289.408 205.884,289.121 205.008 C 288.792 204.004,288.134 203.117,287.339 202.608 C 286.645 202.164,285.757 201.260,285.365 200.600 C 284.115 198.494,281.060 195.679,279.128 194.853 C 278.099 194.413,277.070 193.704,276.842 193.278 C 276.614 192.853,275.386 192.097,274.114 191.600 C 272.841 191.102,270.682 190.168,269.317 189.522 C 266.814 188.341,264.548 188.114,259.027 188.492 C 256.691 188.652,255.770 187.023,256.613 184.222 C 257.856 180.092,256.541 170.937,254.430 169.027 C 254.024 168.660,253.480 167.604,253.219 166.680 C 252.664 164.712,252.195 164.041,250.705 163.089 C 250.103 162.703,249.254 161.691,248.820 160.838 C 248.315 159.850,247.600 159.139,246.844 158.875 C 246.192 158.648,245.366 158.015,245.007 157.467 C 244.649 156.920,243.331 155.991,242.078 155.402 C 240.825 154.814,239.350 153.914,238.800 153.403 C 235.516 150.353,219.459 150.413,216.310 153.487 C 213.000 156.720,209.200 156.013,209.200 152.166 C 209.200 149.568,207.880 145.198,206.649 143.718 C 206.137 143.103,205.316 141.382,204.824 139.894 C 204.165 137.897,203.589 136.927,202.625 136.192 C 201.907 135.645,200.990 134.465,200.587 133.571 C 200.177 132.661,199.359 131.689,198.731 131.364 C 198.113 131.045,197.253 130.087,196.818 129.236 C 196.307 128.233,195.601 127.539,194.813 127.264 C 194.107 127.018,193.240 126.235,192.745 125.397 C 192.210 124.490,191.231 123.643,190.111 123.116 C 189.130 122.655,188.151 121.890,187.935 121.417 C 187.719 120.944,187.171 120.325,186.716 120.041 C 185.252 119.126,182.400 118.018,182.400 118.363 M289.733 123.026 C 289.733 123.323,289.880 123.474,290.058 123.364 C 290.606 123.026,291.952 123.960,292.576 125.110 C 292.913 125.730,293.175 125.936,293.184 125.589 C 293.210 124.608,292.104 123.315,290.873 122.885 C 289.988 122.577,289.733 122.608,289.733 123.026 M300.114 131.720 C 300.601 132.226,301.074 132.587,301.164 132.523 C 301.398 132.355,299.942 130.800,299.552 130.800 C 299.374 130.800,299.627 131.214,300.114 131.720 M304.514 139.320 C 305.001 139.826,305.474 140.187,305.564 140.123 C 305.798 139.955,304.342 138.400,303.952 138.400 C 303.774 138.400,304.027 138.814,304.514 139.320 M305.727 149.400 C 305.782 149.943,306.128 150.221,306.804 150.266 C 307.639 150.320,307.658 150.300,306.925 150.141 C 306.443 150.036,305.958 149.647,305.848 149.275 C 305.702 148.789,305.669 148.824,305.727 149.400 M312.114 151.720 C 312.601 152.226,313.074 152.587,313.164 152.523 C 313.398 152.355,311.942 150.800,311.552 150.800 C 311.374 150.800,311.627 151.214,312.114 151.720 " stroke="none" fill="#747474" fill-rule="evenodd"></path><path id="path4" d="M182.400 118.978 C 182.400 120.593,185.717 124.106,188.492 125.429 C 189.256 125.794,190.190 126.613,190.566 127.251 C 190.943 127.888,191.918 128.750,192.733 129.166 C 193.632 129.625,194.480 130.479,194.891 131.341 C 195.264 132.122,196.035 133.066,196.605 133.440 C 197.175 133.813,197.897 134.615,198.211 135.221 C 198.524 135.827,199.669 137.430,200.755 138.783 C 202.381 140.809,202.845 141.763,203.385 144.189 C 203.785 145.987,204.485 147.750,205.182 148.712 C 206.018 149.866,206.456 151.132,206.817 153.444 C 207.899 160.373,208.819 160.973,214.109 158.207 C 223.250 153.427,236.530 153.846,241.965 159.086 C 242.534 159.635,243.774 160.438,244.720 160.870 C 245.835 161.379,246.577 162.033,246.827 162.728 C 247.039 163.317,247.918 164.430,248.779 165.200 C 250.157 166.431,250.514 167.156,251.737 171.200 C 252.502 173.730,253.406 176.520,253.746 177.400 C 254.612 179.639,254.550 182.139,253.581 184.036 C 252.962 185.251,252.792 186.239,252.881 188.100 C 253.049 191.580,254.094 192.175,260.200 192.265 C 268.895 192.394,271.220 192.874,273.527 195.013 C 274.076 195.522,275.546 196.311,276.793 196.765 C 278.213 197.283,279.248 197.942,279.562 198.528 C 279.837 199.043,280.607 199.786,281.273 200.179 C 281.938 200.572,282.824 201.473,283.241 202.180 C 283.659 202.887,284.720 204.045,285.600 204.752 C 286.480 205.459,287.200 206.332,287.200 206.693 C 287.200 208.104,288.966 210.890,290.700 212.214 C 293.439 214.306,293.490 213.898,290.875 210.792 C 289.575 209.247,288.351 207.458,288.155 206.815 C 287.585 204.941,279.970 197.060,277.717 196.013 C 276.663 195.522,275.438 194.788,274.996 194.381 C 272.568 192.146,265.661 190.503,260.616 190.960 C 255.448 191.428,253.663 189.405,254.830 184.402 C 255.593 181.135,255.101 174.826,253.972 173.388 C 253.794 173.162,253.076 171.394,252.376 169.459 C 251.446 166.890,250.658 165.477,249.452 164.216 C 248.543 163.267,247.381 161.930,246.870 161.245 C 246.358 160.560,245.715 160.000,245.442 160.000 C 245.168 160.000,244.237 159.396,243.372 158.657 C 241.699 157.228,239.567 156.024,236.000 154.493 C 231.067 152.376,220.673 152.929,216.744 155.516 C 215.276 156.483,210.704 158.400,209.867 158.400 C 209.271 158.400,208.054 155.171,207.640 152.490 C 207.362 150.692,206.668 148.553,205.824 146.890 C 205.072 145.411,204.329 143.660,204.171 143.000 C 203.750 141.230,202.210 138.311,201.230 137.426 C 200.759 137.001,199.987 136.011,199.513 135.226 C 198.708 133.892,197.680 132.719,194.504 129.510 C 191.204 126.174,189.236 124.400,188.837 124.400 C 188.598 124.400,187.052 123.117,185.401 121.549 C 183.751 119.981,182.400 118.824,182.400 118.978 M151.144 216.503 C 149.486 216.904,147.487 219.065,146.870 221.125 C 146.615 221.974,146.020 223.104,145.547 223.635 C 145.074 224.166,144.058 225.950,143.289 227.600 C 142.520 229.250,141.552 231.034,141.137 231.564 C 140.723 232.094,140.001 233.804,139.532 235.364 C 138.989 237.173,138.201 238.737,137.357 239.683 C 136.526 240.614,135.718 242.203,135.185 243.957 C 134.719 245.493,133.968 247.166,133.517 247.675 C 132.630 248.675,130.401 253.104,130.400 253.867 C 130.400 254.124,129.812 254.698,129.093 255.142 C 128.374 255.587,127.358 256.406,126.834 256.963 C 126.311 257.521,125.276 258.177,124.534 258.422 C 123.727 258.688,122.948 259.327,122.593 260.013 C 121.588 261.958,121.919 261.949,124.065 259.977 C 125.735 258.441,126.566 257.993,128.412 257.630 C 130.911 257.138,131.599 256.578,132.559 254.254 C 132.910 253.404,133.733 252.099,134.388 251.353 C 135.067 250.580,135.937 248.813,136.415 247.240 C 136.876 245.723,138.051 243.267,139.027 241.781 C 140.002 240.296,140.797 238.883,140.794 238.641 C 140.790 238.398,141.589 236.580,142.569 234.600 C 143.549 232.620,144.571 230.397,144.840 229.660 C 145.110 228.923,145.909 227.627,146.617 226.780 C 147.325 225.933,148.029 224.556,148.181 223.720 C 148.910 219.736,149.557 219.529,161.600 219.427 C 174.435 219.319,175.913 219.868,172.720 223.556 C 171.884 224.522,171.200 225.543,171.200 225.826 C 171.200 226.108,170.669 226.869,170.021 227.518 C 169.372 228.166,168.174 229.911,167.358 231.395 C 166.543 232.879,165.464 234.537,164.962 235.078 C 164.460 235.620,163.942 236.555,163.810 237.156 C 163.585 238.179,163.102 238.781,160.930 240.751 C 158.990 242.510,158.346 247.089,159.829 248.572 C 160.573 249.316,168.478 249.468,171.969 248.806 C 175.774 248.084,176.773 249.350,174.500 252.014 L 173.000 253.772 173.000 257.833 C 173.000 261.166,173.105 261.879,173.584 261.811 C 174.017 261.750,174.140 261.263,174.059 259.940 C 173.962 258.358,174.067 258.098,174.974 257.684 C 175.803 257.307,176.000 256.936,176.000 255.756 C 176.000 254.715,176.417 253.716,177.452 252.275 C 179.106 249.973,179.028 248.898,177.104 247.466 C 175.927 246.590,175.533 246.563,166.643 246.747 C 160.175 246.881,160.049 246.653,163.776 241.590 C 164.779 240.227,165.600 238.890,165.600 238.618 C 165.600 238.346,165.986 237.781,166.458 237.362 C 166.930 236.943,167.725 235.683,168.225 234.562 C 168.726 233.441,169.853 231.694,170.731 230.680 C 171.608 229.667,172.549 228.154,172.823 227.319 C 173.101 226.469,174.111 225.060,175.117 224.119 L 176.915 222.437 176.643 220.119 C 176.170 216.074,176.593 216.202,163.633 216.189 C 157.503 216.183,151.883 216.324,151.144 216.503 M122.101 265.800 C 122.105 266.680,122.187 266.993,122.283 266.495 C 122.379 265.998,122.375 265.278,122.275 264.895 C 122.175 264.513,122.096 264.920,122.101 265.800 M134.411 274.587 C 134.143 274.909,134.017 275.404,134.131 275.687 C 134.258 276.004,134.349 275.928,134.368 275.487 C 134.386 275.095,134.805 274.611,135.300 274.412 C 135.909 274.168,135.990 274.043,135.549 274.025 C 135.191 274.011,134.679 274.264,134.411 274.587 M161.632 276.513 C 161.614 276.905,161.195 277.389,160.700 277.588 C 160.091 277.832,160.010 277.957,160.451 277.975 C 161.274 278.007,162.141 276.990,161.869 276.313 C 161.742 275.996,161.651 276.072,161.632 276.513 M122.025 308.451 C 121.993 309.274,123.010 310.141,123.687 309.869 C 124.004 309.742,123.928 309.651,123.487 309.632 C 123.095 309.614,122.611 309.195,122.412 308.700 C 122.168 308.091,122.043 308.010,122.025 308.451 " stroke="none" fill="#ecac94" fill-rule="evenodd"></path></g></svg>